<svg id="Layer_1" data-name="Layer 1" xmlns="http://www.w3.org/2000/svg" viewBox="0 0 110.56 29.08"><title>logo-ncar</title><path d="M47.15,8.64c-6.2,0-10,2.84-10,10,0,7.47,4.71,12.08,12.17,12a15.3,15.3,0,0,0,8.21-2.44v4a18.59,18.59,0,0,1-8.65,2c-8.73,0-15.9-5-15.94-15.51C32.93,9.21,39,5.15,46.54,5.13a43.05,43.05,0,0,1,11,1.66l0,4.23c-2.06-1.45-6.92-2.39-10.36-2.37" transform="translate(-3.8 -5.13)"/><path d="M83.45,33.17a10.79,10.79,0,0,0-1.24-3.51c-0.86-1.93-1.77-3.66-2.63-5.59l-12.14,0c-0.85,2-1.69,3.71-2.59,5.65a18.66,18.66,0,0,0-1.13,3.48l-5.2,0s0.61-.56,2-3.72c1-2.41,7.95-17.93,9-20.34A14.73,14.73,0,0,0,70.71,6l5.65,0a12.8,12.8,0,0,0,1.15,3.2c1.05,2.41,7.89,17.75,9,20.2,1.58,3.43,2.21,3.83,2.21,3.83l-5.26,0M73.36,10c-1.55,3.6-3,7.1-4.65,10.7l9.72,0C76.76,17.09,75,13.6,73.36,10Z" transform="translate(-3.8 -5.13)"/><path d="M108,33.08c-0.67-.67-1.38-1.34-2.09-2L94.45,21l0,8.81a11.22,11.22,0,0,0,.34,3.28l-4.65,0a9.89,9.89,0,0,0,.27-3.28L90.37,9.12a22.78,22.78,0,0,0-.25-3.24c3.56,0,6.64-.5,10.1-0.51,5.31,0,9.3,1.86,9.32,6.68s-3.67,7.84-9.93,8.61c3.57,3,7.13,6.14,10.7,9.21a32.2,32.2,0,0,0,4,3.19l-6.4,0M99,8.3c-1.52,0-3,.21-4.6.37l0,8.79c1,0.08,1.9.15,2.89,0.15,4.17,0,7.72-.83,7.71-4.9C105,9.35,102.7,8.29,99,8.3Z" transform="translate(-3.8 -5.13)"/><path d="M24.1,33.26s-0.67-1.14-2.21-3.32c-4.62-6.32-9.2-12.71-13.78-19.07v19a14.31,14.31,0,0,0,.2,3.4H3.8A15.15,15.15,0,0,0,4,29.83V10A26.21,26.21,0,0,0,3.84,6H9.69A21,21,0,0,0,11.94,9.5l13.7,19V9.81A21.28,21.28,0,0,0,25.44,6h4.5a19.6,19.6,0,0,0-.24,3.79V29.28c0,3.59.16,3.59,0.24,4H24.1" transform="translate(-3.8 -5.13)"/></svg>