<svg id="Layer_1" data-name="Layer 1" xmlns="http://www.w3.org/2000/svg" viewBox="0 0 108.04 29.08"><title>logo-ucar</title><path d="M27.9,8.24l0,10.39c0,2.29.1,6.12-.45,8.18-1.29,4.79-6.82,5.83-11.08,5.85s-9.76-1-11.2-5.73c-0.52-1.74-.46-6.16-0.46-8.14l0-10.47A20.65,20.65,0,0,0,4.5,4.65l4.58,0a19.62,19.62,0,0,0-.22,3.72L8.91,22.42a13.68,13.68,0,0,0,.25,2.92c0.84,3.16,4,3.82,7.24,3.81s6.36-.66,7.18-3.78a12.61,12.61,0,0,0,.27-2.85L23.79,8.34a24.27,24.27,0,0,0-.25-3.75l4.54,0a20.33,20.33,0,0,0-.18,3.68" transform="translate(-4.5 -3.6)"/><path d="M45.32,7.11c-6.2,0-10,2.84-10,10,0,7.47,4.71,12.08,12.17,12a15.31,15.31,0,0,0,8.21-2.44v4a18.57,18.57,0,0,1-8.65,2c-8.73,0-15.9-5-15.94-15.51,0-9.48,6.08-13.54,13.58-13.56a43.09,43.09,0,0,1,11,1.66l0,4.23C53.62,8,48.76,7.1,45.32,7.11" transform="translate(-4.5 -3.6)"/><path d="M81.62,31.64a10.8,10.8,0,0,0-1.24-3.51c-0.86-1.93-1.77-3.66-2.63-5.59l-12.14,0c-0.85,2-1.69,3.71-2.59,5.65a18.64,18.64,0,0,0-1.13,3.48l-5.2,0s0.61-.56,2-3.72c1-2.41,7.95-17.93,9-20.34a14.74,14.74,0,0,0,1.22-3.24l5.65,0a12.84,12.84,0,0,0,1.15,3.2c1.05,2.41,7.89,17.75,9,20.2,1.58,3.43,2.21,3.83,2.21,3.83l-5.26,0M71.53,8.48c-1.55,3.6-3,7.1-4.65,10.7l9.72,0C74.93,15.56,73.2,12.07,71.53,8.48Z" transform="translate(-4.5 -3.6)"/><path d="M106.13,31.56c-0.67-.67-1.38-1.34-2.09-2l-11.42-10,0,8.81A11.22,11.22,0,0,0,93,31.6l-4.65,0a9.89,9.89,0,0,0,.27-3.28L88.54,7.59a22.78,22.78,0,0,0-.25-3.24c3.56,0,6.64-.5,10.1-0.51,5.31,0,9.3,1.86,9.32,6.68s-3.67,7.84-9.93,8.61c3.57,3,7.13,6.14,10.7,9.21a32.29,32.29,0,0,0,4,3.19l-6.4,0m-9-24.78c-1.52,0-3,.21-4.6.37l0,8.79c1,0.08,1.9.15,2.89,0.15,4.17,0,7.72-.83,7.71-4.9C103.2,7.82,100.87,6.76,97.18,6.77Z" transform="translate(-4.5 -3.6)"/></svg>