<svg id="Layer_1" data-name="Layer 1" xmlns="http://www.w3.org/2000/svg" viewBox="0 0 111.5 67.67"><title>accronym-ncar-ucar</title><path d="M30.16,51.11l0,10.39c0,2.29.1,6.12-.45,8.18-1.29,4.79-6.82,5.83-11.08,5.85s-9.76-1-11.2-5.73C6.95,68.07,7,63.64,7,61.66L7,51.19a20.65,20.65,0,0,0-.21-3.67l4.58,0a19.62,19.62,0,0,0-.22,3.72l0.05,14.07a13.68,13.68,0,0,0,.25,2.92c0.84,3.16,4,3.82,7.24,3.81s6.36-.66,7.18-3.78a12.61,12.61,0,0,0,.27-2.85L26.05,51.2a24.27,24.27,0,0,0-.25-3.75l4.54,0a20.33,20.33,0,0,0-.18,3.68" transform="translate(-6.76 -7.87)"/><path d="M47.58,50c-6.2,0-10,2.84-10,10,0,7.47,4.71,12.08,12.17,12A15.31,15.31,0,0,0,58,69.62v4a18.57,18.57,0,0,1-8.65,2c-8.73,0-15.9-5-15.94-15.51,0-9.48,6.08-13.54,13.58-13.56a43.09,43.09,0,0,1,11,1.66l0,4.23C55.89,50.9,51,50,47.58,50" transform="translate(-6.76 -7.87)"/><path d="M83.88,74.51A10.8,10.8,0,0,0,82.63,71c-0.86-1.93-1.77-3.66-2.63-5.59l-12.14,0c-0.85,2-1.69,3.71-2.59,5.65a18.64,18.64,0,0,0-1.13,3.48l-5.2,0s0.61-.56,2-3.72c1-2.41,7.95-17.93,9-20.34a14.74,14.74,0,0,0,1.22-3.24l5.65,0a12.84,12.84,0,0,0,1.15,3.2c1.05,2.41,7.89,17.75,9,20.2,1.58,3.43,2.21,3.83,2.21,3.83l-5.26,0M73.79,51.35c-1.55,3.6-3,7.1-4.65,10.7l9.72,0C77.19,58.43,75.46,54.94,73.79,51.35Z" transform="translate(-6.76 -7.87)"/><path d="M108.39,74.42c-0.67-.67-1.38-1.34-2.09-2l-11.42-10,0,8.81a11.22,11.22,0,0,0,.34,3.28l-4.65,0a9.89,9.89,0,0,0,.27-3.28L90.81,50.46a22.78,22.78,0,0,0-.25-3.24c3.56,0,6.64-.5,10.1-0.51,5.31,0,9.3,1.86,9.32,6.68s-3.67,7.84-9.93,8.61c3.57,3,7.13,6.14,10.7,9.21a32.29,32.29,0,0,0,4,3.19l-6.4,0m-9-24.78c-1.52,0-3,.21-4.6.37l0,8.79c1,0.08,1.9.15,2.89,0.15,4.17,0,7.72-.83,7.71-4.9C105.46,50.68,103.14,49.63,99.44,49.64Z" transform="translate(-6.76 -7.87)"/><path d="M51,11.39c-6.2,0-10,2.84-10,10,0,7.47,4.71,12.08,12.17,12A15.3,15.3,0,0,0,61.43,31v4a18.59,18.59,0,0,1-8.65,2c-8.73,0-15.9-5-15.94-15.51,0-9.48,6.08-13.54,13.58-13.56a43.05,43.05,0,0,1,11,1.66l0,4.23C59.35,12.3,54.49,11.37,51,11.39" transform="translate(-6.76 -7.87)"/><path d="M87.34,35.91A10.79,10.79,0,0,0,86.1,32.4c-0.86-1.93-1.77-3.66-2.63-5.59l-12.14,0c-0.85,2-1.69,3.71-2.59,5.65A18.66,18.66,0,0,0,67.62,36l-5.2,0s0.61-.56,2-3.72c1-2.41,7.95-17.93,9-20.34A14.73,14.73,0,0,0,74.6,8.69l5.65,0a12.8,12.8,0,0,0,1.15,3.2c1.05,2.41,7.89,17.75,9,20.2C92,35.5,92.61,35.9,92.61,35.9l-5.26,0M77.26,12.75c-1.55,3.6-3,7.1-4.65,10.7l9.72,0C80.66,19.83,78.93,16.34,77.26,12.75Z" transform="translate(-6.76 -7.87)"/><path d="M111.86,35.83c-0.67-.67-1.38-1.34-2.09-2l-11.42-10,0,8.81a11.22,11.22,0,0,0,.34,3.28l-4.65,0a9.89,9.89,0,0,0,.27-3.28L94.27,11.87A22.78,22.78,0,0,0,94,8.63c3.56,0,6.64-.5,10.1-0.51,5.31,0,9.3,1.86,9.32,6.68s-3.67,7.84-9.93,8.61c3.57,3,7.13,6.14,10.7,9.21a32.2,32.2,0,0,0,4,3.19l-6.4,0M102.9,11c-1.52,0-3,.21-4.6.37l0,8.79c1,0.08,1.9.15,2.89,0.15,4.17,0,7.72-.83,7.71-4.9C108.93,12.09,106.6,11,102.9,11Z" transform="translate(-6.76 -7.87)"/><path d="M28,36s-0.67-1.14-2.21-3.32C21.16,26.37,16.58,20,12,13.62v19a14.31,14.31,0,0,0,.2,3.4H7.7a15.15,15.15,0,0,0,.24-3.43V12.71a26.21,26.21,0,0,0-.2-3.95h5.84a21,21,0,0,0,2.25,3.47l13.7,19V12.56a21.28,21.28,0,0,0-.2-3.79h4.5a19.6,19.6,0,0,0-.24,3.79V32c0,3.59.16,3.59,0.24,4H28" transform="translate(-6.76 -7.87)"/></svg>