<svg id="Layer_1" data-name="Layer 1" xmlns="http://www.w3.org/2000/svg" viewBox="0 0 106.9 107.02"><title>symbol-nsf</title><path d="M45.35,51.88c2.94,0.22,3.38,1.42,3.38,3.6v11H48.66L36.05,51H28.39v0.91c0.47,0,1.05.11,3.09,2.62V71.71c0,2.4-1,2.65-3.2,2.91v0.91h8.24V74.61c-2.69-.29-3.45-1-3.45-3.59V56.49h0.07L49.31,76.18h1V54.78c0-1.74.22-2.58,2.83-2.91V51H45.35v0.91Z" transform="translate(-8.32 -9.79)"/><path d="M68.55,61.94l-5.34-2.65C60.16,57.76,59.47,57,59.47,55c0-2.36,2-3.45,3.89-3.45,4.28,0,6.46,4.18,7.12,6.72h1V50.39H70.4c-0.18.69-.36,1.23-1.2,1.23-1.05,0-2.76-1.2-5.66-1.2-6.9,0-8,4.94-8,7.15,0,1.67,0,4.79,6.21,7.77l2.43,1.16c2.36,1.13,4.07,2,4.07,4.43,0,0.47-.18,4.07-4.54,4.07-4.61,0-6.72-4.1-7.45-7.77H55.19v9h1.05A1.22,1.22,0,0,1,57.33,75c1.12,0,2.76,1.24,6.21,1.24,6.68,0,9-4.4,9-7.59A7.52,7.52,0,0,0,68.55,61.94Z" transform="translate(-8.32 -9.79)"/><path d="M74.68,51.88c1.71,0.11,3.19.18,3.19,2.58V72c0,2.25-1.12,2.36-3.19,2.58v0.91H87.75V74.61c-2.54-.11-4-0.18-4-2.58V63.57c4.58,0,5.16,2.65,5.56,5.63h0.91V56.93H89.32c-0.51,2.91-1.05,5.48-5.56,5.41V53.91c0-1.56.65-1.71,2.61-1.71,6.25,0,7.23,2.29,8,6.06h0.87V51H74.68v0.91Z" transform="translate(-8.32 -9.79)"/><path d="M107,57.42c-0.34-.89-0.66-1.79-0.94-2.71a40,40,0,0,1-.14-4.92c0.62-3.2,2.93-4.89,5.7-5.94-0.32-.81-0.72-1.78-1-2.45-3,1.45-6.59,1.71-9.3-.85q-0.86-.92-1.68-1.88a39.12,39.12,0,0,1-2.2-4.83c-0.65-3.19.84-5.64,3-7.67-0.61-.63-1.35-1.37-1.86-1.88-2.21,2.49-5.44,4.1-8.92,2.78-0.67-.3-1.33-0.61-2-0.94a38.55,38.55,0,0,1-4-3.74c-1.82-2.7-1.39-5.53-.16-8.23l-2.44-1c-1.09,3.14-3.45,5.87-7.18,6-1.14,0-2.27-.1-3.4-0.22a43.14,43.14,0,0,1-4-1.57c-2.72-1.79-3.4-4.58-3.3-7.54H60.44c0.19,3.32-.95,6.75-4.34,8.27q-1.18.45-2.38,0.84a39.4,39.4,0,0,1-5.28.18c-3.2-.62-4.89-2.93-5.94-5.7l-2.44,1c1.45,3,1.71,6.59-.85,9.3q-1,1-2.11,1.88a39.73,39.73,0,0,1-4.7,2.12c-3.19.65-5.64-.83-7.67-3-0.63.61-1.37,1.35-1.88,1.86,2.48,2.21,4.1,5.44,2.78,8.92-0.33.73-.66,1.45-1,2.16A39.31,39.31,0,0,1,21,41.42c-2.7,1.82-5.53,1.39-8.23.16-0.34.8-.75,1.77-1,2.44,3.14,1.09,5.87,3.46,6,7.18,0,1-.08,2-0.17,3a41,41,0,0,1-1.72,4.5c-1.79,2.72-4.58,3.4-7.54,3.3,0,0.87,0,1.92,0,2.64,3.32-.19,6.75.95,8.27,4.35q0.46,1.21.86,2.44a39.28,39.28,0,0,1,.17,5.25c-0.62,3.2-2.93,4.89-5.7,5.94,0.32,0.81.72,1.78,1,2.45,3-1.45,6.59-1.71,9.3.85q1,1,1.85,2.08a40.07,40.07,0,0,1,2.11,4.68c0.65,3.19-.84,5.64-3,7.67l1.86,1.88c2.21-2.48,5.44-4.1,8.92-2.78,0.78,0.35,1.54.71,2.3,1.1A39.74,39.74,0,0,1,40,104c1.83,2.7,1.39,5.53.16,8.23,0.8,0.35,1.77.75,2.44,1,1.09-3.14,3.46-5.87,7.18-6,1,0,1.9.08,2.85,0.16a40.08,40.08,0,0,1,4.72,1.79c2.72,1.8,3.4,4.58,3.3,7.54h2.65c-0.19-3.32.94-6.75,4.34-8.27,0.9-.34,1.81-0.66,2.73-0.95a40.8,40.8,0,0,1,4.9-.14c3.2,0.62,4.89,2.93,5.93,5.71l2.45-1c-1.45-3-1.71-6.6.85-9.31q1-1,2.11-1.88a40.85,40.85,0,0,1,4.46-2c3.19-.65,5.64.83,7.67,3l1.88-1.86c-2.49-2.21-4.1-5.44-2.78-8.92,0.43-1,.89-1.92,1.4-2.86a41.16,41.16,0,0,1,3.27-3.45c2.7-1.83,5.53-1.39,8.23-.16,0.34-.8.74-1.77,1-2.44-3.14-1.09-5.87-3.45-6-7.18,0-1,.09-2.09.19-3.13a41.4,41.4,0,0,1,1.65-4.26c1.79-2.72,4.58-3.4,7.54-3.3,0-.88,0-1.92,0-2.65C111.9,62,108.48,60.81,107,57.42ZM94.1,35.77a7.28,7.28,0,0,1,3.26,2.61,16.35,16.35,0,0,1,2.35,4.51l-0.19.71C99,44.75,97.58,45,96.47,45.39l-1.56.25a37.61,37.61,0,0,0-4.39-6.48q0.58-.93,1.21-1.82A3.13,3.13,0,0,1,94.1,35.77Zm2,14.41,0,0.05,0.25,0.68,0,0.13,0.22,0.63,0.06,0.18,0.2,0.61h0a36.61,36.61,0,0,1,1.43,7c0,0.12,0,.24,0,0.36s0,0.31,0,.47,0,0.31,0,.46l0,0.35q0,0.26,0,.53c0,0.09,0,.17,0,0.26s0,0.4,0,.6,0,0.52,0,.78c0,0.09,0,.17,0,0.26h0q0,1.61-.16,3.18h0a36.63,36.63,0,0,1-1.33,7h0q-0.43,1.46-1,2.87c-0.13.34-.27,0.69-0.41,1h0L95.51,78l-0.16.37-0.25.55L95,79.07l-0.31.64,0,0-0.35.68h0a36.84,36.84,0,0,1-4,6.07h0q-0.46.57-1,1.12l-0.06.06q-0.49.55-1,1.08h0l-0.83.84h0l-0.55.53,0,0-0.52.48-0.17.15-0.41.36-0.43.37-0.19.16h0a36.85,36.85,0,0,1-5.82,3.94h0L79,95.81,78.63,96l-0.48.24-0.21.11-0.57.27-0.1,0L76.63,97l-1.07.45h0l-0.69.27-0.08,0-0.64.24L74,98l-0.59.2-0.21.07-0.58.19h0a36.6,36.6,0,0,1-7,1.42h0l-0.49,0-0.35,0-0.48,0L64,100l-0.49,0H63.12l-0.5,0H61.46q-1.57,0-3.1-.16a36.63,36.63,0,0,1-7.13-1.38h0l-0.71-.22h0l-0.68-.23-0.08,0q-0.68-.24-1.35-0.5h0l-1.08-.45q-1.42-.61-2.78-1.34h0a36.84,36.84,0,0,1-5.9-3.92h0q-0.58-.47-1.14-1l-0.05,0q-0.56-.49-1.09-1l-0.74-.73Q34.45,88,33.43,86.75h0a36.85,36.85,0,0,1-4.08-6.07h0Q28.63,79.34,28,77.94h0q-0.2-.46-0.39-0.93h0l-0.27-.69,0-.08-0.25-.67,0-.09-0.23-.69,0-.06L26.57,74h0a36.61,36.61,0,0,1-1.4-7.1h0q-0.14-1.5-.17-3h0c0-.18,0-0.36,0-0.53s0-.34,0-0.51h0q0-.4,0-0.8h0q0-.39,0-0.78v0q0-.78.12-1.55h0a36.61,36.61,0,0,1,1.39-7h0L26.77,52l0-.12,0.2-.58L27.1,51l0.17-.48,0.16-.42,0.13-.33h0c0.15-.38.31-0.75,0.47-1.12q0.61-1.41,1.33-2.75a36.83,36.83,0,0,1,3.84-5.77h0l0.46-.55,0.06-.07L34.14,39l0.13-.15,0.38-.43,0.19-.21,0.36-.38h0L36,37Q37.13,36,38.33,35a36.85,36.85,0,0,1,6.12-4.11q1.3-.7,2.67-1.29l1.08-.45,0.55-.21L49,28.82l0.58-.21,0.17-.06,0.64-.21,0.1,0,0.7-.22a36.61,36.61,0,0,1,7-1.39q0.73-.07,1.48-0.11h0l0.71,0h0.08l0.73,0h1.17l0.75,0h0.08l0.71,0H64q0.74,0,1.46.11h0a36.62,36.62,0,0,1,6.86,1.35q1.39,0.42,2.74.94,0.69,0.27,1.37.56,1.38,0.6,2.7,1.31h0a36.84,36.84,0,0,1,5.78,3.84l0.54,0.45,0.08,0.07L86,35.62l0.22,0.19,0.35,0.31q0.75,0.68,1.46,1.41h0q1.05,1.07,2,2.22a36.85,36.85,0,0,1,4.08,6l0,0.08,0.33,0.63,0.23,0.46,0.12,0.23,0.28,0.59,0,0.09,0.3,0.66q0.21,0.48.41,1h0ZM81.28,25.43a6.65,6.65,0,0,1,3.65,1,17.59,17.59,0,0,1,4.12,3.43l0.09,0.73c0,1.25-1.24,2.06-2.13,2.82l-1.44.88a37.6,37.6,0,0,0-6.33-4.2q0.19-1.15.44-2.28C80,26.83,80.29,25.8,81.28,25.43ZM65.41,21c1.36-.81,3.57-0.52,5.14-0.36,0.34,0,.67.09,1,0.15a10.54,10.54,0,0,1,2.81,1.07l0.37,0.64c0.46,1.16-.35,2.38-0.89,3.42L72.77,27.4a37.36,37.36,0,0,0-7.51-1.47q-0.24-1.05-.43-2.12A3.13,3.13,0,0,1,65.41,21ZM48.94,22.85a7.31,7.31,0,0,1,3.66-2,16.21,16.21,0,0,1,5-.44l0.58,0.45c0.87,0.9.58,2.33,0.49,3.5-0.13.52-.25,1-0.38,1.57a37.38,37.38,0,0,0-7.66,1.51q-0.62-.88-1.2-1.79C49,24.77,48.5,23.81,48.94,22.85Zm-11.71,4.6a15.24,15.24,0,0,1,4.3-2.21l0.71,0.19c1.15,0.5,1.43,1.93,1.79,3.05,0.08,0.53.17,1.07,0.25,1.6a37.6,37.6,0,0,0-6.63,4.46q-0.91-.57-1.79-1.18C35.1,32.73,34.27,32,34.31,31,34.65,29.62,36.07,28.41,37.23,27.46Zm-12,12.33A15.62,15.62,0,0,1,28.38,36l0.73-.09c1.25,0,2.06,1.24,2.82,2.13l0.86,1.4a37.6,37.6,0,0,0-4.19,6.29q-1.09-.18-2.16-0.42c-1-.29-2-0.61-2.35-1.6A7.17,7.17,0,0,1,25.2,39.78Zm-6,14.83a13.14,13.14,0,0,1,1.34-4l0.64-.37c1.16-.46,2.38.35,3.42,0.89l1.34,1A37.37,37.37,0,0,0,24.4,59.8q-1,.23-2.06.42c-1,.1-2.07.19-2.78-0.58C18.77,58.31,19,56.18,19.19,54.62ZM21.4,76.14a7.43,7.43,0,0,1-2-3.74,16.07,16.07,0,0,1-.43-5l0.45-.58c0.9-.87,2.33-0.58,3.5-0.49l1.51,0.36a37.38,37.38,0,0,0,1.53,7.75c-0.56.4-1.14,0.79-1.72,1.16C23.32,76.08,22.36,76.58,21.4,76.14Zm8.08,14.58c-1.34-.34-2.55-1.73-3.5-2.9a15.13,15.13,0,0,1-2.19-4.27L24,82.84c0.49-1.15,1.93-1.43,3-1.79l1.53-.24A37.61,37.61,0,0,0,33,87.42c-0.37.59-.75,1.17-1.15,1.74C31.23,89.93,30.54,90.76,29.48,90.71ZM42.36,101c-1.29.19-2.84-.53-4.11-1.22a15.46,15.46,0,0,1-3.71-3.14l-0.09-.73c0-1.25,1.24-2.06,2.13-2.82l1.34-.82a37.6,37.6,0,0,0,6.46,4.29q-0.18,1-.41,2.09C43.67,99.61,43.35,100.64,42.36,101Zm16,4.57c-1.24.74-3.17,0.57-4.69,0.41a14.54,14.54,0,0,1-4.4-1.43l-0.36-.64c-0.46-1.16.35-2.38,0.89-3.42l0.94-1.3a37.39,37.39,0,0,0,7.77,1.5q0.24,1,.42,2.09C59.05,103.78,59.15,104.86,58.38,105.58Zm16.44-1.9c-0.88,1.18-2.81,1.77-4.3,2.21a13.78,13.78,0,0,1-4.38.32l-0.58-.45c-0.88-.9-0.58-2.33-0.49-3.5,0.13-.53.26-1.06,0.38-1.59a37.36,37.36,0,0,0,7.63-1.56q0.62,0.87,1.2,1.78C74.75,101.76,75.26,102.72,74.81,103.68Zm11.29-4.33a13.63,13.63,0,0,1-3.88,1.95l-0.71-.19c-1.15-.5-1.43-1.93-1.79-3.05-0.08-.55-0.17-1.09-0.26-1.63a37.6,37.6,0,0,0,6.37-4.31q0.92,0.57,1.81,1.2c0.77,0.63,1.6,1.32,1.56,2.38C88.85,97.11,87.31,98.37,86.11,99.35ZM97.9,87.46l-0.07.12a12.89,12.89,0,0,1-2.68,3.06l-0.73.09c-1.25,0-2.06-1.24-2.82-2.13l-0.86-1.4a37.6,37.6,0,0,0,4.38-6.63q1,0.18,2.07.4c0.95,0.29,2,.61,2.35,1.6C99.76,84.14,98.65,86.07,97.9,87.46Zm6.45-15.59c0,0.1,0,.2,0,0.3a11.88,11.88,0,0,1-1.23,3.47l-0.64.37c-1.16.46-2.38-.36-3.42-0.89l-1.31-.95a37.38,37.38,0,0,0,1.46-7.61q1-.23,2-0.41c1-.1,2.07-0.19,2.78.58C104.8,68.09,104.51,70.3,104.35,71.87ZM104.62,59l-0.45.58c-0.9.87-2.33,0.58-3.5,0.49l-1.53-.37A37.36,37.36,0,0,0,97.58,52c0.57-.4,1.14-0.79,1.72-1.16a3.12,3.12,0,0,1,2.79-.53c1.17,0.88,1.76,2.78,2.2,4.25A13.86,13.86,0,0,1,104.62,59Z" transform="translate(-8.32 -9.79)"/></svg>