<?xml version="1.0" encoding="utf-8"?>
<!-- Generator: Adobe Illustrator 15.1.0, SVG Export Plug-In . SVG Version: 6.00 Build 0)  -->
<!DOCTYPE svg PUBLIC "-//W3C//DTD SVG 1.1//EN" "http://www.w3.org/Graphics/SVG/1.1/DTD/svg11.dtd">
<svg version="1.1" id="Layer_1" xmlns="http://www.w3.org/2000/svg" xmlns:xlink="http://www.w3.org/1999/xlink" x="0px" y="0px"
	 width="1400px" height="229.426px" viewBox="0 0 1400 229.426" enable-background="new 0 0 1400 229.426" xml:space="preserve">
<linearGradient id="SVGID_1_" gradientUnits="userSpaceOnUse" x1="757.4785" y1="160.1992" x2="1000.6777" y2="160.1992">
	<stop  offset="0" style="stop-color:#345F8D"/>
	<stop  offset="1" style="stop-color:#29788E"/>
</linearGradient>
<polygon fill="url(#SVGID_1_)" stroke="#000000" stroke-width="3" stroke-miterlimit="10" points="904.467,199.219 757.479,199.219 
	853.689,121.18 1000.678,121.18 "/>
<linearGradient id="SVGID_2_" gradientUnits="userSpaceOnUse" x1="757.4785" y1="137.75" x2="1000.6777" y2="137.75">
	<stop  offset="0" style="stop-color:#25848E"/>
	<stop  offset="1" style="stop-color:#1E9C89"/>
</linearGradient>
<polygon fill="url(#SVGID_2_)" stroke="#000000" stroke-width="3" stroke-miterlimit="10" points="904.467,176.77 757.479,176.77 
	853.689,98.73 1000.678,98.73 "/>
<linearGradient id="SVGID_3_" gradientUnits="userSpaceOnUse" x1="757.4785" y1="115.3008" x2="1000.6777" y2="115.3008">
	<stop  offset="0" style="stop-color:#22A884"/>
	<stop  offset="1" style="stop-color:#44BF70"/>
</linearGradient>
<polygon fill="url(#SVGID_3_)" stroke="#000000" stroke-width="3" stroke-miterlimit="10" points="904.467,154.32 757.479,154.32 
	853.689,76.282 1000.678,76.282 "/>
<linearGradient id="SVGID_4_" gradientUnits="userSpaceOnUse" x1="757.4785" y1="92.8521" x2="1000.6777" y2="92.8521">
	<stop  offset="0" style="stop-color:#5EC962"/>
	<stop  offset="1" style="stop-color:#9BD93C"/>
</linearGradient>
<polygon fill="url(#SVGID_4_)" stroke="#000000" stroke-width="3" stroke-miterlimit="10" points="904.467,131.871 757.479,131.871 
	853.689,53.833 1000.678,53.833 "/>
<linearGradient id="SVGID_5_" gradientUnits="userSpaceOnUse" x1="757.4785" y1="70.4028" x2="1000.6777" y2="70.4028">
	<stop  offset="0" style="stop-color:#BDDF26"/>
	<stop  offset="1" style="stop-color:#FEE724"/>
</linearGradient>
<polygon fill="url(#SVGID_5_)" stroke="#000000" stroke-width="3" stroke-miterlimit="10" points="904.467,109.422 757.479,109.422 
	853.689,31.384 1000.678,31.384 "/>
<rect x="624.578" y="208.047" fill="none" width="128.917" height="42.33"/>
<g enable-background="new    ">
	<path fill="#767676" d="M633.466,226.047h-2.25v-17.062h2.25V226.047z"/>
	<path fill="#767676" d="M650.692,226.047h-2.262l-8.59-13.148v13.148h-2.262v-17.062h2.262l8.613,13.207v-13.207h2.238V226.047z"/>
	<path fill="#767676" d="M664.099,218.512h-7.16v7.535h-2.25v-17.062h10.57v1.852h-8.32v5.836h7.16V218.512z"/>
	<path fill="#767676" d="M670.216,224.207h8.086v1.84h-10.348v-17.062h2.262V224.207z"/>
	<path fill="#767676" d="M690.513,221.594h-7.148l-1.605,4.453h-2.32l6.516-17.062h1.969l6.527,17.062h-2.309L690.513,221.594z
		 M684.044,219.742h5.801l-2.906-7.98L684.044,219.742z"/>
	<path fill="#767676" d="M707.024,210.836h-5.484v15.211h-2.238v-15.211h-5.473v-1.852h13.195V210.836z"/>
	<path fill="#767676" d="M711.97,226.047h-2.25v-17.062h2.25V226.047z"/>
	<path fill="#767676" d="M729.208,218.066c0,1.281-0.162,2.428-0.486,3.439s-0.783,1.873-1.377,2.584s-1.312,1.254-2.156,1.629
		s-1.785,0.562-2.824,0.562c-1.008,0-1.934-0.188-2.777-0.562s-1.57-0.918-2.18-1.629s-1.082-1.572-1.418-2.584
		s-0.504-2.158-0.504-3.439v-1.078c0-1.273,0.168-2.42,0.504-3.439s0.805-1.885,1.406-2.596s1.324-1.256,2.168-1.635
		s1.77-0.568,2.777-0.568c1.039,0,1.982,0.189,2.83,0.568s1.57,0.924,2.168,1.635s1.059,1.576,1.383,2.596s0.486,2.166,0.486,3.439
		V218.066z M726.97,216.965c0-1.016-0.104-1.914-0.311-2.695s-0.51-1.438-0.908-1.969s-0.885-0.934-1.459-1.207
		s-1.225-0.41-1.951-0.41c-0.695,0-1.328,0.137-1.898,0.41s-1.057,0.676-1.459,1.207s-0.713,1.188-0.932,1.969
		s-0.328,1.68-0.328,2.695v1.102c0,1.023,0.111,1.926,0.334,2.707s0.537,1.439,0.943,1.975s0.895,0.939,1.465,1.213
		s1.203,0.41,1.898,0.41c0.734,0,1.387-0.137,1.957-0.41s1.053-0.678,1.447-1.213s0.693-1.193,0.896-1.975s0.305-1.684,0.305-2.707
		V216.965z"/>
	<path fill="#767676" d="M745.696,226.047h-2.262l-8.59-13.148v13.148h-2.262v-17.062h2.262l8.613,13.207v-13.207h2.238V226.047z"/>
</g>
<rect x="792.514" y="-0.214" fill="none" width="203.246" height="26.938"/>
<g enable-background="new    ">
	<path fill="#231F20" d="M812.088,11.106v6.68h-2.25V0.724h6.293c0.969,0,1.824,0.129,2.566,0.387s1.365,0.619,1.869,1.084
		s0.887,1.016,1.148,1.652s0.393,1.334,0.393,2.092c0,0.82-0.131,1.553-0.393,2.197s-0.645,1.186-1.148,1.623
		s-1.127,0.771-1.869,1.002s-1.598,0.346-2.566,0.346H812.088z M812.088,9.267h4.043c0.656,0,1.221-0.082,1.693-0.246
		s0.859-0.393,1.16-0.686s0.521-0.641,0.662-1.043s0.211-0.846,0.211-1.33c0-0.438-0.07-0.861-0.211-1.271s-0.361-0.771-0.662-1.084
		s-0.688-0.562-1.16-0.75s-1.037-0.281-1.693-0.281h-4.043V9.267z"/>
	<path fill="#231F20" d="M830.768,7.052c-0.188-0.031-0.361-0.053-0.521-0.064s-0.342-0.018-0.545-0.018
		c-0.75,0-1.361,0.164-1.834,0.492s-0.826,0.77-1.061,1.324v9h-2.168V5.106h2.109l0.035,1.465c0.328-0.523,0.738-0.938,1.23-1.242
		s1.09-0.457,1.793-0.457c0.156,0,0.336,0.018,0.539,0.053s0.344,0.072,0.422,0.111V7.052z"/>
	<path fill="#231F20" d="M837.799,18.021c-0.883,0-1.682-0.152-2.396-0.457s-1.326-0.729-1.834-1.271s-0.898-1.189-1.172-1.939
		s-0.41-1.57-0.41-2.461v-0.492c0-1.031,0.154-1.953,0.463-2.766s0.721-1.496,1.236-2.051s1.105-0.979,1.77-1.271
		s1.355-0.439,2.074-0.439c0.906,0,1.688,0.158,2.344,0.475s1.197,0.752,1.623,1.307s0.74,1.211,0.943,1.969
		s0.305,1.582,0.305,2.473v0.973h-8.59c0.016,0.586,0.111,1.133,0.287,1.641s0.426,0.949,0.75,1.324s0.715,0.672,1.172,0.891
		s0.975,0.328,1.553,0.328c0.766,0,1.414-0.156,1.945-0.469s0.996-0.727,1.395-1.242l1.324,1.031
		c-0.203,0.312-0.449,0.615-0.738,0.908s-0.627,0.555-1.014,0.785s-0.83,0.414-1.33,0.551S838.432,18.021,837.799,18.021z
		 M837.529,6.653c-0.438,0-0.84,0.08-1.207,0.24s-0.695,0.393-0.984,0.697s-0.529,0.684-0.721,1.137s-0.322,0.973-0.393,1.559h6.352
		v-0.164c-0.023-0.422-0.092-0.84-0.205-1.254s-0.289-0.785-0.527-1.113s-0.545-0.594-0.92-0.797S838.084,6.653,837.529,6.653z"/>
	<path fill="#231F20" d="M849.764,11.423h-5.719v-1.77h5.719V11.423z"/>
	<path fill="#231F20" d="M859.701,17.786c-0.078-0.156-0.141-0.354-0.188-0.592s-0.086-0.486-0.117-0.744
		c-0.203,0.211-0.432,0.412-0.686,0.604s-0.531,0.359-0.832,0.504s-0.627,0.258-0.979,0.34s-0.723,0.123-1.113,0.123
		c-0.648,0-1.236-0.098-1.764-0.293s-0.977-0.461-1.348-0.797s-0.658-0.732-0.861-1.189s-0.305-0.947-0.305-1.471
		c0-0.68,0.133-1.279,0.398-1.799s0.646-0.955,1.143-1.307s1.096-0.617,1.799-0.797s1.488-0.27,2.355-0.27h2.156V9.103
		c0-0.758-0.227-1.361-0.68-1.811s-1.121-0.674-2.004-0.674c-0.406,0-0.777,0.055-1.113,0.164s-0.623,0.256-0.861,0.439
		s-0.424,0.396-0.557,0.639s-0.199,0.496-0.199,0.762h-2.18c0-0.453,0.119-0.902,0.357-1.348s0.576-0.846,1.014-1.201
		s0.967-0.645,1.588-0.867s1.314-0.334,2.08-0.334c0.688,0,1.322,0.088,1.904,0.264s1.08,0.441,1.494,0.797s0.738,0.799,0.973,1.33
		s0.352,1.152,0.352,1.863v5.895c0,0.43,0.037,0.881,0.111,1.354s0.186,0.881,0.334,1.225v0.188H859.701z M856.104,16.134
		c0.391,0,0.758-0.055,1.102-0.164s0.656-0.252,0.938-0.428s0.525-0.377,0.732-0.604s0.369-0.461,0.486-0.703v-2.602h-1.805
		c-1.242,0-2.199,0.193-2.871,0.58s-1.008,0.971-1.008,1.752c0,0.305,0.051,0.59,0.152,0.855s0.256,0.494,0.463,0.686
		s0.461,0.344,0.762,0.457S855.705,16.134,856.104,16.134z"/>
	<path fill="#231F20" d="M872.311,14.423c0-0.234-0.035-0.455-0.105-0.662s-0.209-0.402-0.416-0.586s-0.502-0.354-0.885-0.51
		s-0.887-0.301-1.512-0.434c-0.703-0.148-1.336-0.324-1.898-0.527s-1.041-0.447-1.436-0.732s-0.697-0.623-0.908-1.014
		s-0.316-0.848-0.316-1.371c0-0.5,0.111-0.975,0.334-1.424s0.537-0.844,0.943-1.184s0.898-0.609,1.477-0.809
		s1.223-0.299,1.934-0.299c0.758,0,1.436,0.104,2.033,0.311s1.105,0.49,1.523,0.85s0.736,0.779,0.955,1.26s0.328,0.994,0.328,1.541
		h-2.18c0-0.258-0.059-0.518-0.176-0.779s-0.289-0.496-0.516-0.703s-0.504-0.375-0.832-0.504s-0.707-0.193-1.137-0.193
		c-0.453,0-0.838,0.053-1.154,0.158s-0.576,0.246-0.779,0.422s-0.352,0.375-0.445,0.598s-0.141,0.451-0.141,0.686
		s0.039,0.445,0.117,0.633s0.227,0.357,0.445,0.51s0.518,0.293,0.896,0.422s0.869,0.26,1.471,0.393
		c0.773,0.18,1.445,0.383,2.016,0.609s1.043,0.49,1.418,0.791s0.654,0.646,0.838,1.037s0.275,0.844,0.275,1.359
		c0,0.555-0.115,1.062-0.346,1.523s-0.561,0.855-0.99,1.184s-0.945,0.584-1.547,0.768s-1.27,0.275-2.004,0.275
		c-0.844,0-1.588-0.117-2.232-0.352s-1.186-0.545-1.623-0.932s-0.77-0.828-0.996-1.324s-0.34-1.006-0.34-1.529h2.168
		c0.023,0.445,0.131,0.818,0.322,1.119s0.432,0.545,0.721,0.732s0.605,0.32,0.949,0.398s0.688,0.117,1.031,0.117
		c0.445,0,0.836-0.047,1.172-0.141s0.619-0.223,0.85-0.387s0.404-0.357,0.521-0.58S872.311,14.681,872.311,14.423z"/>
	<path fill="#231F20" d="M884.686,14.423c0-0.234-0.035-0.455-0.105-0.662s-0.209-0.402-0.416-0.586s-0.502-0.354-0.885-0.51
		s-0.887-0.301-1.512-0.434c-0.703-0.148-1.336-0.324-1.898-0.527s-1.041-0.447-1.436-0.732s-0.697-0.623-0.908-1.014
		s-0.316-0.848-0.316-1.371c0-0.5,0.111-0.975,0.334-1.424s0.537-0.844,0.943-1.184s0.898-0.609,1.477-0.809
		s1.223-0.299,1.934-0.299c0.758,0,1.436,0.104,2.033,0.311s1.105,0.49,1.523,0.85s0.736,0.779,0.955,1.26s0.328,0.994,0.328,1.541
		h-2.18c0-0.258-0.059-0.518-0.176-0.779s-0.289-0.496-0.516-0.703s-0.504-0.375-0.832-0.504s-0.707-0.193-1.137-0.193
		c-0.453,0-0.838,0.053-1.154,0.158s-0.576,0.246-0.779,0.422s-0.352,0.375-0.445,0.598s-0.141,0.451-0.141,0.686
		s0.039,0.445,0.117,0.633s0.227,0.357,0.445,0.51s0.518,0.293,0.896,0.422s0.869,0.26,1.471,0.393
		c0.773,0.18,1.445,0.383,2.016,0.609s1.043,0.49,1.418,0.791s0.654,0.646,0.838,1.037s0.275,0.844,0.275,1.359
		c0,0.555-0.115,1.062-0.346,1.523s-0.561,0.855-0.99,1.184s-0.945,0.584-1.547,0.768s-1.27,0.275-2.004,0.275
		c-0.844,0-1.588-0.117-2.232-0.352s-1.186-0.545-1.623-0.932s-0.77-0.828-0.996-1.324s-0.34-1.006-0.34-1.529h2.168
		c0.023,0.445,0.131,0.818,0.322,1.119s0.432,0.545,0.721,0.732s0.605,0.32,0.949,0.398s0.688,0.117,1.031,0.117
		c0.445,0,0.836-0.047,1.172-0.141s0.619-0.223,0.85-0.387s0.404-0.357,0.521-0.58S884.686,14.681,884.686,14.423z"/>
	<path fill="#231F20" d="M889.689,1.743c0-0.352,0.107-0.648,0.322-0.891s0.533-0.363,0.955-0.363s0.742,0.121,0.961,0.363
		s0.328,0.539,0.328,0.891s-0.109,0.645-0.328,0.879s-0.539,0.352-0.961,0.352s-0.74-0.117-0.955-0.352S889.689,2.095,889.689,1.743
		z M892.033,17.786h-2.168V5.106h2.168V17.786z"/>
	<path fill="#231F20" d="M897.541,5.106l0.059,1.406c0.438-0.516,0.967-0.918,1.588-1.207s1.346-0.434,2.174-0.434
		c0.82,0,1.545,0.162,2.174,0.486s1.111,0.842,1.447,1.553c0.422-0.609,0.971-1.102,1.646-1.477s1.475-0.562,2.396-0.562
		c0.68,0,1.281,0.088,1.805,0.264s0.967,0.451,1.33,0.826s0.639,0.852,0.826,1.43s0.281,1.266,0.281,2.062v8.332H911.1V9.442
		c0-0.531-0.064-0.973-0.193-1.324s-0.311-0.633-0.545-0.844s-0.52-0.357-0.855-0.439s-0.707-0.123-1.113-0.123
		c-0.445,0-0.84,0.07-1.184,0.211s-0.639,0.33-0.885,0.568s-0.441,0.52-0.586,0.844s-0.236,0.67-0.275,1.037v8.414h-2.18V9.454
		c0-0.492-0.064-0.912-0.193-1.26s-0.311-0.631-0.545-0.85s-0.518-0.379-0.85-0.48s-0.705-0.152-1.119-0.152
		c-0.773,0-1.395,0.168-1.863,0.504s-0.82,0.773-1.055,1.312v9.258h-2.168V5.106H897.541z"/>
	<path fill="#231F20" d="M916.549,1.743c0-0.352,0.107-0.648,0.322-0.891s0.533-0.363,0.955-0.363s0.742,0.121,0.961,0.363
		s0.328,0.539,0.328,0.891s-0.109,0.645-0.328,0.879s-0.539,0.352-0.961,0.352s-0.74-0.117-0.955-0.352S916.549,2.095,916.549,1.743
		z M918.893,17.786h-2.168V5.106h2.168V17.786z"/>
	<path fill="#231F20" d="M924.717,17.786h-2.168v-18h2.168V17.786z"/>
	<path fill="#231F20" d="M936.014,17.786c-0.078-0.156-0.141-0.354-0.188-0.592s-0.086-0.486-0.117-0.744
		c-0.203,0.211-0.432,0.412-0.686,0.604s-0.531,0.359-0.832,0.504s-0.627,0.258-0.979,0.34s-0.723,0.123-1.113,0.123
		c-0.648,0-1.236-0.098-1.764-0.293s-0.977-0.461-1.348-0.797s-0.658-0.732-0.861-1.189s-0.305-0.947-0.305-1.471
		c0-0.68,0.133-1.279,0.398-1.799s0.646-0.955,1.143-1.307s1.096-0.617,1.799-0.797s1.488-0.27,2.355-0.27h2.156V9.103
		c0-0.758-0.227-1.361-0.68-1.811s-1.121-0.674-2.004-0.674c-0.406,0-0.777,0.055-1.113,0.164s-0.623,0.256-0.861,0.439
		s-0.424,0.396-0.557,0.639s-0.199,0.496-0.199,0.762h-2.18c0-0.453,0.119-0.902,0.357-1.348s0.576-0.846,1.014-1.201
		s0.967-0.645,1.588-0.867s1.314-0.334,2.08-0.334c0.688,0,1.322,0.088,1.904,0.264s1.08,0.441,1.494,0.797s0.738,0.799,0.973,1.33
		s0.352,1.152,0.352,1.863v5.895c0,0.43,0.037,0.881,0.111,1.354s0.186,0.881,0.334,1.225v0.188H936.014z M932.416,16.134
		c0.391,0,0.758-0.055,1.102-0.164s0.656-0.252,0.938-0.428s0.525-0.377,0.732-0.604s0.369-0.461,0.486-0.703v-2.602h-1.805
		c-1.242,0-2.199,0.193-2.871,0.58s-1.008,0.971-1.008,1.752c0,0.305,0.051,0.59,0.152,0.855s0.256,0.494,0.463,0.686
		s0.461,0.344,0.762,0.457S932.018,16.134,932.416,16.134z"/>
	<path fill="#231F20" d="M944.182,2.036v3.07h2.367v1.676h-2.367v7.863c0,0.328,0.039,0.592,0.117,0.791s0.182,0.354,0.311,0.463
		s0.277,0.182,0.445,0.217s0.342,0.053,0.521,0.053s0.369-0.018,0.568-0.053s0.354-0.064,0.463-0.088v1.758
		c-0.172,0.047-0.395,0.098-0.668,0.152s-0.605,0.082-0.996,0.082c-0.398,0-0.775-0.057-1.131-0.17s-0.666-0.303-0.932-0.568
		s-0.477-0.615-0.633-1.049s-0.234-0.967-0.234-1.6V6.782h-2.309V5.106h2.309v-3.07H944.182z"/>
	<path fill="#231F20" d="M949.092,1.743c0-0.352,0.107-0.648,0.322-0.891s0.533-0.363,0.955-0.363s0.742,0.121,0.961,0.363
		s0.328,0.539,0.328,0.891s-0.109,0.645-0.328,0.879s-0.539,0.352-0.961,0.352s-0.74-0.117-0.955-0.352S949.092,2.095,949.092,1.743
		z M951.436,17.786h-2.168V5.106h2.168V17.786z"/>
	<path fill="#231F20" d="M954.33,11.329c0-0.922,0.135-1.775,0.404-2.561s0.652-1.467,1.148-2.045s1.1-1.031,1.811-1.359
		s1.508-0.492,2.391-0.492c0.898,0,1.705,0.164,2.42,0.492s1.322,0.781,1.822,1.359s0.883,1.26,1.148,2.045s0.398,1.639,0.398,2.561
		v0.258c0,0.922-0.133,1.775-0.398,2.561s-0.648,1.465-1.148,2.039s-1.105,1.023-1.816,1.348s-1.512,0.486-2.402,0.486
		s-1.691-0.162-2.402-0.486s-1.316-0.773-1.816-1.348s-0.885-1.254-1.154-2.039s-0.404-1.639-0.404-2.561V11.329z M956.51,11.587
		c0,0.633,0.074,1.23,0.223,1.793s0.373,1.057,0.674,1.482s0.676,0.764,1.125,1.014s0.975,0.375,1.576,0.375
		c0.594,0,1.117-0.125,1.57-0.375s0.828-0.588,1.125-1.014s0.521-0.92,0.674-1.482s0.229-1.16,0.229-1.793v-0.258
		c0-0.625-0.076-1.221-0.229-1.787s-0.379-1.062-0.68-1.488s-0.678-0.766-1.131-1.02s-0.98-0.381-1.582-0.381
		c-0.594,0-1.113,0.127-1.559,0.381s-0.818,0.594-1.119,1.02s-0.525,0.922-0.674,1.488s-0.223,1.162-0.223,1.787V11.587z"/>
	<path fill="#231F20" d="M970.643,5.106l0.07,1.594c0.453-0.57,1-1.018,1.641-1.342s1.359-0.486,2.156-0.486
		c0.617,0,1.176,0.084,1.676,0.252s0.926,0.438,1.277,0.809s0.623,0.848,0.814,1.43s0.287,1.287,0.287,2.115v8.309h-2.168V9.454
		c0-0.492-0.055-0.912-0.164-1.26s-0.271-0.631-0.486-0.85s-0.48-0.379-0.797-0.48s-0.682-0.152-1.096-0.152
		c-0.703,0-1.32,0.188-1.852,0.562s-0.945,0.867-1.242,1.477v9.035h-2.168V5.106H970.643z"/>
</g>
<rect x="442.513" y="-0.214" fill="none" width="203.246" height="26.938"/>
<g enable-background="new    ">
	<path fill="#231F20" d="M464.449,17.786h-2.25V0.724h2.25V17.786z"/>
	<path fill="#231F20" d="M470.273,5.106l0.07,1.594c0.453-0.57,1-1.018,1.641-1.342s1.359-0.486,2.156-0.486
		c0.617,0,1.176,0.084,1.676,0.252s0.926,0.438,1.277,0.809s0.623,0.848,0.814,1.43s0.287,1.287,0.287,2.115v8.309h-2.168V9.454
		c0-0.492-0.055-0.912-0.164-1.26s-0.271-0.631-0.486-0.85s-0.48-0.379-0.797-0.48s-0.682-0.152-1.096-0.152
		c-0.703,0-1.32,0.188-1.852,0.562s-0.945,0.867-1.242,1.477v9.035h-2.168V5.106H470.273z"/>
	<path fill="#231F20" d="M481.476,1.743c0-0.352,0.107-0.648,0.322-0.891s0.533-0.363,0.955-0.363s0.742,0.121,0.961,0.363
		s0.328,0.539,0.328,0.891s-0.109,0.645-0.328,0.879s-0.539,0.352-0.961,0.352s-0.74-0.117-0.955-0.352S481.476,2.095,481.476,1.743
		z M483.82,17.786h-2.168V5.106h2.168V17.786z"/>
	<path fill="#231F20" d="M490.23,2.036v3.07h2.367v1.676h-2.367v7.863c0,0.328,0.039,0.592,0.117,0.791s0.182,0.354,0.311,0.463
		s0.277,0.182,0.445,0.217s0.342,0.053,0.521,0.053s0.369-0.018,0.568-0.053s0.354-0.064,0.463-0.088v1.758
		c-0.172,0.047-0.395,0.098-0.668,0.152s-0.605,0.082-0.996,0.082c-0.398,0-0.775-0.057-1.131-0.17s-0.666-0.303-0.932-0.568
		s-0.477-0.615-0.633-1.049s-0.234-0.967-0.234-1.6V6.782h-2.309V5.106h2.309v-3.07H490.23z"/>
	<path fill="#231F20" d="M495.14,1.743c0-0.352,0.107-0.648,0.322-0.891s0.533-0.363,0.955-0.363s0.742,0.121,0.961,0.363
		s0.328,0.539,0.328,0.891s-0.109,0.645-0.328,0.879s-0.539,0.352-0.961,0.352s-0.74-0.117-0.955-0.352S495.14,2.095,495.14,1.743z
		 M497.484,17.786h-2.168V5.106h2.168V17.786z"/>
	<path fill="#231F20" d="M508.781,17.786c-0.078-0.156-0.141-0.354-0.188-0.592s-0.086-0.486-0.117-0.744
		c-0.203,0.211-0.432,0.412-0.686,0.604s-0.531,0.359-0.832,0.504s-0.627,0.258-0.979,0.34s-0.723,0.123-1.113,0.123
		c-0.648,0-1.236-0.098-1.764-0.293s-0.977-0.461-1.348-0.797s-0.658-0.732-0.861-1.189s-0.305-0.947-0.305-1.471
		c0-0.68,0.133-1.279,0.398-1.799s0.646-0.955,1.143-1.307s1.096-0.617,1.799-0.797s1.488-0.27,2.355-0.27h2.156V9.103
		c0-0.758-0.227-1.361-0.68-1.811s-1.121-0.674-2.004-0.674c-0.406,0-0.777,0.055-1.113,0.164s-0.623,0.256-0.861,0.439
		s-0.424,0.396-0.557,0.639s-0.199,0.496-0.199,0.762h-2.18c0-0.453,0.119-0.902,0.357-1.348s0.576-0.846,1.014-1.201
		s0.967-0.645,1.588-0.867s1.314-0.334,2.08-0.334c0.688,0,1.322,0.088,1.904,0.264s1.08,0.441,1.494,0.797s0.738,0.799,0.973,1.33
		s0.352,1.152,0.352,1.863v5.895c0,0.43,0.037,0.881,0.111,1.354s0.186,0.881,0.334,1.225v0.188H508.781z M505.183,16.134
		c0.391,0,0.758-0.055,1.102-0.164s0.656-0.252,0.938-0.428s0.525-0.377,0.732-0.604s0.369-0.461,0.486-0.703v-2.602h-1.805
		c-1.242,0-2.199,0.193-2.871,0.58s-1.008,0.971-1.008,1.752c0,0.305,0.051,0.59,0.152,0.855s0.256,0.494,0.463,0.686
		s0.461,0.344,0.762,0.457S504.785,16.134,505.183,16.134z"/>
	<path fill="#231F20" d="M516.363,17.786h-2.168v-18h2.168V17.786z"/>
	<path fill="#231F20" d="M531.035,18.021c-0.883,0-1.682-0.152-2.396-0.457s-1.326-0.729-1.834-1.271s-0.898-1.189-1.172-1.939
		s-0.41-1.57-0.41-2.461v-0.492c0-1.031,0.154-1.953,0.463-2.766s0.721-1.496,1.236-2.051s1.105-0.979,1.77-1.271
		s1.355-0.439,2.074-0.439c0.906,0,1.688,0.158,2.344,0.475s1.197,0.752,1.623,1.307s0.74,1.211,0.943,1.969
		s0.305,1.582,0.305,2.473v0.973h-8.59c0.016,0.586,0.111,1.133,0.287,1.641s0.426,0.949,0.75,1.324s0.715,0.672,1.172,0.891
		s0.975,0.328,1.553,0.328c0.766,0,1.414-0.156,1.945-0.469s0.996-0.727,1.395-1.242l1.324,1.031
		c-0.203,0.312-0.449,0.615-0.738,0.908s-0.627,0.555-1.014,0.785s-0.83,0.414-1.33,0.551S531.667,18.021,531.035,18.021z
		 M530.765,6.653c-0.438,0-0.84,0.08-1.207,0.24s-0.695,0.393-0.984,0.697s-0.529,0.684-0.721,1.137s-0.322,0.973-0.393,1.559h6.352
		v-0.164c-0.023-0.422-0.092-0.84-0.205-1.254s-0.289-0.785-0.527-1.113s-0.545-0.594-0.92-0.797S531.32,6.653,530.765,6.653z"/>
	<path fill="#231F20" d="M540.539,5.106l0.07,1.594c0.453-0.57,1-1.018,1.641-1.342s1.359-0.486,2.156-0.486
		c0.617,0,1.176,0.084,1.676,0.252s0.926,0.438,1.277,0.809s0.623,0.848,0.814,1.43s0.287,1.287,0.287,2.115v8.309h-2.168V9.454
		c0-0.492-0.055-0.912-0.164-1.26s-0.271-0.631-0.486-0.85s-0.48-0.379-0.797-0.48s-0.682-0.152-1.096-0.152
		c-0.703,0-1.32,0.188-1.852,0.562s-0.945,0.867-1.242,1.477v9.035h-2.168V5.106H540.539z"/>
	<path fill="#231F20" d="M559.113,14.423c0-0.234-0.035-0.455-0.105-0.662s-0.209-0.402-0.416-0.586s-0.502-0.354-0.885-0.51
		s-0.887-0.301-1.512-0.434c-0.703-0.148-1.336-0.324-1.898-0.527s-1.041-0.447-1.436-0.732s-0.697-0.623-0.908-1.014
		s-0.316-0.848-0.316-1.371c0-0.5,0.111-0.975,0.334-1.424s0.537-0.844,0.943-1.184s0.898-0.609,1.477-0.809
		s1.223-0.299,1.934-0.299c0.758,0,1.436,0.104,2.033,0.311s1.105,0.49,1.523,0.85s0.736,0.779,0.955,1.26s0.328,0.994,0.328,1.541
		h-2.18c0-0.258-0.059-0.518-0.176-0.779s-0.289-0.496-0.516-0.703s-0.504-0.375-0.832-0.504s-0.707-0.193-1.137-0.193
		c-0.453,0-0.838,0.053-1.154,0.158s-0.576,0.246-0.779,0.422s-0.352,0.375-0.445,0.598s-0.141,0.451-0.141,0.686
		s0.039,0.445,0.117,0.633s0.227,0.357,0.445,0.51s0.518,0.293,0.896,0.422s0.869,0.26,1.471,0.393
		c0.773,0.18,1.445,0.383,2.016,0.609s1.043,0.49,1.418,0.791s0.654,0.646,0.838,1.037s0.275,0.844,0.275,1.359
		c0,0.555-0.115,1.062-0.346,1.523s-0.561,0.855-0.99,1.184s-0.945,0.584-1.547,0.768s-1.27,0.275-2.004,0.275
		c-0.844,0-1.588-0.117-2.232-0.352s-1.186-0.545-1.623-0.932s-0.77-0.828-0.996-1.324s-0.34-1.006-0.34-1.529h2.168
		c0.023,0.445,0.131,0.818,0.322,1.119s0.432,0.545,0.721,0.732s0.605,0.32,0.949,0.398s0.688,0.117,1.031,0.117
		c0.445,0,0.836-0.047,1.172-0.141s0.619-0.223,0.85-0.387s0.404-0.357,0.521-0.58S559.113,14.681,559.113,14.423z"/>
	<path fill="#231F20" d="M569.367,18.021c-0.883,0-1.682-0.152-2.396-0.457s-1.326-0.729-1.834-1.271s-0.898-1.189-1.172-1.939
		s-0.41-1.57-0.41-2.461v-0.492c0-1.031,0.154-1.953,0.463-2.766s0.721-1.496,1.236-2.051s1.105-0.979,1.77-1.271
		s1.355-0.439,2.074-0.439c0.906,0,1.688,0.158,2.344,0.475s1.197,0.752,1.623,1.307s0.74,1.211,0.943,1.969
		s0.305,1.582,0.305,2.473v0.973h-8.59c0.016,0.586,0.111,1.133,0.287,1.641s0.426,0.949,0.75,1.324s0.715,0.672,1.172,0.891
		s0.975,0.328,1.553,0.328c0.766,0,1.414-0.156,1.945-0.469s0.996-0.727,1.395-1.242l1.324,1.031
		c-0.203,0.312-0.449,0.615-0.738,0.908s-0.627,0.555-1.014,0.785s-0.83,0.414-1.33,0.551S570,18.021,569.367,18.021z
		 M569.097,6.653c-0.438,0-0.84,0.08-1.207,0.24s-0.695,0.393-0.984,0.697s-0.529,0.684-0.721,1.137s-0.322,0.973-0.393,1.559h6.352
		v-0.164c-0.023-0.422-0.092-0.84-0.205-1.254s-0.289-0.785-0.527-1.113s-0.545-0.594-0.92-0.797S569.652,6.653,569.097,6.653z"/>
	<path fill="#231F20" d="M578.859,5.106l0.059,1.406c0.438-0.516,0.967-0.918,1.588-1.207s1.346-0.434,2.174-0.434
		c0.82,0,1.545,0.162,2.174,0.486s1.111,0.842,1.447,1.553c0.422-0.609,0.971-1.102,1.646-1.477s1.475-0.562,2.396-0.562
		c0.68,0,1.281,0.088,1.805,0.264s0.967,0.451,1.33,0.826s0.639,0.852,0.826,1.43s0.281,1.266,0.281,2.062v8.332h-2.168V9.442
		c0-0.531-0.064-0.973-0.193-1.324s-0.311-0.633-0.545-0.844s-0.52-0.357-0.855-0.439s-0.707-0.123-1.113-0.123
		c-0.445,0-0.84,0.07-1.184,0.211s-0.639,0.33-0.885,0.568s-0.441,0.52-0.586,0.844s-0.236,0.67-0.275,1.037v8.414h-2.18V9.454
		c0-0.492-0.064-0.912-0.193-1.26s-0.311-0.631-0.545-0.85s-0.518-0.379-0.85-0.48s-0.705-0.152-1.119-0.152
		c-0.773,0-1.395,0.168-1.863,0.504s-0.82,0.773-1.055,1.312v9.258h-2.168V5.106H578.859z"/>
	<path fill="#231F20" d="M608.589,11.587c0,0.93-0.109,1.787-0.328,2.572s-0.539,1.465-0.961,2.039s-0.938,1.021-1.547,1.342
		s-1.305,0.48-2.086,0.48c-0.836,0-1.559-0.146-2.168-0.439s-1.125-0.713-1.547-1.26l-0.105,1.465h-1.992v-18h2.168v6.715
		c0.422-0.523,0.93-0.926,1.523-1.207s1.293-0.422,2.098-0.422c0.797,0,1.502,0.156,2.115,0.469s1.129,0.752,1.547,1.318
		s0.736,1.246,0.955,2.039s0.328,1.674,0.328,2.643V11.587z M606.421,11.341c0-0.633-0.059-1.229-0.176-1.787
		s-0.307-1.049-0.568-1.471s-0.604-0.756-1.025-1.002s-0.938-0.369-1.547-0.369c-0.398,0-0.758,0.051-1.078,0.152
		s-0.607,0.242-0.861,0.422s-0.475,0.391-0.662,0.633s-0.348,0.504-0.48,0.785v5.484c0.141,0.281,0.307,0.543,0.498,0.785
		s0.414,0.453,0.668,0.633s0.541,0.32,0.861,0.422s0.68,0.152,1.078,0.152c0.586,0,1.086-0.121,1.5-0.363s0.754-0.57,1.02-0.984
		s0.461-0.9,0.586-1.459s0.188-1.154,0.188-1.787V11.341z"/>
	<path fill="#231F20" d="M613.675,17.786h-2.168v-18h2.168V17.786z"/>
	<path fill="#231F20" d="M622.406,18.021c-0.883,0-1.682-0.152-2.396-0.457s-1.326-0.729-1.834-1.271s-0.898-1.189-1.172-1.939
		s-0.41-1.57-0.41-2.461v-0.492c0-1.031,0.154-1.953,0.463-2.766s0.721-1.496,1.236-2.051s1.105-0.979,1.77-1.271
		s1.355-0.439,2.074-0.439c0.906,0,1.688,0.158,2.344,0.475s1.197,0.752,1.623,1.307s0.74,1.211,0.943,1.969
		s0.305,1.582,0.305,2.473v0.973h-8.59c0.016,0.586,0.111,1.133,0.287,1.641s0.426,0.949,0.75,1.324s0.715,0.672,1.172,0.891
		s0.975,0.328,1.553,0.328c0.766,0,1.414-0.156,1.945-0.469s0.996-0.727,1.395-1.242l1.324,1.031
		c-0.203,0.312-0.449,0.615-0.738,0.908s-0.627,0.555-1.014,0.785s-0.83,0.414-1.33,0.551S623.039,18.021,622.406,18.021z
		 M622.136,6.653c-0.438,0-0.84,0.08-1.207,0.24s-0.695,0.393-0.984,0.697s-0.529,0.684-0.721,1.137s-0.322,0.973-0.393,1.559h6.352
		v-0.164c-0.023-0.422-0.092-0.84-0.205-1.254s-0.289-0.785-0.527-1.113s-0.545-0.594-0.92-0.797S622.691,6.653,622.136,6.653z"/>
</g>
<g>
	<g>
		
			<line fill="none" stroke="#767676" stroke-width="2.2698" stroke-miterlimit="10" x1="651.865" y1="116.584" x2="744.434" y2="116.584"/>
		<g>
			<path fill="#767676" d="M751.282,116.584c-3.225,1.195-7.223,3.236-9.7,5.396l1.952-5.396l-1.952-5.396
				C744.061,113.35,748.059,115.389,751.282,116.584z"/>
		</g>
	</g>
</g>
<g>
	<g>
		
			<line fill="none" stroke="#767676" stroke-width="2.2698" stroke-miterlimit="10" x1="651.865" y1="103.756" x2="744.447" y2="97.783"/>
		<g>
			<path fill="#767676" d="M751.282,97.342c-3.141,1.4-6.999,3.694-9.333,6.012l1.602-5.513l-2.297-5.26
				C743.867,94.578,747.989,96.357,751.282,97.342z"/>
		</g>
	</g>
</g>
<g>
	<g>
		
			<line fill="none" stroke="#767676" stroke-width="2.2698" stroke-miterlimit="10" x1="651.865" y1="90.928" x2="744.489" y2="78.977"/>
		<g>
			<path fill="#767676" d="M751.282,78.1c-3.044,1.6-6.748,4.135-8.932,6.594l1.246-5.602l-2.627-5.103
				C743.706,75.814,747.934,77.327,751.282,78.1z"/>
		</g>
	</g>
</g>
<g>
	<g>
		
			<line fill="none" stroke="#767676" stroke-width="2.2698" stroke-miterlimit="10" x1="651.865" y1="129.412" x2="744.447" y2="135.385"/>
		<g>
			<path fill="#767676" d="M751.282,135.826c-3.294,0.986-7.415,2.765-10.028,4.762l2.297-5.261l-1.602-5.511
				C744.283,132.133,748.143,134.426,751.282,135.826z"/>
		</g>
	</g>
</g>
<g>
	<g>
		
			<line fill="none" stroke="#767676" stroke-width="2.2698" stroke-miterlimit="10" x1="651.865" y1="142.24" x2="744.489" y2="154.191"/>
		<g>
			<path fill="#767676" d="M751.282,155.068c-3.351,0.772-7.577,2.285-10.312,4.111l2.627-5.104l-1.246-5.603
				C744.533,150.936,748.238,153.471,751.282,155.068z"/>
		</g>
	</g>
</g>
<linearGradient id="SVGID_6_" gradientUnits="userSpaceOnUse" x1="404" y1="130.1934" x2="647.1992" y2="130.1934">
	<stop  offset="0" style="stop-color:#25848E"/>
	<stop  offset="1" style="stop-color:#1E9C89"/>
</linearGradient>
<polygon fill="url(#SVGID_6_)" stroke="#000000" stroke-width="3" stroke-miterlimit="10" points="550.988,169.213 404,169.213 
	500.21,91.174 647.199,91.174 "/>
<linearGradient id="SVGID_7_" gradientUnits="userSpaceOnUse" x1="404" y1="122.3652" x2="647.1992" y2="122.3652">
	<stop  offset="0" style="stop-color:#20918C"/>
	<stop  offset="1" style="stop-color:#22A884"/>
</linearGradient>
<polygon fill="url(#SVGID_7_)" stroke="#000000" stroke-width="3" stroke-miterlimit="10" points="550.988,161.385 404,161.385 
	500.21,83.346 647.199,83.346 "/>
<linearGradient id="SVGID_8_" gradientUnits="userSpaceOnUse" x1="404" y1="114.5376" x2="647.1992" y2="114.5376">
	<stop  offset="0" style="stop-color:#1E9C89"/>
	<stop  offset="1" style="stop-color:#2FB47C"/>
</linearGradient>
<polygon fill="url(#SVGID_8_)" stroke="#000000" stroke-width="3" stroke-miterlimit="10" points="550.988,153.557 404,153.557 
	500.21,75.519 647.199,75.519 "/>
<linearGradient id="SVGID_9_" gradientUnits="userSpaceOnUse" x1="404" y1="106.7095" x2="647.1992" y2="106.7095">
	<stop  offset="0" style="stop-color:#22A884"/>
	<stop  offset="1" style="stop-color:#44BF70"/>
</linearGradient>
<polygon fill="url(#SVGID_9_)" stroke="#000000" stroke-width="3" stroke-miterlimit="10" points="550.988,145.729 404,145.729 
	500.21,67.69 647.199,67.69 "/>
<linearGradient id="SVGID_10_" gradientUnits="userSpaceOnUse" x1="404" y1="98.8818" x2="647.1992" y2="98.8818">
	<stop  offset="0" style="stop-color:#2FB47C"/>
	<stop  offset="1" style="stop-color:#5EC962"/>
</linearGradient>
<polygon fill="url(#SVGID_10_)" stroke="#000000" stroke-width="3" stroke-miterlimit="10" points="550.988,137.9 404,137.9 
	500.21,59.863 647.199,59.863 "/>
</svg>
