<?xml version="1.0" encoding="utf-8"?>
<!-- Generator: Adobe Illustrator 15.1.0, SVG Export Plug-In . SVG Version: 6.00 Build 0)  -->
<!DOCTYPE svg PUBLIC "-//W3C//DTD SVG 1.1//EN" "http://www.w3.org/Graphics/SVG/1.1/DTD/svg11.dtd">
<svg version="1.1" id="Layer_3" xmlns="http://www.w3.org/2000/svg" xmlns:xlink="http://www.w3.org/1999/xlink" x="0px" y="0px"
	 width="1400px" height="207.632px" viewBox="0 140.535 1400 207.632" enable-background="new 0 140.535 1400 207.632"
	 xml:space="preserve">
<g>
	<g>
		
			<line fill="none" stroke="#000000" stroke-width="2" stroke-miterlimit="10" x1="556.555" y1="304.075" x2="557.555" y2="304.075"/>
		
			<line fill="none" stroke="#000000" stroke-width="2" stroke-miterlimit="10" stroke-dasharray="1.9901,5.9703" x1="563.525" y1="304.075" x2="1054.087" y2="304.075"/>
		
			<line fill="none" stroke="#000000" stroke-width="2" stroke-miterlimit="10" x1="1057.072" y1="304.075" x2="1058.072" y2="304.075"/>
	</g>
</g>
<ellipse fill="#900DA4" stroke="#000000" stroke-width="2.1166" stroke-miterlimit="10" cx="358.885" cy="215.512" rx="16.298" ry="6.35"/>
<ellipse fill="#B12A90" stroke="#000000" stroke-width="2.1166" stroke-miterlimit="10" cx="358.885" cy="209.098" rx="16.298" ry="6.35"/>
<ellipse fill="#0C0787" stroke="#000000" stroke-width="2.1166" stroke-miterlimit="10" cx="395.387" cy="199.213" rx="16.298" ry="6.35"/>
<ellipse fill="#41039D" stroke="#000000" stroke-width="2.1166" stroke-miterlimit="10" cx="395.387" cy="192.799" rx="16.298" ry="6.35"/>
<ellipse fill="#6A00A8" stroke="#000000" stroke-width="2.1166" stroke-miterlimit="10" cx="395.387" cy="186.385" rx="16.298" ry="6.35"/>
<ellipse fill="#900DA4" stroke="#000000" stroke-width="2.1166" stroke-miterlimit="10" cx="395.387" cy="179.971" rx="16.298" ry="6.35"/>
<ellipse fill="#CC4778" stroke="#000000" stroke-width="2.1166" stroke-miterlimit="10" cx="438.667" cy="204.943" rx="16.298" ry="6.35"/>
<ellipse fill="#E16462" stroke="#000000" stroke-width="2.1166" stroke-miterlimit="10" cx="438.667" cy="198.529" rx="16.298" ry="6.35"/>
<ellipse fill="#F2844B" stroke="#000000" stroke-width="2.1166" stroke-miterlimit="10" cx="438.667" cy="192.115" rx="16.298" ry="6.35"/>
<polygon fill="#FFFFFF" stroke="#231F20" stroke-width="3.207" stroke-miterlimit="10" points="578.79,345.182 431.802,345.182 
	528.013,267.143 675,267.143 "/>
<g>
	<ellipse fill="#5601A4" cx="501.394" cy="325.512" rx="16.298" ry="6.35"/>
	
		<ellipse fill="none" stroke="#000000" stroke-width="0.8467" stroke-linecap="round" stroke-miterlimit="10" stroke-dasharray="2.4862,1.6575" cx="501.394" cy="325.512" rx="16.298" ry="6.35"/>
</g>
<g>
	<ellipse fill="#EB7456" cx="574.514" cy="312.361" rx="15.483" ry="6.033"/>
	
		<ellipse fill="none" stroke="#000000" stroke-width="0.8467" stroke-linecap="round" stroke-miterlimit="10" stroke-dasharray="2.5008,1.6672" cx="574.514" cy="312.361" rx="15.483" ry="6.033"/>
</g>
<g>
	<ellipse fill="#D7556D" cx="556.555" cy="283.178" rx="14.709" ry="5.731"/>
	
		<ellipse fill="none" stroke="#000000" stroke-width="0.8467" stroke-linecap="round" stroke-miterlimit="10" stroke-dasharray="2.5243,1.6829" cx="556.555" cy="283.178" rx="14.709" ry="5.731"/>
</g>
<g>
	<rect x="634.404" y="235" fill="none" width="383.246" height="63.293"/>
	<path fill="#231F20" d="M703.438,245.02c0,1.281-0.162,2.428-0.486,3.439s-0.783,1.873-1.377,2.584s-1.312,1.254-2.156,1.629
		s-1.785,0.562-2.824,0.562c-1.008,0-1.934-0.188-2.777-0.562s-1.57-0.918-2.18-1.629s-1.082-1.572-1.418-2.584
		s-0.504-2.158-0.504-3.439v-1.078c0-1.273,0.168-2.42,0.504-3.439s0.805-1.885,1.406-2.596s1.324-1.256,2.168-1.635
		s1.77-0.568,2.777-0.568c1.039,0,1.982,0.189,2.83,0.568s1.57,0.924,2.168,1.635s1.059,1.576,1.383,2.596s0.486,2.166,0.486,3.439
		V245.02z M701.199,243.918c0-1.016-0.104-1.914-0.311-2.695s-0.51-1.438-0.908-1.969s-0.885-0.934-1.459-1.207
		s-1.225-0.41-1.951-0.41c-0.695,0-1.328,0.137-1.898,0.41s-1.057,0.676-1.459,1.207s-0.713,1.188-0.932,1.969
		s-0.328,1.68-0.328,2.695v1.102c0,1.023,0.111,1.926,0.334,2.707s0.537,1.439,0.943,1.975s0.895,0.939,1.465,1.213
		s1.203,0.41,1.898,0.41c0.734,0,1.387-0.137,1.957-0.41s1.053-0.678,1.447-1.213s0.693-1.193,0.896-1.975s0.305-1.684,0.305-2.707
		V243.918z"/>
	<path fill="#231F20" d="M717.207,246.801c0,0.93-0.109,1.787-0.328,2.572s-0.539,1.465-0.961,2.039s-0.938,1.021-1.547,1.342
		s-1.305,0.48-2.086,0.48c-0.836,0-1.559-0.146-2.168-0.439s-1.125-0.713-1.547-1.26L708.465,253h-1.992v-18h2.168v6.715
		c0.422-0.523,0.93-0.926,1.523-1.207s1.293-0.422,2.098-0.422c0.797,0,1.502,0.156,2.115,0.469s1.129,0.752,1.547,1.318
		s0.736,1.246,0.955,2.039s0.328,1.674,0.328,2.643V246.801z M715.039,246.555c0-0.633-0.059-1.229-0.176-1.787
		s-0.307-1.049-0.568-1.471s-0.604-0.756-1.025-1.002s-0.938-0.369-1.547-0.369c-0.398,0-0.758,0.051-1.078,0.152
		s-0.607,0.242-0.861,0.422s-0.475,0.391-0.662,0.633s-0.348,0.504-0.48,0.785v5.484c0.141,0.281,0.307,0.543,0.498,0.785
		s0.414,0.453,0.668,0.633s0.541,0.32,0.861,0.422s0.68,0.152,1.078,0.152c0.586,0,1.086-0.121,1.5-0.363s0.754-0.57,1.02-0.984
		s0.461-0.9,0.586-1.459s0.188-1.154,0.188-1.787V246.555z"/>
	<path fill="#231F20" d="M727.32,249.637c0-0.234-0.035-0.455-0.105-0.662s-0.209-0.402-0.416-0.586s-0.502-0.354-0.885-0.51
		s-0.887-0.301-1.512-0.434c-0.703-0.148-1.336-0.324-1.898-0.527s-1.041-0.447-1.436-0.732s-0.697-0.623-0.908-1.014
		s-0.316-0.848-0.316-1.371c0-0.5,0.111-0.975,0.334-1.424s0.537-0.844,0.943-1.184s0.898-0.609,1.477-0.809
		s1.223-0.299,1.934-0.299c0.758,0,1.436,0.104,2.033,0.311s1.105,0.49,1.523,0.85s0.736,0.779,0.955,1.26s0.328,0.994,0.328,1.541
		h-2.18c0-0.258-0.059-0.518-0.176-0.779s-0.289-0.496-0.516-0.703s-0.504-0.375-0.832-0.504s-0.707-0.193-1.137-0.193
		c-0.453,0-0.838,0.053-1.154,0.158s-0.576,0.246-0.779,0.422s-0.352,0.375-0.445,0.598s-0.141,0.451-0.141,0.686
		s0.039,0.445,0.117,0.633s0.227,0.357,0.445,0.51s0.518,0.293,0.896,0.422s0.869,0.26,1.471,0.393
		c0.773,0.18,1.445,0.383,2.016,0.609s1.043,0.49,1.418,0.791s0.654,0.646,0.838,1.037s0.275,0.844,0.275,1.359
		c0,0.555-0.115,1.062-0.346,1.523s-0.561,0.855-0.99,1.184s-0.945,0.584-1.547,0.768s-1.27,0.275-2.004,0.275
		c-0.844,0-1.588-0.117-2.232-0.352s-1.186-0.545-1.623-0.932s-0.77-0.828-0.996-1.324s-0.34-1.006-0.34-1.529h2.168
		c0.023,0.445,0.131,0.818,0.322,1.119s0.432,0.545,0.721,0.732s0.605,0.32,0.949,0.398s0.688,0.117,1.031,0.117
		c0.445,0,0.836-0.047,1.172-0.141s0.619-0.223,0.85-0.387s0.404-0.357,0.521-0.58S727.32,249.895,727.32,249.637z"/>
	<path fill="#231F20" d="M737.574,253.234c-0.883,0-1.682-0.152-2.396-0.457s-1.326-0.729-1.834-1.271s-0.898-1.189-1.172-1.939
		s-0.41-1.57-0.41-2.461v-0.492c0-1.031,0.154-1.953,0.463-2.766s0.721-1.496,1.236-2.051s1.105-0.979,1.77-1.271
		s1.355-0.439,2.074-0.439c0.906,0,1.688,0.158,2.344,0.475s1.197,0.752,1.623,1.307s0.74,1.211,0.943,1.969
		s0.305,1.582,0.305,2.473v0.973h-8.59c0.016,0.586,0.111,1.133,0.287,1.641s0.426,0.949,0.75,1.324s0.715,0.672,1.172,0.891
		s0.975,0.328,1.553,0.328c0.766,0,1.414-0.156,1.945-0.469s0.996-0.727,1.395-1.242l1.324,1.031
		c-0.203,0.312-0.449,0.615-0.738,0.908s-0.627,0.555-1.014,0.785s-0.83,0.414-1.33,0.551S738.207,253.234,737.574,253.234z
		 M737.305,241.867c-0.438,0-0.84,0.08-1.207,0.24s-0.695,0.393-0.984,0.697s-0.529,0.684-0.721,1.137s-0.322,0.973-0.393,1.559
		h6.352v-0.164c-0.023-0.422-0.092-0.84-0.205-1.254s-0.289-0.785-0.527-1.113s-0.545-0.594-0.92-0.797
		S737.859,241.867,737.305,241.867z"/>
	<path fill="#231F20" d="M751.156,242.266c-0.188-0.031-0.361-0.053-0.521-0.064s-0.342-0.018-0.545-0.018
		c-0.75,0-1.361,0.164-1.834,0.492s-0.826,0.77-1.061,1.324v9h-2.168v-12.68h2.109l0.035,1.465c0.328-0.523,0.738-0.938,1.23-1.242
		s1.09-0.457,1.793-0.457c0.156,0,0.336,0.018,0.539,0.053s0.344,0.072,0.422,0.111V242.266z"/>
	<path fill="#231F20" d="M757.543,250.059l3.141-9.738h2.215L758.352,253h-1.652l-4.594-12.68h2.215L757.543,250.059z"/>
	<path fill="#231F20" d="M772.637,253c-0.078-0.156-0.141-0.354-0.188-0.592s-0.086-0.486-0.117-0.744
		c-0.203,0.211-0.432,0.412-0.686,0.604s-0.531,0.359-0.832,0.504s-0.627,0.258-0.979,0.34s-0.723,0.123-1.113,0.123
		c-0.648,0-1.236-0.098-1.764-0.293s-0.977-0.461-1.348-0.797s-0.658-0.732-0.861-1.189s-0.305-0.947-0.305-1.471
		c0-0.68,0.133-1.279,0.398-1.799s0.646-0.955,1.143-1.307s1.096-0.617,1.799-0.797s1.488-0.27,2.355-0.27h2.156v-0.996
		c0-0.758-0.227-1.361-0.68-1.811s-1.121-0.674-2.004-0.674c-0.406,0-0.777,0.055-1.113,0.164s-0.623,0.256-0.861,0.439
		s-0.424,0.396-0.557,0.639s-0.199,0.496-0.199,0.762h-2.18c0-0.453,0.119-0.902,0.357-1.348s0.576-0.846,1.014-1.201
		s0.967-0.645,1.588-0.867s1.314-0.334,2.08-0.334c0.688,0,1.322,0.088,1.904,0.264s1.08,0.441,1.494,0.797s0.738,0.799,0.973,1.33
		s0.352,1.152,0.352,1.863v5.895c0,0.43,0.037,0.881,0.111,1.354s0.186,0.881,0.334,1.225V253H772.637z M769.039,251.348
		c0.391,0,0.758-0.055,1.102-0.164s0.656-0.252,0.938-0.428s0.525-0.377,0.732-0.604s0.369-0.461,0.486-0.703v-2.602h-1.805
		c-1.242,0-2.199,0.193-2.871,0.58s-1.008,0.971-1.008,1.752c0,0.305,0.051,0.59,0.152,0.855s0.256,0.494,0.463,0.686
		s0.461,0.344,0.762,0.457S768.641,251.348,769.039,251.348z"/>
	<path fill="#231F20" d="M780.805,237.25v3.07h2.367v1.676h-2.367v7.863c0,0.328,0.039,0.592,0.117,0.791s0.182,0.354,0.311,0.463
		s0.277,0.182,0.445,0.217s0.342,0.053,0.521,0.053s0.369-0.018,0.568-0.053s0.354-0.064,0.463-0.088V253
		c-0.172,0.047-0.395,0.098-0.668,0.152s-0.605,0.082-0.996,0.082c-0.398,0-0.775-0.057-1.131-0.17s-0.666-0.303-0.932-0.568
		s-0.477-0.615-0.633-1.049s-0.234-0.967-0.234-1.6v-7.852h-2.309v-1.676h2.309v-3.07H780.805z"/>
	<path fill="#231F20" d="M785.715,236.957c0-0.352,0.107-0.648,0.322-0.891s0.533-0.363,0.955-0.363s0.742,0.121,0.961,0.363
		s0.328,0.539,0.328,0.891s-0.109,0.645-0.328,0.879s-0.539,0.352-0.961,0.352s-0.74-0.117-0.955-0.352
		S785.715,237.309,785.715,236.957z M788.059,253h-2.168v-12.68h2.168V253z"/>
	<path fill="#231F20" d="M790.953,246.543c0-0.922,0.135-1.775,0.404-2.561s0.652-1.467,1.148-2.045s1.1-1.031,1.811-1.359
		s1.508-0.492,2.391-0.492c0.898,0,1.705,0.164,2.42,0.492s1.322,0.781,1.822,1.359s0.883,1.26,1.148,2.045s0.398,1.639,0.398,2.561
		v0.258c0,0.922-0.133,1.775-0.398,2.561s-0.648,1.465-1.148,2.039s-1.105,1.023-1.816,1.348s-1.512,0.486-2.402,0.486
		s-1.691-0.162-2.402-0.486s-1.316-0.773-1.816-1.348s-0.885-1.254-1.154-2.039s-0.404-1.639-0.404-2.561V246.543z M793.133,246.801
		c0,0.633,0.074,1.23,0.223,1.793s0.373,1.057,0.674,1.482s0.676,0.764,1.125,1.014s0.975,0.375,1.576,0.375
		c0.594,0,1.117-0.125,1.57-0.375s0.828-0.588,1.125-1.014s0.521-0.92,0.674-1.482s0.229-1.16,0.229-1.793v-0.258
		c0-0.625-0.076-1.221-0.229-1.787s-0.379-1.062-0.68-1.488s-0.678-0.766-1.131-1.02s-0.98-0.381-1.582-0.381
		c-0.594,0-1.113,0.127-1.559,0.381s-0.818,0.594-1.119,1.02s-0.525,0.922-0.674,1.488s-0.223,1.162-0.223,1.787V246.801z"/>
	<path fill="#231F20" d="M807.266,240.32l0.07,1.594c0.453-0.57,1-1.018,1.641-1.342s1.359-0.486,2.156-0.486
		c0.617,0,1.176,0.084,1.676,0.252s0.926,0.438,1.277,0.809s0.623,0.848,0.814,1.43s0.287,1.287,0.287,2.115V253h-2.168v-8.332
		c0-0.492-0.055-0.912-0.164-1.26s-0.271-0.631-0.486-0.85s-0.48-0.379-0.797-0.48s-0.682-0.152-1.096-0.152
		c-0.703,0-1.32,0.188-1.852,0.562s-0.945,0.867-1.242,1.477V253h-2.168v-12.68H807.266z"/>
	<path fill="#231F20" d="M831.781,249.637c0-0.234-0.035-0.455-0.105-0.662s-0.209-0.402-0.416-0.586s-0.502-0.354-0.885-0.51
		s-0.887-0.301-1.512-0.434c-0.703-0.148-1.336-0.324-1.898-0.527s-1.041-0.447-1.436-0.732s-0.697-0.623-0.908-1.014
		s-0.316-0.848-0.316-1.371c0-0.5,0.111-0.975,0.334-1.424s0.537-0.844,0.943-1.184s0.898-0.609,1.477-0.809
		s1.223-0.299,1.934-0.299c0.758,0,1.436,0.104,2.033,0.311s1.105,0.49,1.523,0.85s0.736,0.779,0.955,1.26s0.328,0.994,0.328,1.541
		h-2.18c0-0.258-0.059-0.518-0.176-0.779s-0.289-0.496-0.516-0.703s-0.504-0.375-0.832-0.504s-0.707-0.193-1.137-0.193
		c-0.453,0-0.838,0.053-1.154,0.158s-0.576,0.246-0.779,0.422s-0.352,0.375-0.445,0.598s-0.141,0.451-0.141,0.686
		s0.039,0.445,0.117,0.633s0.227,0.357,0.445,0.51s0.518,0.293,0.896,0.422s0.869,0.26,1.471,0.393
		c0.773,0.18,1.445,0.383,2.016,0.609s1.043,0.49,1.418,0.791s0.654,0.646,0.838,1.037s0.275,0.844,0.275,1.359
		c0,0.555-0.115,1.062-0.346,1.523s-0.561,0.855-0.99,1.184s-0.945,0.584-1.547,0.768s-1.27,0.275-2.004,0.275
		c-0.844,0-1.588-0.117-2.232-0.352s-1.186-0.545-1.623-0.932s-0.77-0.828-0.996-1.324s-0.34-1.006-0.34-1.529h2.168
		c0.023,0.445,0.131,0.818,0.322,1.119s0.432,0.545,0.721,0.732s0.605,0.32,0.949,0.398s0.688,0.117,1.031,0.117
		c0.445,0,0.836-0.047,1.172-0.141s0.619-0.223,0.85-0.387s0.404-0.357,0.521-0.58S831.781,249.895,831.781,249.637z"/>
	<path fill="#231F20" d="M842.035,253.234c-0.883,0-1.682-0.152-2.396-0.457s-1.326-0.729-1.834-1.271s-0.898-1.189-1.172-1.939
		s-0.41-1.57-0.41-2.461v-0.492c0-1.031,0.154-1.953,0.463-2.766s0.721-1.496,1.236-2.051s1.105-0.979,1.77-1.271
		s1.355-0.439,2.074-0.439c0.906,0,1.688,0.158,2.344,0.475s1.197,0.752,1.623,1.307s0.74,1.211,0.943,1.969
		s0.305,1.582,0.305,2.473v0.973h-8.59c0.016,0.586,0.111,1.133,0.287,1.641s0.426,0.949,0.75,1.324s0.715,0.672,1.172,0.891
		s0.975,0.328,1.553,0.328c0.766,0,1.414-0.156,1.945-0.469s0.996-0.727,1.395-1.242l1.324,1.031
		c-0.203,0.312-0.449,0.615-0.738,0.908s-0.627,0.555-1.014,0.785s-0.83,0.414-1.33,0.551S842.668,253.234,842.035,253.234z
		 M841.766,241.867c-0.438,0-0.84,0.08-1.207,0.24s-0.695,0.393-0.984,0.697s-0.529,0.684-0.721,1.137s-0.322,0.973-0.393,1.559
		h6.352v-0.164c-0.023-0.422-0.092-0.84-0.205-1.254s-0.289-0.785-0.527-1.113s-0.545-0.594-0.92-0.797
		S842.32,241.867,841.766,241.867z"/>
	<path fill="#231F20" d="M848.961,246.555c0-0.969,0.113-1.85,0.34-2.643s0.557-1.473,0.99-2.039s0.963-1.006,1.588-1.318
		s1.336-0.469,2.133-0.469c0.773,0,1.453,0.129,2.039,0.387s1.09,0.633,1.512,1.125l0.094-1.277h1.992v17.555h-2.168v-6.047
		c-0.422,0.453-0.922,0.801-1.5,1.043s-1.242,0.363-1.992,0.363c-0.789,0-1.494-0.16-2.115-0.48s-1.146-0.768-1.576-1.342
		s-0.76-1.254-0.99-2.039s-0.346-1.643-0.346-2.572V246.555z M851.129,246.801c0,0.633,0.066,1.232,0.199,1.799
		s0.34,1.061,0.621,1.482s0.635,0.758,1.061,1.008s0.932,0.375,1.518,0.375c0.719,0,1.316-0.16,1.793-0.48s0.863-0.73,1.16-1.23
		v-6.211c-0.148-0.242-0.318-0.465-0.51-0.668s-0.408-0.379-0.65-0.527s-0.51-0.266-0.803-0.352s-0.615-0.129-0.967-0.129
		c-0.594,0-1.105,0.127-1.535,0.381s-0.785,0.594-1.066,1.02s-0.488,0.922-0.621,1.488s-0.199,1.166-0.199,1.799V246.801z"/>
	<path fill="#231F20" d="M870.957,251.746c-0.398,0.469-0.902,0.834-1.512,1.096s-1.344,0.393-2.203,0.393
		c-0.625,0-1.191-0.088-1.699-0.264s-0.945-0.453-1.312-0.832s-0.65-0.867-0.85-1.465s-0.299-1.318-0.299-2.162v-8.191h2.168v8.215
		c0,0.57,0.066,1.041,0.199,1.412s0.309,0.664,0.527,0.879s0.469,0.363,0.75,0.445s0.57,0.123,0.867,0.123
		c0.883,0,1.592-0.168,2.127-0.504s0.928-0.785,1.178-1.348v-9.223h2.168V253h-2.062L870.957,251.746z"/>
	<path fill="#231F20" d="M881.621,253.234c-0.883,0-1.682-0.152-2.396-0.457s-1.326-0.729-1.834-1.271s-0.898-1.189-1.172-1.939
		s-0.41-1.57-0.41-2.461v-0.492c0-1.031,0.154-1.953,0.463-2.766s0.721-1.496,1.236-2.051s1.105-0.979,1.77-1.271
		s1.355-0.439,2.074-0.439c0.906,0,1.688,0.158,2.344,0.475s1.197,0.752,1.623,1.307s0.74,1.211,0.943,1.969
		s0.305,1.582,0.305,2.473v0.973h-8.59c0.016,0.586,0.111,1.133,0.287,1.641s0.426,0.949,0.75,1.324s0.715,0.672,1.172,0.891
		s0.975,0.328,1.553,0.328c0.766,0,1.414-0.156,1.945-0.469s0.996-0.727,1.395-1.242l1.324,1.031
		c-0.203,0.312-0.449,0.615-0.738,0.908s-0.627,0.555-1.014,0.785s-0.83,0.414-1.33,0.551S882.254,253.234,881.621,253.234z
		 M881.352,241.867c-0.438,0-0.84,0.08-1.207,0.24s-0.695,0.393-0.984,0.697s-0.529,0.684-0.721,1.137s-0.322,0.973-0.393,1.559
		h6.352v-0.164c-0.023-0.422-0.092-0.84-0.205-1.254s-0.289-0.785-0.527-1.113s-0.545-0.594-0.92-0.797
		S881.906,241.867,881.352,241.867z"/>
	<path fill="#231F20" d="M891.125,240.32l0.07,1.594c0.453-0.57,1-1.018,1.641-1.342s1.359-0.486,2.156-0.486
		c0.617,0,1.176,0.084,1.676,0.252s0.926,0.438,1.277,0.809s0.623,0.848,0.814,1.43s0.287,1.287,0.287,2.115V253h-2.168v-8.332
		c0-0.492-0.055-0.912-0.164-1.26s-0.271-0.631-0.486-0.85s-0.48-0.379-0.797-0.48s-0.682-0.152-1.096-0.152
		c-0.703,0-1.32,0.188-1.852,0.562s-0.945,0.867-1.242,1.477V253h-2.168v-12.68H891.125z"/>
	<path fill="#231F20" d="M907.402,251.465c0.383,0,0.75-0.062,1.102-0.188s0.662-0.297,0.932-0.516s0.488-0.479,0.656-0.779
		s0.268-0.627,0.299-0.979h2.051c-0.031,0.562-0.186,1.1-0.463,1.611s-0.643,0.961-1.096,1.348s-0.979,0.695-1.576,0.926
		s-1.232,0.346-1.904,0.346c-0.953,0-1.783-0.17-2.49-0.51s-1.295-0.799-1.764-1.377s-0.818-1.25-1.049-2.016
		s-0.346-1.574-0.346-2.426v-0.492c0-0.852,0.115-1.66,0.346-2.426s0.58-1.438,1.049-2.016s1.055-1.037,1.758-1.377
		s1.531-0.51,2.484-0.51c0.742,0,1.416,0.117,2.021,0.352s1.129,0.557,1.57,0.967s0.787,0.896,1.037,1.459s0.391,1.168,0.422,1.816
		h-2.051c-0.031-0.391-0.123-0.756-0.275-1.096s-0.357-0.637-0.615-0.891s-0.564-0.455-0.92-0.604s-0.752-0.223-1.189-0.223
		c-0.672,0-1.229,0.133-1.67,0.398s-0.797,0.615-1.066,1.049s-0.459,0.922-0.568,1.465s-0.164,1.088-0.164,1.635v0.492
		c0,0.562,0.055,1.115,0.164,1.658s0.297,1.029,0.562,1.459s0.621,0.777,1.066,1.043S906.723,251.465,907.402,251.465z"/>
	<path fill="#231F20" d="M920.141,253.234c-0.883,0-1.682-0.152-2.396-0.457s-1.326-0.729-1.834-1.271s-0.898-1.189-1.172-1.939
		s-0.41-1.57-0.41-2.461v-0.492c0-1.031,0.154-1.953,0.463-2.766s0.721-1.496,1.236-2.051s1.105-0.979,1.77-1.271
		s1.355-0.439,2.074-0.439c0.906,0,1.688,0.158,2.344,0.475s1.197,0.752,1.623,1.307s0.74,1.211,0.943,1.969
		s0.305,1.582,0.305,2.473v0.973h-8.59c0.016,0.586,0.111,1.133,0.287,1.641s0.426,0.949,0.75,1.324s0.715,0.672,1.172,0.891
		s0.975,0.328,1.553,0.328c0.766,0,1.414-0.156,1.945-0.469s0.996-0.727,1.395-1.242l1.324,1.031
		c-0.203,0.312-0.449,0.615-0.738,0.908s-0.627,0.555-1.014,0.785s-0.83,0.414-1.33,0.551S920.773,253.234,920.141,253.234z
		 M919.871,241.867c-0.438,0-0.84,0.08-1.207,0.24s-0.695,0.393-0.984,0.697s-0.529,0.684-0.721,1.137s-0.322,0.973-0.393,1.559
		h6.352v-0.164c-0.023-0.422-0.092-0.84-0.205-1.254s-0.289-0.785-0.527-1.113s-0.545-0.594-0.92-0.797
		S920.426,241.867,919.871,241.867z"/>
	<path fill="#231F20" d="M934.262,253v-11.004h-2.004v-1.676h2.004v-1.102c0-0.719,0.107-1.355,0.322-1.91s0.521-1.021,0.92-1.4
		s0.885-0.666,1.459-0.861s1.221-0.293,1.939-0.293c0.57,0,1.123,0.068,1.658,0.205s1.088,0.307,1.658,0.51l-0.363,1.828
		c-0.352-0.141-0.764-0.273-1.236-0.398s-0.99-0.188-1.553-0.188c-0.93,0-1.6,0.209-2.01,0.627s-0.615,1.045-0.615,1.881v1.102h2.59
		v1.676h-2.59V253H934.262z M943.297,253h-2.18v-12.68h2.18V253z"/>
	<path fill="#231F20" d="M949.18,253h-2.168v-18h2.168V253z"/>
	<path fill="#231F20" d="M957.91,253.234c-0.883,0-1.682-0.152-2.396-0.457s-1.326-0.729-1.834-1.271s-0.898-1.189-1.172-1.939
		s-0.41-1.57-0.41-2.461v-0.492c0-1.031,0.154-1.953,0.463-2.766s0.721-1.496,1.236-2.051s1.105-0.979,1.77-1.271
		s1.355-0.439,2.074-0.439c0.906,0,1.688,0.158,2.344,0.475s1.197,0.752,1.623,1.307s0.74,1.211,0.943,1.969
		s0.305,1.582,0.305,2.473v0.973h-8.59c0.016,0.586,0.111,1.133,0.287,1.641s0.426,0.949,0.75,1.324s0.715,0.672,1.172,0.891
		s0.975,0.328,1.553,0.328c0.766,0,1.414-0.156,1.945-0.469s0.996-0.727,1.395-1.242l1.324,1.031
		c-0.203,0.312-0.449,0.615-0.738,0.908s-0.627,0.555-1.014,0.785s-0.83,0.414-1.33,0.551S958.543,253.234,957.91,253.234z
		 M957.641,241.867c-0.438,0-0.84,0.08-1.207,0.24s-0.695,0.393-0.984,0.697s-0.529,0.684-0.721,1.137s-0.322,0.973-0.393,1.559
		h6.352v-0.164c-0.023-0.422-0.092-0.84-0.205-1.254s-0.289-0.785-0.527-1.113s-0.545-0.594-0.92-0.797
		S958.195,241.867,957.641,241.867z"/>
</g>
<g>
	<rect x="319.662" y="141.035" fill="none" width="171.246" height="43.293"/>
	<path fill="#231F20" d="M352.48,154.723c0-0.398-0.061-0.75-0.182-1.055s-0.336-0.584-0.645-0.838s-0.725-0.492-1.248-0.715
		s-1.188-0.451-1.992-0.686c-0.844-0.242-1.607-0.518-2.291-0.826s-1.266-0.664-1.746-1.066s-0.85-0.861-1.107-1.377
		s-0.387-1.105-0.387-1.77s0.139-1.279,0.416-1.846s0.67-1.059,1.178-1.477s1.117-0.744,1.828-0.979s1.504-0.352,2.379-0.352
		c0.961,0,1.816,0.145,2.566,0.434s1.381,0.672,1.893,1.148s0.9,1.027,1.166,1.652s0.398,1.27,0.398,1.934h-2.262
		c0-0.477-0.076-0.918-0.229-1.324s-0.385-0.758-0.697-1.055s-0.703-0.527-1.172-0.691s-1.023-0.246-1.664-0.246
		c-0.602,0-1.125,0.07-1.57,0.211s-0.812,0.334-1.102,0.58s-0.504,0.537-0.645,0.873s-0.211,0.703-0.211,1.102
		c0,0.359,0.076,0.688,0.229,0.984s0.389,0.57,0.709,0.82s0.732,0.48,1.236,0.691s1.107,0.414,1.811,0.609
		c0.969,0.273,1.805,0.576,2.508,0.908s1.283,0.709,1.74,1.131s0.797,0.895,1.02,1.418s0.334,1.117,0.334,1.781
		c0,0.695-0.141,1.324-0.422,1.887s-0.682,1.043-1.201,1.441s-1.145,0.705-1.875,0.92s-1.545,0.322-2.443,0.322
		c-0.523,0-1.047-0.049-1.57-0.146s-1.025-0.244-1.506-0.439s-0.926-0.438-1.336-0.727s-0.768-0.625-1.072-1.008
		s-0.543-0.812-0.715-1.289s-0.258-1-0.258-1.57h2.262c0,0.586,0.115,1.088,0.346,1.506s0.539,0.764,0.926,1.037
		s0.832,0.475,1.336,0.604s1.033,0.193,1.588,0.193c1.188,0,2.098-0.242,2.73-0.727S352.48,155.559,352.48,154.723z"/>
	<path fill="#231F20" d="M356.711,152.579c0-0.922,0.135-1.775,0.404-2.561s0.652-1.467,1.148-2.045s1.1-1.031,1.811-1.359
		s1.508-0.492,2.391-0.492c0.898,0,1.705,0.164,2.42,0.492s1.322,0.781,1.822,1.359s0.883,1.26,1.148,2.045s0.398,1.639,0.398,2.561
		v0.258c0,0.922-0.133,1.775-0.398,2.561s-0.648,1.465-1.148,2.039s-1.105,1.023-1.816,1.348s-1.512,0.486-2.402,0.486
		s-1.691-0.162-2.402-0.486s-1.316-0.773-1.816-1.348s-0.885-1.254-1.154-2.039s-0.404-1.639-0.404-2.561V152.579z M358.891,152.836
		c0,0.633,0.074,1.23,0.223,1.793s0.373,1.057,0.674,1.482s0.676,0.764,1.125,1.014s0.975,0.375,1.576,0.375
		c0.594,0,1.117-0.125,1.57-0.375s0.828-0.588,1.125-1.014s0.521-0.92,0.674-1.482s0.229-1.16,0.229-1.793v-0.258
		c0-0.625-0.076-1.221-0.229-1.787s-0.379-1.062-0.68-1.488s-0.678-0.766-1.131-1.02s-0.98-0.381-1.582-0.381
		c-0.594,0-1.113,0.127-1.559,0.381s-0.818,0.594-1.119,1.02s-0.525,0.922-0.674,1.488s-0.223,1.162-0.223,1.787V152.836z"/>
	<path fill="#231F20" d="M378.801,157.782c-0.398,0.469-0.902,0.834-1.512,1.096s-1.344,0.393-2.203,0.393
		c-0.625,0-1.191-0.088-1.699-0.264s-0.945-0.453-1.312-0.832s-0.65-0.867-0.85-1.465s-0.299-1.318-0.299-2.162v-8.191h2.168v8.215
		c0,0.57,0.066,1.041,0.199,1.412s0.309,0.664,0.527,0.879s0.469,0.363,0.75,0.445s0.57,0.123,0.867,0.123
		c0.883,0,1.592-0.168,2.127-0.504s0.928-0.785,1.178-1.348v-9.223h2.168v12.68h-2.062L378.801,157.782z"/>
	<path fill="#231F20" d="M390.332,148.301c-0.188-0.031-0.361-0.053-0.521-0.064s-0.342-0.018-0.545-0.018
		c-0.75,0-1.361,0.164-1.834,0.492s-0.826,0.77-1.061,1.324v9h-2.168v-12.68h2.109l0.035,1.465c0.328-0.523,0.738-0.938,1.23-1.242
		s1.09-0.457,1.793-0.457c0.156,0,0.336,0.018,0.539,0.053s0.344,0.072,0.422,0.111V148.301z"/>
	<path fill="#231F20" d="M397.188,157.5c0.383,0,0.75-0.062,1.102-0.188s0.662-0.297,0.932-0.516s0.488-0.479,0.656-0.779
		s0.268-0.627,0.299-0.979h2.051c-0.031,0.562-0.186,1.1-0.463,1.611s-0.643,0.961-1.096,1.348s-0.979,0.695-1.576,0.926
		s-1.232,0.346-1.904,0.346c-0.953,0-1.783-0.17-2.49-0.51s-1.295-0.799-1.764-1.377s-0.818-1.25-1.049-2.016
		s-0.346-1.574-0.346-2.426v-0.492c0-0.852,0.115-1.66,0.346-2.426s0.58-1.438,1.049-2.016s1.055-1.037,1.758-1.377
		s1.531-0.51,2.484-0.51c0.742,0,1.416,0.117,2.021,0.352s1.129,0.557,1.57,0.967s0.787,0.896,1.037,1.459s0.391,1.168,0.422,1.816
		h-2.051c-0.031-0.391-0.123-0.756-0.275-1.096s-0.357-0.637-0.615-0.891s-0.564-0.455-0.92-0.604s-0.752-0.223-1.189-0.223
		c-0.672,0-1.229,0.133-1.67,0.398s-0.797,0.615-1.066,1.049s-0.459,0.922-0.568,1.465s-0.164,1.088-0.164,1.635v0.492
		c0,0.562,0.055,1.115,0.164,1.658s0.297,1.029,0.562,1.459s0.621,0.777,1.066,1.043S396.508,157.5,397.188,157.5z"/>
	<path fill="#231F20" d="M409.926,159.27c-0.883,0-1.682-0.152-2.396-0.457s-1.326-0.729-1.834-1.271s-0.898-1.189-1.172-1.939
		s-0.41-1.57-0.41-2.461v-0.492c0-1.031,0.154-1.953,0.463-2.766s0.721-1.496,1.236-2.051s1.105-0.979,1.77-1.271
		s1.355-0.439,2.074-0.439c0.906,0,1.688,0.158,2.344,0.475s1.197,0.752,1.623,1.307s0.74,1.211,0.943,1.969
		s0.305,1.582,0.305,2.473v0.973h-8.59c0.016,0.586,0.111,1.133,0.287,1.641s0.426,0.949,0.75,1.324s0.715,0.672,1.172,0.891
		s0.975,0.328,1.553,0.328c0.766,0,1.414-0.156,1.945-0.469s0.996-0.727,1.395-1.242l1.324,1.031
		c-0.203,0.312-0.449,0.615-0.738,0.908s-0.627,0.555-1.014,0.785s-0.83,0.414-1.33,0.551S410.559,159.27,409.926,159.27z
		 M409.656,147.903c-0.438,0-0.84,0.08-1.207,0.24s-0.695,0.393-0.984,0.697s-0.529,0.684-0.721,1.137s-0.322,0.973-0.393,1.559
		h6.352v-0.164c-0.023-0.422-0.092-0.84-0.205-1.254s-0.289-0.785-0.527-1.113s-0.545-0.594-0.92-0.797
		S410.211,147.903,409.656,147.903z"/>
	<path fill="#231F20" d="M422.793,152.59c0-0.969,0.119-1.85,0.357-2.643s0.576-1.473,1.014-2.039s0.963-1.006,1.576-1.318
		s1.299-0.469,2.057-0.469c0.773,0,1.449,0.131,2.027,0.393s1.078,0.639,1.5,1.131v-6.609h2.168v18H431.5l-0.105-1.359
		c-0.422,0.516-0.93,0.91-1.523,1.184s-1.293,0.41-2.098,0.41c-0.742,0-1.42-0.16-2.033-0.48s-1.139-0.768-1.576-1.342
		s-0.775-1.254-1.014-2.039s-0.357-1.643-0.357-2.572V152.59z M424.961,152.836c0,0.633,0.064,1.229,0.193,1.787
		s0.33,1.045,0.604,1.459s0.621,0.742,1.043,0.984s0.926,0.363,1.512,0.363c0.383,0,0.727-0.045,1.031-0.135s0.58-0.217,0.826-0.381
		s0.465-0.359,0.656-0.586s0.357-0.477,0.498-0.75v-5.824c-0.141-0.258-0.305-0.496-0.492-0.715s-0.404-0.408-0.65-0.568
		s-0.521-0.285-0.826-0.375s-0.645-0.135-1.02-0.135c-0.594,0-1.104,0.123-1.529,0.369s-0.775,0.58-1.049,1.002
		s-0.475,0.912-0.604,1.471s-0.193,1.154-0.193,1.787V152.836z"/>
	<path fill="#231F20" d="M444.684,159.036c-0.078-0.156-0.141-0.354-0.188-0.592s-0.086-0.486-0.117-0.744
		c-0.203,0.211-0.432,0.412-0.686,0.604s-0.531,0.359-0.832,0.504s-0.627,0.258-0.979,0.34s-0.723,0.123-1.113,0.123
		c-0.648,0-1.236-0.098-1.764-0.293s-0.977-0.461-1.348-0.797s-0.658-0.732-0.861-1.189s-0.305-0.947-0.305-1.471
		c0-0.68,0.133-1.279,0.398-1.799s0.646-0.955,1.143-1.307s1.096-0.617,1.799-0.797s1.488-0.27,2.355-0.27h2.156v-0.996
		c0-0.758-0.227-1.361-0.68-1.811s-1.121-0.674-2.004-0.674c-0.406,0-0.777,0.055-1.113,0.164s-0.623,0.256-0.861,0.439
		s-0.424,0.396-0.557,0.639s-0.199,0.496-0.199,0.762h-2.18c0-0.453,0.119-0.902,0.357-1.348s0.576-0.846,1.014-1.201
		s0.967-0.645,1.588-0.867s1.314-0.334,2.08-0.334c0.688,0,1.322,0.088,1.904,0.264s1.08,0.441,1.494,0.797s0.738,0.799,0.973,1.33
		s0.352,1.152,0.352,1.863v5.895c0,0.43,0.037,0.881,0.111,1.354s0.186,0.881,0.334,1.225v0.188H444.684z M441.086,157.383
		c0.391,0,0.758-0.055,1.102-0.164s0.656-0.252,0.938-0.428s0.525-0.377,0.732-0.604s0.369-0.461,0.486-0.703v-2.602h-1.805
		c-1.242,0-2.199,0.193-2.871,0.58s-1.008,0.971-1.008,1.752c0,0.305,0.051,0.59,0.152,0.855s0.256,0.494,0.463,0.686
		s0.461,0.344,0.762,0.457S440.688,157.383,441.086,157.383z"/>
	<path fill="#231F20" d="M452.852,143.286v3.07h2.367v1.676h-2.367v7.863c0,0.328,0.039,0.592,0.117,0.791s0.182,0.354,0.311,0.463
		s0.277,0.182,0.445,0.217s0.342,0.053,0.521,0.053s0.369-0.018,0.568-0.053s0.354-0.064,0.463-0.088v1.758
		c-0.172,0.047-0.395,0.098-0.668,0.152s-0.605,0.082-0.996,0.082c-0.398,0-0.775-0.057-1.131-0.17s-0.666-0.303-0.932-0.568
		s-0.477-0.615-0.633-1.049s-0.234-0.967-0.234-1.6v-7.852h-2.309v-1.676h2.309v-3.07H452.852z"/>
	<path fill="#231F20" d="M465.578,159.036c-0.078-0.156-0.141-0.354-0.188-0.592s-0.086-0.486-0.117-0.744
		c-0.203,0.211-0.432,0.412-0.686,0.604s-0.531,0.359-0.832,0.504s-0.627,0.258-0.979,0.34s-0.723,0.123-1.113,0.123
		c-0.648,0-1.236-0.098-1.764-0.293s-0.977-0.461-1.348-0.797s-0.658-0.732-0.861-1.189s-0.305-0.947-0.305-1.471
		c0-0.68,0.133-1.279,0.398-1.799s0.646-0.955,1.143-1.307s1.096-0.617,1.799-0.797s1.488-0.27,2.355-0.27h2.156v-0.996
		c0-0.758-0.227-1.361-0.68-1.811s-1.121-0.674-2.004-0.674c-0.406,0-0.777,0.055-1.113,0.164s-0.623,0.256-0.861,0.439
		s-0.424,0.396-0.557,0.639s-0.199,0.496-0.199,0.762h-2.18c0-0.453,0.119-0.902,0.357-1.348s0.576-0.846,1.014-1.201
		s0.967-0.645,1.588-0.867s1.314-0.334,2.08-0.334c0.688,0,1.322,0.088,1.904,0.264s1.08,0.441,1.494,0.797s0.738,0.799,0.973,1.33
		s0.352,1.152,0.352,1.863v5.895c0,0.43,0.037,0.881,0.111,1.354s0.186,0.881,0.334,1.225v0.188H465.578z M461.98,157.383
		c0.391,0,0.758-0.055,1.102-0.164s0.656-0.252,0.938-0.428s0.525-0.377,0.732-0.604s0.369-0.461,0.486-0.703v-2.602h-1.805
		c-1.242,0-2.199,0.193-2.871,0.58s-1.008,0.971-1.008,1.752c0,0.305,0.051,0.59,0.152,0.855s0.256,0.494,0.463,0.686
		s0.461,0.344,0.762,0.457S461.582,157.383,461.98,157.383z"/>
</g>
<g>
	<rect x="107.717" y="281.196" fill="none" width="365.951" height="53.985"/>
	<path fill="#767676" d="M227.365,291.216c0,1.281-0.162,2.428-0.486,3.439s-0.783,1.873-1.377,2.584s-1.312,1.254-2.156,1.629
		s-1.785,0.562-2.824,0.562c-1.008,0-1.934-0.188-2.777-0.562s-1.57-0.918-2.18-1.629s-1.082-1.572-1.418-2.584
		s-0.504-2.158-0.504-3.439v-1.078c0-1.273,0.168-2.42,0.504-3.439s0.805-1.885,1.406-2.596s1.324-1.256,2.168-1.635
		s1.77-0.568,2.777-0.568c1.039,0,1.982,0.189,2.83,0.568s1.57,0.924,2.168,1.635s1.059,1.576,1.383,2.596s0.486,2.166,0.486,3.439
		V291.216z M225.126,290.114c0-1.016-0.104-1.914-0.311-2.695s-0.51-1.438-0.908-1.969s-0.885-0.934-1.459-1.207
		s-1.225-0.41-1.951-0.41c-0.695,0-1.328,0.137-1.898,0.41s-1.057,0.676-1.459,1.207s-0.713,1.188-0.932,1.969
		s-0.328,1.68-0.328,2.695v1.102c0,1.023,0.111,1.926,0.334,2.707s0.537,1.439,0.943,1.975s0.895,0.939,1.465,1.213
		s1.203,0.41,1.898,0.41c0.734,0,1.387-0.137,1.957-0.41s1.053-0.678,1.447-1.213s0.693-1.193,0.896-1.975s0.305-1.684,0.305-2.707
		V290.114z"/>
	<path fill="#767676" d="M230.74,299.196v-17.062h5.578c0.875,0,1.656,0.088,2.344,0.264s1.271,0.449,1.752,0.82
		s0.848,0.842,1.102,1.412s0.381,1.254,0.381,2.051s-0.227,1.502-0.68,2.115s-1.07,1.088-1.852,1.424
		c0.477,0.133,0.9,0.328,1.271,0.586s0.684,0.562,0.938,0.914s0.447,0.746,0.58,1.184s0.199,0.895,0.199,1.371
		c0,0.797-0.135,1.502-0.404,2.115s-0.65,1.129-1.143,1.547s-1.086,0.732-1.781,0.943s-1.469,0.316-2.32,0.316H230.74z
		 M232.99,289.411h3.398c0.484,0,0.926-0.062,1.324-0.188s0.74-0.305,1.025-0.539s0.506-0.521,0.662-0.861s0.234-0.725,0.234-1.154
		c0-0.938-0.273-1.619-0.82-2.045s-1.379-0.639-2.496-0.639h-3.328V289.411z M232.99,291.216v6.141h3.715
		c0.539,0,1.018-0.072,1.436-0.217s0.771-0.348,1.061-0.609s0.51-0.582,0.662-0.961s0.229-0.803,0.229-1.271
		s-0.062-0.895-0.188-1.277s-0.322-0.707-0.592-0.973s-0.611-0.471-1.025-0.615s-0.906-0.217-1.477-0.217H232.99z"/>
	<path fill="#767676" d="M254.775,294.884c0-0.398-0.061-0.75-0.182-1.055s-0.336-0.584-0.645-0.838s-0.725-0.492-1.248-0.715
		s-1.188-0.451-1.992-0.686c-0.844-0.242-1.607-0.518-2.291-0.826s-1.266-0.664-1.746-1.066s-0.85-0.861-1.107-1.377
		s-0.387-1.105-0.387-1.77s0.139-1.279,0.416-1.846s0.67-1.059,1.178-1.477s1.117-0.744,1.828-0.979s1.504-0.352,2.379-0.352
		c0.961,0,1.816,0.145,2.566,0.434s1.381,0.672,1.893,1.148s0.9,1.027,1.166,1.652s0.398,1.27,0.398,1.934h-2.262
		c0-0.477-0.076-0.918-0.229-1.324s-0.385-0.758-0.697-1.055s-0.703-0.527-1.172-0.691s-1.023-0.246-1.664-0.246
		c-0.602,0-1.125,0.07-1.57,0.211s-0.812,0.334-1.102,0.58s-0.504,0.537-0.645,0.873s-0.211,0.703-0.211,1.102
		c0,0.359,0.076,0.688,0.229,0.984s0.389,0.57,0.709,0.82s0.732,0.48,1.236,0.691s1.107,0.414,1.811,0.609
		c0.969,0.273,1.805,0.576,2.508,0.908s1.283,0.709,1.74,1.131s0.797,0.895,1.02,1.418s0.334,1.117,0.334,1.781
		c0,0.695-0.141,1.324-0.422,1.887s-0.682,1.043-1.201,1.441s-1.145,0.705-1.875,0.92s-1.545,0.322-2.443,0.322
		c-0.523,0-1.047-0.049-1.57-0.146s-1.025-0.244-1.506-0.439s-0.926-0.438-1.336-0.727s-0.768-0.625-1.072-1.008
		s-0.543-0.812-0.715-1.289s-0.258-1-0.258-1.57h2.262c0,0.586,0.115,1.088,0.346,1.506s0.539,0.764,0.926,1.037
		s0.832,0.475,1.336,0.604s1.033,0.193,1.588,0.193c1.188,0,2.098-0.242,2.73-0.727S254.775,295.72,254.775,294.884z"/>
	<path fill="#767676" d="M269.564,291.31h-7.395v6.047h8.59v1.84h-10.84v-17.062h10.723v1.852h-8.473v5.484h7.395V291.31z"/>
	<path fill="#767676" d="M279.818,292.294h-4.008v6.902h-2.262v-17.062h5.648c1.922,0,3.4,0.438,4.436,1.312s1.553,2.148,1.553,3.82
		c0,1.062-0.287,1.988-0.861,2.777s-1.373,1.379-2.396,1.77l4.008,7.242v0.141h-2.414L279.818,292.294z M275.81,290.454h3.457
		c0.609,0,1.143-0.084,1.6-0.252s0.838-0.395,1.143-0.68s0.533-0.621,0.686-1.008s0.229-0.803,0.229-1.248
		c0-0.492-0.072-0.939-0.217-1.342s-0.369-0.748-0.674-1.037s-0.691-0.512-1.16-0.668s-1.027-0.234-1.676-0.234h-3.387V290.454z"/>
	<path fill="#767676" d="M293.763,296.208l4.875-14.074h2.461l-6.328,17.062h-1.992l-6.316-17.062h2.449L293.763,296.208z"/>
	<path fill="#767676" d="M311.927,294.743h-7.148l-1.605,4.453h-2.32l6.516-17.062h1.969l6.527,17.062h-2.309L311.927,294.743z
		 M305.458,292.892h5.801l-2.906-7.98L305.458,292.892z"/>
	<path fill="#767676" d="M328.439,283.985h-5.484v15.211h-2.238v-15.211h-5.473v-1.852h13.195V283.985z"/>
	<path fill="#767676" d="M333.384,299.196h-2.25v-17.062h2.25V299.196z"/>
	<path fill="#767676" d="M350.623,291.216c0,1.281-0.162,2.428-0.486,3.439s-0.783,1.873-1.377,2.584s-1.312,1.254-2.156,1.629
		s-1.785,0.562-2.824,0.562c-1.008,0-1.934-0.188-2.777-0.562s-1.57-0.918-2.18-1.629s-1.082-1.572-1.418-2.584
		s-0.504-2.158-0.504-3.439v-1.078c0-1.273,0.168-2.42,0.504-3.439s0.805-1.885,1.406-2.596s1.324-1.256,2.168-1.635
		s1.77-0.568,2.777-0.568c1.039,0,1.982,0.189,2.83,0.568s1.57,0.924,2.168,1.635s1.059,1.576,1.383,2.596s0.486,2.166,0.486,3.439
		V291.216z M348.384,290.114c0-1.016-0.104-1.914-0.311-2.695s-0.51-1.438-0.908-1.969s-0.885-0.934-1.459-1.207
		s-1.225-0.41-1.951-0.41c-0.695,0-1.328,0.137-1.898,0.41s-1.057,0.676-1.459,1.207s-0.713,1.188-0.932,1.969
		s-0.328,1.68-0.328,2.695v1.102c0,1.023,0.111,1.926,0.334,2.707s0.537,1.439,0.943,1.975s0.895,0.939,1.465,1.213
		s1.203,0.41,1.898,0.41c0.734,0,1.387-0.137,1.957-0.41s1.053-0.678,1.447-1.213s0.693-1.193,0.896-1.975s0.305-1.684,0.305-2.707
		V290.114z"/>
	<path fill="#767676" d="M367.111,299.196h-2.262l-8.59-13.148v13.148h-2.262v-17.062h2.262l8.613,13.207v-13.207h2.238V299.196z"/>
	<path fill="#767676" d="M237.865,322.582c-0.094,0.805-0.291,1.553-0.592,2.244s-0.717,1.289-1.248,1.793s-1.18,0.898-1.945,1.184
		s-1.66,0.428-2.684,0.428c-1.008,0-1.922-0.188-2.742-0.562s-1.521-0.908-2.104-1.6s-1.031-1.521-1.348-2.49
		s-0.475-2.051-0.475-3.246v-1.711c0-1.195,0.16-2.279,0.48-3.252s0.777-1.805,1.371-2.496s1.314-1.227,2.162-1.605
		s1.799-0.568,2.854-0.568c0.961,0,1.812,0.141,2.555,0.422s1.373,0.674,1.893,1.178s0.932,1.105,1.236,1.805s0.5,1.471,0.586,2.314
		h-2.262c-0.086-0.594-0.219-1.129-0.398-1.605s-0.428-0.883-0.744-1.219s-0.709-0.594-1.178-0.773s-1.031-0.27-1.688-0.27
		c-0.758,0-1.424,0.146-1.998,0.439s-1.055,0.703-1.441,1.23s-0.678,1.164-0.873,1.91s-0.293,1.568-0.293,2.467v1.734
		c0,0.836,0.088,1.621,0.264,2.355s0.443,1.377,0.803,1.928s0.816,0.984,1.371,1.301s1.211,0.475,1.969,0.475
		c0.719,0,1.324-0.086,1.816-0.258s0.9-0.42,1.225-0.744s0.576-0.723,0.756-1.195s0.316-1.01,0.41-1.611H237.865z"/>
	<path fill="#767676" d="M254.06,320.016c0,1.281-0.162,2.428-0.486,3.439s-0.783,1.873-1.377,2.584s-1.312,1.254-2.156,1.629
		s-1.785,0.562-2.824,0.562c-1.008,0-1.934-0.188-2.777-0.562s-1.57-0.918-2.18-1.629s-1.082-1.572-1.418-2.584
		s-0.504-2.158-0.504-3.439v-1.078c0-1.273,0.168-2.42,0.504-3.439s0.805-1.885,1.406-2.596s1.324-1.256,2.168-1.635
		s1.77-0.568,2.777-0.568c1.039,0,1.982,0.189,2.83,0.568s1.57,0.924,2.168,1.635s1.059,1.576,1.383,2.596s0.486,2.166,0.486,3.439
		V320.016z M251.822,318.914c0-1.016-0.104-1.914-0.311-2.695s-0.51-1.438-0.908-1.969s-0.885-0.934-1.459-1.207
		s-1.225-0.41-1.951-0.41c-0.695,0-1.328,0.137-1.898,0.41s-1.057,0.676-1.459,1.207s-0.713,1.188-0.932,1.969
		s-0.328,1.68-0.328,2.695v1.102c0,1.023,0.111,1.926,0.334,2.707s0.537,1.439,0.943,1.975s0.895,0.939,1.465,1.213
		s1.203,0.41,1.898,0.41c0.734,0,1.387-0.137,1.957-0.41s1.053-0.678,1.447-1.213s0.693-1.193,0.896-1.975s0.305-1.684,0.305-2.707
		V318.914z"/>
	<path fill="#767676" d="M270.548,327.996h-2.262l-8.59-13.148v13.148h-2.262v-17.062h2.262l8.613,13.207v-13.207h2.238V327.996z"/>
	<path fill="#767676" d="M280.193,325.008l4.875-14.074h2.461l-6.328,17.062h-1.992l-6.316-17.062h2.449L280.193,325.008z"/>
	<path fill="#767676" d="M299.458,320.109h-7.395v6.047h8.59v1.84h-10.84v-17.062h10.723v1.852h-8.473v5.484h7.395V320.109z"/>
	<path fill="#767676" d="M309.712,321.094h-4.008v6.902h-2.262v-17.062h5.648c1.922,0,3.4,0.438,4.436,1.312s1.553,2.148,1.553,3.82
		c0,1.062-0.287,1.988-0.861,2.777s-1.373,1.379-2.396,1.77l4.008,7.242v0.141h-2.414L309.712,321.094z M305.705,319.254h3.457
		c0.609,0,1.143-0.084,1.6-0.252s0.838-0.395,1.143-0.68s0.533-0.621,0.686-1.008s0.229-0.803,0.229-1.248
		c0-0.492-0.072-0.939-0.217-1.342s-0.369-0.748-0.674-1.037s-0.691-0.512-1.16-0.668s-1.027-0.234-1.676-0.234h-3.387V319.254z"/>
	<path fill="#767676" d="M329.083,312.785h-5.484v15.211h-2.238v-15.211h-5.473v-1.852h13.195V312.785z"/>
	<path fill="#767676" d="M341.259,320.109h-7.395v6.047h8.59v1.84h-10.84v-17.062h10.723v1.852h-8.473v5.484h7.395V320.109z"/>
	<path fill="#767676" d="M351.513,321.094h-4.008v6.902h-2.262v-17.062h5.648c1.922,0,3.4,0.438,4.436,1.312s1.553,2.148,1.553,3.82
		c0,1.062-0.287,1.988-0.861,2.777s-1.373,1.379-2.396,1.77l4.008,7.242v0.141h-2.414L351.513,321.094z M347.505,319.254h3.457
		c0.609,0,1.143-0.084,1.6-0.252s0.838-0.395,1.143-0.68s0.533-0.621,0.686-1.008s0.229-0.803,0.229-1.248
		c0-0.492-0.072-0.939-0.217-1.342s-0.369-0.748-0.674-1.037s-0.691-0.512-1.16-0.668s-1.027-0.234-1.676-0.234h-3.387V319.254z"/>
</g>
<g>
	<g>
		<path fill="none" stroke="#767676" stroke-width="3.207" stroke-miterlimit="10" d="M365.59,227.311
			c0,0.001,31.736,67.152,79.072,85.601"/>
		<g>
			<path fill="#767676" d="M453.896,315.814c-4.853,0.211-11.114,1.222-15.385,3.053l4.965-6.412l-0.286-8.103
				C445.587,308.333,450.08,312.811,453.896,315.814z"/>
		</g>
	</g>
</g>
<g>
	<g>
		<path fill="none" stroke="#767676" stroke-width="3.207" stroke-miterlimit="10" d="M412.557,246.365
			c0,0,21.402,34.872,47.785,52.041"/>
		<g>
			<path fill="#767676" d="M468.76,303.15c-4.788-0.817-11.122-1.15-15.683-0.26l6.206-5.221l1.429-7.981
				C462.215,294.085,465.663,299.409,468.76,303.15z"/>
		</g>
	</g>
</g>
<polygon fill="#FFFFFF" stroke="#231F20" stroke-width="3.207" stroke-miterlimit="10" points="758.79,345.182 611.802,345.182 
	708.013,267.143 855,267.143 "/>
<g>
	<ellipse fill="#7E03A8" cx="681.394" cy="325.512" rx="16.298" ry="6.35"/>
	
		<ellipse fill="none" stroke="#000000" stroke-width="0.8467" stroke-linecap="round" stroke-miterlimit="10" stroke-dasharray="2.4862,1.6575" cx="681.394" cy="325.512" rx="16.298" ry="6.35"/>
</g>
<g>
	<ellipse fill="#CC4778" cx="754.515" cy="312.361" rx="15.483" ry="6.033"/>
	
		<ellipse fill="none" stroke="#000000" stroke-width="0.8467" stroke-linecap="round" stroke-miterlimit="10" stroke-dasharray="2.5009,1.6672" cx="754.515" cy="312.361" rx="15.483" ry="6.033"/>
</g>
<g>
	<ellipse fill="#F2844B" cx="736.555" cy="283.178" rx="14.709" ry="5.731"/>
	
		<ellipse fill="none" stroke="#000000" stroke-width="0.8467" stroke-linecap="round" stroke-miterlimit="10" stroke-dasharray="2.5243,1.6829" cx="736.555" cy="283.178" rx="14.709" ry="5.731"/>
</g>
<polygon fill="#FFFFFF" stroke="#231F20" stroke-width="3.207" stroke-miterlimit="10" points="938.79,345.182 791.802,345.182 
	888.013,267.143 1035,267.143 "/>
<g>
	<ellipse fill="#7E03A8" cx="861.394" cy="325.512" rx="16.298" ry="6.35"/>
	
		<ellipse fill="none" stroke="#000000" stroke-width="0.8467" stroke-linecap="round" stroke-miterlimit="10" stroke-dasharray="2.4862,1.6575" cx="861.394" cy="325.512" rx="16.298" ry="6.35"/>
</g>
<g>
	<ellipse fill="#CC4778" cx="934.514" cy="312.361" rx="15.483" ry="6.033"/>
	
		<ellipse fill="none" stroke="#000000" stroke-width="0.8467" stroke-linecap="round" stroke-miterlimit="10" stroke-dasharray="2.5008,1.6672" cx="934.514" cy="312.361" rx="15.483" ry="6.033"/>
</g>
<g>
	<ellipse fill="#F2844B" cx="916.555" cy="283.178" rx="14.709" ry="5.731"/>
	
		<ellipse fill="none" stroke="#000000" stroke-width="0.8467" stroke-linecap="round" stroke-miterlimit="10" stroke-dasharray="2.5243,1.6829" cx="916.555" cy="283.178" rx="14.709" ry="5.731"/>
</g>
<polygon fill="#FFFFFF" stroke="#231F20" stroke-width="3.207" stroke-miterlimit="10" points="1118.79,345.182 971.802,345.182 
	1068.013,267.143 1215,267.143 "/>
<g>
	<ellipse fill="#5601A4" cx="1114.514" cy="312.361" rx="15.483" ry="6.033"/>
	
		<ellipse fill="none" stroke="#000000" stroke-width="0.8467" stroke-linecap="round" stroke-miterlimit="10" stroke-dasharray="2.5008,1.6672" cx="1114.514" cy="312.361" rx="15.483" ry="6.033"/>
</g>
<g>
	<ellipse fill="#7E03A8" cx="1096.555" cy="283.178" rx="14.709" ry="5.731"/>
	
		<ellipse fill="none" stroke="#000000" stroke-width="0.8467" stroke-linecap="round" stroke-miterlimit="10" stroke-dasharray="2.5243,1.6829" cx="1096.555" cy="283.178" rx="14.709" ry="5.731"/>
</g>
<g>
	<g>
		<path fill="none" stroke="#767676" stroke-width="3.207" stroke-miterlimit="10" d="M413.991,204.613
			c0,0.001,48.361,31.743,65.428,78.765"/>
		<g>
			<path fill="#767676" d="M482.297,292.617c-2.987-3.83-7.443-8.344-11.413-10.759l8.103,0.324l6.434-4.935
				C483.569,281.509,482.53,287.767,482.297,292.617z"/>
		</g>
	</g>
</g>
<ellipse fill="#CC4778" stroke="#000000" stroke-width="2.1166" stroke-miterlimit="10" cx="358.885" cy="203.098" rx="16.298" ry="6.35"/>
<g>
	<ellipse fill="#BF3984" cx="696.555" cy="303.678" rx="15.15" ry="5.904"/>
	
		<ellipse fill="none" stroke="#000000" stroke-width="0.847" stroke-linecap="round" stroke-miterlimit="10" stroke-dasharray="2.6001,1.7334" cx="696.555" cy="303.678" rx="15.15" ry="5.904"/>
</g>
<g>
	<ellipse fill="#EB7456" cx="953.555" cy="294.678" rx="15" ry="5.846"/>
	
		<ellipse fill="none" stroke="#000000" stroke-width="0.847" stroke-linecap="round" stroke-miterlimit="10" stroke-dasharray="2.5743,1.7162" cx="953.555" cy="294.678" rx="15" ry="5.846"/>
</g>
<g>
	<ellipse fill="#CC4778" cx="1170.555" cy="278.678" rx="14.55" ry="5.67"/>
	
		<ellipse fill="none" stroke="#000000" stroke-width="0.847" stroke-linecap="round" stroke-miterlimit="10" stroke-dasharray="2.497,1.6647" cx="1170.555" cy="278.678" rx="14.55" ry="5.67"/>
</g>
<ellipse fill="#0C0787" stroke="#000000" stroke-width="2.1166" stroke-miterlimit="10" cx="400.387" cy="234.213" rx="16.298" ry="6.35"/>
<ellipse fill="#6A00A8" stroke="#000000" stroke-width="2.1166" stroke-miterlimit="10" cx="400.387" cy="227.799" rx="16.298" ry="6.35"/>
<ellipse fill="#BF3984" stroke="#000000" stroke-width="2.1166" stroke-miterlimit="10" cx="400.387" cy="221.385" rx="16.298" ry="6.35"/>
<ellipse fill="#EB7456" stroke="#000000" stroke-width="2.1166" stroke-miterlimit="10" cx="400.387" cy="214.971" rx="16.298" ry="6.35"/>
<g>
	<g>
		<path fill="none" stroke="#767676" stroke-width="3.207" stroke-miterlimit="10" d="M458.991,213.113
			c0,0.001,28.58,9.954,37.812,58.441"/>
		<g>
			<path fill="#767676" d="M498.297,281.117c-2.389-4.229-6.13-9.352-9.7-12.326l7.967,1.517l7.092-3.931
				C501.195,270.318,499.243,276.354,498.297,281.117z"/>
		</g>
	</g>
</g>
</svg>
