<?xml version="1.0" encoding="utf-8"?>
<!-- Generator: Adobe Illustrator 15.1.0, SVG Export Plug-In . SVG Version: 6.00 Build 0)  -->
<!DOCTYPE svg PUBLIC "-//W3C//DTD SVG 1.1//EN" "http://www.w3.org/Graphics/SVG/1.1/DTD/svg11.dtd">
<svg version="1.1" id="Layer_2" xmlns="http://www.w3.org/2000/svg" xmlns:xlink="http://www.w3.org/1999/xlink" x="0px" y="0px"
	 width="1400px" height="145.5px" viewBox="0 165 1400 145.5" enable-background="new 0 165 1400 145.5" xml:space="preserve">
<g enable-background="new    ">
	<path d="M883.752,183.286h-2.25v-17.062h2.25V183.286z"/>
	<path d="M889.576,170.606l0.07,1.594c0.453-0.57,1-1.018,1.641-1.342s1.359-0.486,2.156-0.486c0.617,0,1.176,0.084,1.676,0.252
		s0.926,0.438,1.277,0.809s0.623,0.848,0.814,1.43s0.287,1.287,0.287,2.115v8.309h-2.168v-8.332c0-0.492-0.055-0.912-0.164-1.26
		s-0.271-0.631-0.486-0.85s-0.48-0.379-0.797-0.48s-0.682-0.152-1.096-0.152c-0.703,0-1.32,0.188-1.852,0.562
		s-0.945,0.867-1.242,1.477v9.035h-2.168v-12.68H889.576z"/>
	<path d="M900.779,167.243c0-0.352,0.107-0.648,0.322-0.891s0.533-0.363,0.955-0.363s0.742,0.121,0.961,0.363
		s0.328,0.539,0.328,0.891s-0.109,0.645-0.328,0.879s-0.539,0.352-0.961,0.352s-0.74-0.117-0.955-0.352
		S900.779,167.595,900.779,167.243z M903.123,183.286h-2.168v-12.68h2.168V183.286z"/>
	<path d="M909.533,167.536v3.07h2.367v1.676h-2.367v7.863c0,0.328,0.039,0.592,0.117,0.791s0.182,0.354,0.311,0.463
		s0.277,0.182,0.445,0.217s0.342,0.053,0.521,0.053s0.369-0.018,0.568-0.053s0.354-0.064,0.463-0.088v1.758
		c-0.172,0.047-0.395,0.098-0.668,0.152s-0.605,0.082-0.996,0.082c-0.398,0-0.775-0.057-1.131-0.17s-0.666-0.303-0.932-0.568
		s-0.477-0.615-0.633-1.049s-0.234-0.967-0.234-1.6v-7.852h-2.309v-1.676h2.309v-3.07H909.533z"/>
	<path d="M914.443,167.243c0-0.352,0.107-0.648,0.322-0.891s0.533-0.363,0.955-0.363s0.742,0.121,0.961,0.363
		s0.328,0.539,0.328,0.891s-0.109,0.645-0.328,0.879s-0.539,0.352-0.961,0.352s-0.74-0.117-0.955-0.352
		S914.443,167.595,914.443,167.243z M916.787,183.286h-2.168v-12.68h2.168V183.286z"/>
	<path d="M928.084,183.286c-0.078-0.156-0.141-0.354-0.188-0.592s-0.086-0.486-0.117-0.744c-0.203,0.211-0.432,0.412-0.686,0.604
		s-0.531,0.359-0.832,0.504s-0.627,0.258-0.979,0.34s-0.723,0.123-1.113,0.123c-0.648,0-1.236-0.098-1.764-0.293
		s-0.977-0.461-1.348-0.797s-0.658-0.732-0.861-1.189s-0.305-0.947-0.305-1.471c0-0.68,0.133-1.279,0.398-1.799
		s0.646-0.955,1.143-1.307s1.096-0.617,1.799-0.797s1.488-0.27,2.355-0.27h2.156v-0.996c0-0.758-0.227-1.361-0.68-1.811
		s-1.121-0.674-2.004-0.674c-0.406,0-0.777,0.055-1.113,0.164s-0.623,0.256-0.861,0.439s-0.424,0.396-0.557,0.639
		s-0.199,0.496-0.199,0.762h-2.18c0-0.453,0.119-0.902,0.357-1.348s0.576-0.846,1.014-1.201s0.967-0.645,1.588-0.867
		s1.314-0.334,2.08-0.334c0.688,0,1.322,0.088,1.904,0.264s1.08,0.441,1.494,0.797s0.738,0.799,0.973,1.33s0.352,1.152,0.352,1.863
		v5.895c0,0.43,0.037,0.881,0.111,1.354s0.186,0.881,0.334,1.225v0.188H928.084z M924.486,181.634c0.391,0,0.758-0.055,1.102-0.164
		s0.656-0.252,0.938-0.428s0.525-0.377,0.732-0.604s0.369-0.461,0.486-0.703v-2.602h-1.805c-1.242,0-2.199,0.193-2.871,0.58
		s-1.008,0.971-1.008,1.752c0,0.305,0.051,0.59,0.152,0.855s0.256,0.494,0.463,0.686s0.461,0.344,0.762,0.457
		S924.088,181.634,924.486,181.634z"/>
	<path d="M935.666,183.286h-2.168v-18h2.168V183.286z"/>
	<path d="M950.338,183.521c-0.883,0-1.682-0.152-2.396-0.457s-1.326-0.729-1.834-1.271s-0.898-1.189-1.172-1.939
		s-0.41-1.57-0.41-2.461v-0.492c0-1.031,0.154-1.953,0.463-2.766s0.721-1.496,1.236-2.051s1.105-0.979,1.77-1.271
		s1.355-0.439,2.074-0.439c0.906,0,1.688,0.158,2.344,0.475s1.197,0.752,1.623,1.307s0.74,1.211,0.943,1.969
		s0.305,1.582,0.305,2.473v0.973h-8.59c0.016,0.586,0.111,1.133,0.287,1.641s0.426,0.949,0.75,1.324s0.715,0.672,1.172,0.891
		s0.975,0.328,1.553,0.328c0.766,0,1.414-0.156,1.945-0.469s0.996-0.727,1.395-1.242l1.324,1.031
		c-0.203,0.312-0.449,0.615-0.738,0.908s-0.627,0.555-1.014,0.785s-0.83,0.414-1.33,0.551S950.971,183.521,950.338,183.521z
		 M950.068,172.153c-0.438,0-0.84,0.08-1.207,0.24s-0.695,0.393-0.984,0.697s-0.529,0.684-0.721,1.137s-0.322,0.973-0.393,1.559
		h6.352v-0.164c-0.023-0.422-0.092-0.84-0.205-1.254s-0.289-0.785-0.527-1.113s-0.545-0.594-0.92-0.797
		S950.623,172.153,950.068,172.153z"/>
	<path d="M959.842,170.606l0.07,1.594c0.453-0.57,1-1.018,1.641-1.342s1.359-0.486,2.156-0.486c0.617,0,1.176,0.084,1.676,0.252
		s0.926,0.438,1.277,0.809s0.623,0.848,0.814,1.43s0.287,1.287,0.287,2.115v8.309h-2.168v-8.332c0-0.492-0.055-0.912-0.164-1.26
		s-0.271-0.631-0.486-0.85s-0.48-0.379-0.797-0.48s-0.682-0.152-1.096-0.152c-0.703,0-1.32,0.188-1.852,0.562
		s-0.945,0.867-1.242,1.477v9.035h-2.168v-12.68H959.842z"/>
	<path d="M978.416,179.923c0-0.234-0.035-0.455-0.105-0.662s-0.209-0.402-0.416-0.586s-0.502-0.354-0.885-0.51
		s-0.887-0.301-1.512-0.434c-0.703-0.148-1.336-0.324-1.898-0.527s-1.041-0.447-1.436-0.732s-0.697-0.623-0.908-1.014
		s-0.316-0.848-0.316-1.371c0-0.5,0.111-0.975,0.334-1.424s0.537-0.844,0.943-1.184s0.898-0.609,1.477-0.809
		s1.223-0.299,1.934-0.299c0.758,0,1.436,0.104,2.033,0.311s1.105,0.49,1.523,0.85s0.736,0.779,0.955,1.26s0.328,0.994,0.328,1.541
		h-2.18c0-0.258-0.059-0.518-0.176-0.779s-0.289-0.496-0.516-0.703s-0.504-0.375-0.832-0.504s-0.707-0.193-1.137-0.193
		c-0.453,0-0.838,0.053-1.154,0.158s-0.576,0.246-0.779,0.422s-0.352,0.375-0.445,0.598s-0.141,0.451-0.141,0.686
		s0.039,0.445,0.117,0.633s0.227,0.357,0.445,0.51s0.518,0.293,0.896,0.422s0.869,0.26,1.471,0.393
		c0.773,0.18,1.445,0.383,2.016,0.609s1.043,0.49,1.418,0.791s0.654,0.646,0.838,1.037s0.275,0.844,0.275,1.359
		c0,0.555-0.115,1.062-0.346,1.523s-0.561,0.855-0.99,1.184s-0.945,0.584-1.547,0.768s-1.27,0.275-2.004,0.275
		c-0.844,0-1.588-0.117-2.232-0.352s-1.186-0.545-1.623-0.932s-0.77-0.828-0.996-1.324s-0.34-1.006-0.34-1.529h2.168
		c0.023,0.445,0.131,0.818,0.322,1.119s0.432,0.545,0.721,0.732s0.605,0.32,0.949,0.398s0.688,0.117,1.031,0.117
		c0.445,0,0.836-0.047,1.172-0.141s0.619-0.223,0.85-0.387s0.404-0.357,0.521-0.58S978.416,180.181,978.416,179.923z"/>
	<path d="M988.67,183.521c-0.883,0-1.682-0.152-2.396-0.457s-1.326-0.729-1.834-1.271s-0.898-1.189-1.172-1.939
		s-0.41-1.57-0.41-2.461v-0.492c0-1.031,0.154-1.953,0.463-2.766s0.721-1.496,1.236-2.051s1.105-0.979,1.77-1.271
		s1.355-0.439,2.074-0.439c0.906,0,1.688,0.158,2.344,0.475s1.197,0.752,1.623,1.307s0.74,1.211,0.943,1.969
		s0.305,1.582,0.305,2.473v0.973h-8.59c0.016,0.586,0.111,1.133,0.287,1.641s0.426,0.949,0.75,1.324s0.715,0.672,1.172,0.891
		s0.975,0.328,1.553,0.328c0.766,0,1.414-0.156,1.945-0.469s0.996-0.727,1.395-1.242l1.324,1.031
		c-0.203,0.312-0.449,0.615-0.738,0.908s-0.627,0.555-1.014,0.785s-0.83,0.414-1.33,0.551S989.303,183.521,988.67,183.521z
		 M988.4,172.153c-0.438,0-0.84,0.08-1.207,0.24s-0.695,0.393-0.984,0.697s-0.529,0.684-0.721,1.137s-0.322,0.973-0.393,1.559h6.352
		v-0.164c-0.023-0.422-0.092-0.84-0.205-1.254s-0.289-0.785-0.527-1.113s-0.545-0.594-0.92-0.797S988.955,172.153,988.4,172.153z"/>
	<path d="M998.162,170.606l0.059,1.406c0.438-0.516,0.967-0.918,1.588-1.207s1.346-0.434,2.174-0.434
		c0.82,0,1.545,0.162,2.174,0.486s1.111,0.842,1.447,1.553c0.422-0.609,0.971-1.102,1.646-1.477s1.475-0.562,2.396-0.562
		c0.68,0,1.281,0.088,1.805,0.264s0.967,0.451,1.33,0.826s0.639,0.852,0.826,1.43s0.281,1.266,0.281,2.062v8.332h-2.168v-8.344
		c0-0.531-0.064-0.973-0.193-1.324s-0.311-0.633-0.545-0.844s-0.52-0.357-0.855-0.439s-0.707-0.123-1.113-0.123
		c-0.445,0-0.84,0.07-1.184,0.211s-0.639,0.33-0.885,0.568s-0.441,0.52-0.586,0.844s-0.236,0.67-0.275,1.037v8.414h-2.18v-8.332
		c0-0.492-0.064-0.912-0.193-1.26s-0.311-0.631-0.545-0.85s-0.518-0.379-0.85-0.48s-0.705-0.152-1.119-0.152
		c-0.773,0-1.395,0.168-1.863,0.504s-0.82,0.773-1.055,1.312v9.258h-2.168v-12.68H998.162z"/>
	<path d="M1027.893,177.087c0,0.93-0.109,1.787-0.328,2.572s-0.539,1.465-0.961,2.039s-0.938,1.021-1.547,1.342
		s-1.305,0.48-2.086,0.48c-0.836,0-1.559-0.146-2.168-0.439s-1.125-0.713-1.547-1.26l-0.105,1.465h-1.992v-18h2.168v6.715
		c0.422-0.523,0.93-0.926,1.523-1.207s1.293-0.422,2.098-0.422c0.797,0,1.502,0.156,2.115,0.469s1.129,0.752,1.547,1.318
		s0.736,1.246,0.955,2.039s0.328,1.674,0.328,2.643V177.087z M1025.725,176.841c0-0.633-0.059-1.229-0.176-1.787
		s-0.307-1.049-0.568-1.471s-0.604-0.756-1.025-1.002s-0.938-0.369-1.547-0.369c-0.398,0-0.758,0.051-1.078,0.152
		s-0.607,0.242-0.861,0.422s-0.475,0.391-0.662,0.633s-0.348,0.504-0.48,0.785v5.484c0.141,0.281,0.307,0.543,0.498,0.785
		s0.414,0.453,0.668,0.633s0.541,0.32,0.861,0.422s0.68,0.152,1.078,0.152c0.586,0,1.086-0.121,1.5-0.363s0.754-0.57,1.02-0.984
		s0.461-0.9,0.586-1.459s0.188-1.154,0.188-1.787V176.841z"/>
	<path d="M1032.979,183.286h-2.168v-18h2.168V183.286z"/>
	<path d="M1041.709,183.521c-0.883,0-1.682-0.152-2.396-0.457s-1.326-0.729-1.834-1.271s-0.898-1.189-1.172-1.939
		s-0.41-1.57-0.41-2.461v-0.492c0-1.031,0.154-1.953,0.463-2.766s0.721-1.496,1.236-2.051s1.105-0.979,1.77-1.271
		s1.355-0.439,2.074-0.439c0.906,0,1.688,0.158,2.344,0.475s1.197,0.752,1.623,1.307s0.74,1.211,0.943,1.969
		s0.305,1.582,0.305,2.473v0.973h-8.59c0.016,0.586,0.111,1.133,0.287,1.641s0.426,0.949,0.75,1.324s0.715,0.672,1.172,0.891
		s0.975,0.328,1.553,0.328c0.766,0,1.414-0.156,1.945-0.469s0.996-0.727,1.395-1.242l1.324,1.031
		c-0.203,0.312-0.449,0.615-0.738,0.908s-0.627,0.555-1.014,0.785s-0.83,0.414-1.33,0.551S1042.342,183.521,1041.709,183.521z
		 M1041.439,172.153c-0.438,0-0.84,0.08-1.207,0.24s-0.695,0.393-0.984,0.697s-0.529,0.684-0.721,1.137s-0.322,0.973-0.393,1.559
		h6.352v-0.164c-0.023-0.422-0.092-0.84-0.205-1.254s-0.289-0.785-0.527-1.113s-0.545-0.594-0.92-0.797
		S1041.994,172.153,1041.439,172.153z"/>
</g>
<g enable-background="new    ">
	<path d="M437.431,178.974c0-0.398-0.061-0.75-0.182-1.055s-0.336-0.584-0.645-0.838s-0.725-0.492-1.248-0.715
		s-1.188-0.451-1.992-0.686c-0.844-0.242-1.607-0.518-2.291-0.826s-1.266-0.664-1.746-1.066s-0.85-0.861-1.107-1.377
		s-0.387-1.105-0.387-1.77s0.139-1.279,0.416-1.846s0.67-1.059,1.178-1.477s1.117-0.744,1.828-0.979s1.504-0.352,2.379-0.352
		c0.961,0,1.816,0.145,2.566,0.434s1.381,0.672,1.893,1.148s0.9,1.027,1.166,1.652s0.398,1.27,0.398,1.934h-2.262
		c0-0.477-0.076-0.918-0.229-1.324s-0.385-0.758-0.697-1.055s-0.703-0.527-1.172-0.691s-1.023-0.246-1.664-0.246
		c-0.602,0-1.125,0.07-1.57,0.211s-0.812,0.334-1.102,0.58s-0.504,0.537-0.645,0.873s-0.211,0.703-0.211,1.102
		c0,0.359,0.076,0.688,0.229,0.984s0.389,0.57,0.709,0.82s0.732,0.48,1.236,0.691s1.107,0.414,1.811,0.609
		c0.969,0.273,1.805,0.576,2.508,0.908s1.283,0.709,1.74,1.131s0.797,0.895,1.02,1.418s0.334,1.117,0.334,1.781
		c0,0.695-0.141,1.324-0.422,1.887s-0.682,1.043-1.201,1.441s-1.145,0.705-1.875,0.92s-1.545,0.322-2.443,0.322
		c-0.523,0-1.047-0.049-1.57-0.146s-1.025-0.244-1.506-0.439s-0.926-0.438-1.336-0.727s-0.768-0.625-1.072-1.008
		s-0.543-0.812-0.715-1.289s-0.258-1-0.258-1.57h2.262c0,0.586,0.115,1.088,0.346,1.506s0.539,0.764,0.926,1.037
		s0.832,0.475,1.336,0.604s1.033,0.193,1.588,0.193c1.188,0,2.098-0.242,2.73-0.727S437.431,179.81,437.431,178.974z"/>
	<path d="M442.248,167.243c0-0.352,0.107-0.648,0.322-0.891s0.533-0.363,0.955-0.363s0.742,0.121,0.961,0.363
		s0.328,0.539,0.328,0.891s-0.109,0.645-0.328,0.879s-0.539,0.352-0.961,0.352s-0.74-0.117-0.955-0.352
		S442.248,167.595,442.248,167.243z M444.591,183.286h-2.168v-12.68h2.168V183.286z"/>
	<path d="M450.111,170.606l0.07,1.594c0.453-0.57,1-1.018,1.641-1.342s1.359-0.486,2.156-0.486c0.617,0,1.176,0.084,1.676,0.252
		s0.926,0.438,1.277,0.809s0.623,0.848,0.814,1.43s0.287,1.287,0.287,2.115v8.309h-2.168v-8.332c0-0.492-0.055-0.912-0.164-1.26
		s-0.271-0.631-0.486-0.85s-0.48-0.379-0.797-0.48s-0.682-0.152-1.096-0.152c-0.703,0-1.32,0.188-1.852,0.562
		s-0.945,0.867-1.242,1.477v9.035h-2.168v-12.68H450.111z"/>
	<path d="M460.787,176.841c0-0.969,0.115-1.85,0.346-2.643s0.562-1.473,0.996-2.039s0.959-1.006,1.576-1.318
		s1.312-0.469,2.086-0.469c0.805,0,1.504,0.141,2.098,0.422s1.102,0.688,1.523,1.219l0.105-1.406h1.98v12.41
		c0,0.836-0.131,1.58-0.393,2.232s-0.631,1.203-1.107,1.652s-1.043,0.791-1.699,1.025s-1.383,0.352-2.18,0.352
		c-0.328,0-0.705-0.037-1.131-0.111s-0.855-0.195-1.289-0.363s-0.85-0.393-1.248-0.674s-0.738-0.629-1.02-1.043l1.125-1.301
		c0.266,0.328,0.539,0.602,0.82,0.82s0.564,0.395,0.85,0.527s0.574,0.229,0.867,0.287s0.584,0.088,0.873,0.088
		c0.508,0,0.969-0.072,1.383-0.217s0.768-0.361,1.061-0.65s0.518-0.643,0.674-1.061s0.234-0.904,0.234-1.459v-1.102
		c-0.422,0.484-0.924,0.855-1.506,1.113s-1.264,0.387-2.045,0.387c-0.758,0-1.443-0.16-2.057-0.48s-1.137-0.768-1.57-1.342
		s-0.768-1.254-1.002-2.039s-0.352-1.643-0.352-2.572V176.841z M462.966,177.087c0,0.633,0.064,1.229,0.193,1.787
		s0.328,1.045,0.598,1.459s0.615,0.742,1.037,0.984s0.926,0.363,1.512,0.363c0.383,0,0.729-0.047,1.037-0.141
		s0.586-0.223,0.832-0.387s0.463-0.359,0.65-0.586s0.352-0.477,0.492-0.75v-5.789c-0.141-0.258-0.305-0.498-0.492-0.721
		s-0.404-0.416-0.65-0.58s-0.521-0.291-0.826-0.381s-0.645-0.135-1.02-0.135c-0.594,0-1.102,0.123-1.523,0.369
		s-0.77,0.58-1.043,1.002s-0.475,0.912-0.604,1.471s-0.193,1.154-0.193,1.787V177.087z"/>
	<path d="M477.123,183.286h-2.168v-18h2.168V183.286z"/>
	<path d="M485.853,183.521c-0.883,0-1.682-0.152-2.396-0.457s-1.326-0.729-1.834-1.271s-0.898-1.189-1.172-1.939
		s-0.41-1.57-0.41-2.461v-0.492c0-1.031,0.154-1.953,0.463-2.766s0.721-1.496,1.236-2.051s1.105-0.979,1.77-1.271
		s1.355-0.439,2.074-0.439c0.906,0,1.688,0.158,2.344,0.475s1.197,0.752,1.623,1.307s0.74,1.211,0.943,1.969
		s0.305,1.582,0.305,2.473v0.973h-8.59c0.016,0.586,0.111,1.133,0.287,1.641s0.426,0.949,0.75,1.324s0.715,0.672,1.172,0.891
		s0.975,0.328,1.553,0.328c0.766,0,1.414-0.156,1.945-0.469s0.996-0.727,1.395-1.242l1.324,1.031
		c-0.203,0.312-0.449,0.615-0.738,0.908s-0.627,0.555-1.014,0.785s-0.83,0.414-1.33,0.551S486.486,183.521,485.853,183.521z
		 M485.583,172.153c-0.438,0-0.84,0.08-1.207,0.24s-0.695,0.393-0.984,0.697s-0.529,0.684-0.721,1.137s-0.322,0.973-0.393,1.559
		h6.352v-0.164c-0.023-0.422-0.092-0.84-0.205-1.254s-0.289-0.785-0.527-1.113s-0.545-0.594-0.92-0.797
		S486.138,172.153,485.583,172.153z"/>
	<path d="M501.287,170.606l0.059,1.406c0.438-0.516,0.967-0.918,1.588-1.207s1.346-0.434,2.174-0.434
		c0.82,0,1.545,0.162,2.174,0.486s1.111,0.842,1.447,1.553c0.422-0.609,0.971-1.102,1.646-1.477s1.475-0.562,2.396-0.562
		c0.68,0,1.281,0.088,1.805,0.264s0.967,0.451,1.33,0.826s0.639,0.852,0.826,1.43s0.281,1.266,0.281,2.062v8.332h-2.168v-8.344
		c0-0.531-0.064-0.973-0.193-1.324s-0.311-0.633-0.545-0.844s-0.52-0.357-0.855-0.439s-0.707-0.123-1.113-0.123
		c-0.445,0-0.84,0.07-1.184,0.211s-0.639,0.33-0.885,0.568s-0.441,0.52-0.586,0.844s-0.236,0.67-0.275,1.037v8.414h-2.18v-8.332
		c0-0.492-0.064-0.912-0.193-1.26s-0.311-0.631-0.545-0.85s-0.518-0.379-0.85-0.48s-0.705-0.152-1.119-0.152
		c-0.773,0-1.395,0.168-1.863,0.504s-0.82,0.773-1.055,1.312v9.258h-2.168v-12.68H501.287z"/>
	<path d="M519.708,176.829c0-0.922,0.135-1.775,0.404-2.561s0.652-1.467,1.148-2.045s1.1-1.031,1.811-1.359s1.508-0.492,2.391-0.492
		c0.898,0,1.705,0.164,2.42,0.492s1.322,0.781,1.822,1.359s0.883,1.26,1.148,2.045s0.398,1.639,0.398,2.561v0.258
		c0,0.922-0.133,1.775-0.398,2.561s-0.648,1.465-1.148,2.039s-1.105,1.023-1.816,1.348s-1.512,0.486-2.402,0.486
		s-1.691-0.162-2.402-0.486s-1.316-0.773-1.816-1.348s-0.885-1.254-1.154-2.039s-0.404-1.639-0.404-2.561V176.829z M521.888,177.087
		c0,0.633,0.074,1.23,0.223,1.793s0.373,1.057,0.674,1.482s0.676,0.764,1.125,1.014s0.975,0.375,1.576,0.375
		c0.594,0,1.117-0.125,1.57-0.375s0.828-0.588,1.125-1.014s0.521-0.92,0.674-1.482s0.229-1.16,0.229-1.793v-0.258
		c0-0.625-0.076-1.221-0.229-1.787s-0.379-1.062-0.68-1.488s-0.678-0.766-1.131-1.02s-0.98-0.381-1.582-0.381
		c-0.594,0-1.113,0.127-1.559,0.381s-0.818,0.594-1.119,1.02s-0.525,0.922-0.674,1.488s-0.223,1.162-0.223,1.787V177.087z"/>
	<path d="M533.443,176.841c0-0.969,0.119-1.85,0.357-2.643s0.576-1.473,1.014-2.039s0.963-1.006,1.576-1.318
		s1.299-0.469,2.057-0.469c0.773,0,1.449,0.131,2.027,0.393s1.078,0.639,1.5,1.131v-6.609h2.168v18h-1.992l-0.105-1.359
		c-0.422,0.516-0.93,0.91-1.523,1.184s-1.293,0.41-2.098,0.41c-0.742,0-1.42-0.16-2.033-0.48s-1.139-0.768-1.576-1.342
		s-0.775-1.254-1.014-2.039s-0.357-1.643-0.357-2.572V176.841z M535.611,177.087c0,0.633,0.064,1.229,0.193,1.787
		s0.33,1.045,0.604,1.459s0.621,0.742,1.043,0.984s0.926,0.363,1.512,0.363c0.383,0,0.727-0.045,1.031-0.135s0.58-0.217,0.826-0.381
		s0.465-0.359,0.656-0.586s0.357-0.477,0.498-0.75v-5.824c-0.141-0.258-0.305-0.496-0.492-0.715s-0.404-0.408-0.65-0.568
		s-0.521-0.285-0.826-0.375s-0.645-0.135-1.02-0.135c-0.594,0-1.104,0.123-1.529,0.369s-0.775,0.58-1.049,1.002
		s-0.475,0.912-0.604,1.471s-0.193,1.154-0.193,1.787V177.087z"/>
	<path d="M552.767,183.521c-0.883,0-1.682-0.152-2.396-0.457s-1.326-0.729-1.834-1.271s-0.898-1.189-1.172-1.939
		s-0.41-1.57-0.41-2.461v-0.492c0-1.031,0.154-1.953,0.463-2.766s0.721-1.496,1.236-2.051s1.105-0.979,1.77-1.271
		s1.355-0.439,2.074-0.439c0.906,0,1.688,0.158,2.344,0.475s1.197,0.752,1.623,1.307s0.74,1.211,0.943,1.969
		s0.305,1.582,0.305,2.473v0.973h-8.59c0.016,0.586,0.111,1.133,0.287,1.641s0.426,0.949,0.75,1.324s0.715,0.672,1.172,0.891
		s0.975,0.328,1.553,0.328c0.766,0,1.414-0.156,1.945-0.469s0.996-0.727,1.395-1.242l1.324,1.031
		c-0.203,0.312-0.449,0.615-0.738,0.908s-0.627,0.555-1.014,0.785s-0.83,0.414-1.33,0.551S553.4,183.521,552.767,183.521z
		 M552.498,172.153c-0.438,0-0.84,0.08-1.207,0.24s-0.695,0.393-0.984,0.697s-0.529,0.684-0.721,1.137s-0.322,0.973-0.393,1.559
		h6.352v-0.164c-0.023-0.422-0.092-0.84-0.205-1.254s-0.289-0.785-0.527-1.113s-0.545-0.594-0.92-0.797
		S553.052,172.153,552.498,172.153z"/>
	<path d="M562.576,183.286h-2.168v-18h2.168V183.286z"/>
	<path d="M571.998,167.243c0-0.352,0.107-0.648,0.322-0.891s0.533-0.363,0.955-0.363s0.742,0.121,0.961,0.363
		s0.328,0.539,0.328,0.891s-0.109,0.645-0.328,0.879s-0.539,0.352-0.961,0.352s-0.74-0.117-0.955-0.352
		S571.998,167.595,571.998,167.243z M574.341,183.286h-2.168v-12.68h2.168V183.286z"/>
	<path d="M579.861,170.606l0.07,1.594c0.453-0.57,1-1.018,1.641-1.342s1.359-0.486,2.156-0.486c0.617,0,1.176,0.084,1.676,0.252
		s0.926,0.438,1.277,0.809s0.623,0.848,0.814,1.43s0.287,1.287,0.287,2.115v8.309h-2.168v-8.332c0-0.492-0.055-0.912-0.164-1.26
		s-0.271-0.631-0.486-0.85s-0.48-0.379-0.797-0.48s-0.682-0.152-1.096-0.152c-0.703,0-1.32,0.188-1.852,0.562
		s-0.945,0.867-1.242,1.477v9.035h-2.168v-12.68H579.861z"/>
	<path d="M598.435,179.923c0-0.234-0.035-0.455-0.105-0.662s-0.209-0.402-0.416-0.586s-0.502-0.354-0.885-0.51
		s-0.887-0.301-1.512-0.434c-0.703-0.148-1.336-0.324-1.898-0.527s-1.041-0.447-1.436-0.732s-0.697-0.623-0.908-1.014
		s-0.316-0.848-0.316-1.371c0-0.5,0.111-0.975,0.334-1.424s0.537-0.844,0.943-1.184s0.898-0.609,1.477-0.809
		s1.223-0.299,1.934-0.299c0.758,0,1.436,0.104,2.033,0.311s1.105,0.49,1.523,0.85s0.736,0.779,0.955,1.26s0.328,0.994,0.328,1.541
		h-2.18c0-0.258-0.059-0.518-0.176-0.779s-0.289-0.496-0.516-0.703s-0.504-0.375-0.832-0.504s-0.707-0.193-1.137-0.193
		c-0.453,0-0.838,0.053-1.154,0.158s-0.576,0.246-0.779,0.422s-0.352,0.375-0.445,0.598s-0.141,0.451-0.141,0.686
		s0.039,0.445,0.117,0.633s0.227,0.357,0.445,0.51s0.518,0.293,0.896,0.422s0.869,0.26,1.471,0.393
		c0.773,0.18,1.445,0.383,2.016,0.609s1.043,0.49,1.418,0.791s0.654,0.646,0.838,1.037s0.275,0.844,0.275,1.359
		c0,0.555-0.115,1.062-0.346,1.523s-0.561,0.855-0.99,1.184s-0.945,0.584-1.547,0.768s-1.27,0.275-2.004,0.275
		c-0.844,0-1.588-0.117-2.232-0.352s-1.186-0.545-1.623-0.932s-0.77-0.828-0.996-1.324s-0.34-1.006-0.34-1.529h2.168
		c0.023,0.445,0.131,0.818,0.322,1.119s0.432,0.545,0.721,0.732s0.605,0.32,0.949,0.398s0.688,0.117,1.031,0.117
		c0.445,0,0.836-0.047,1.172-0.141s0.619-0.223,0.85-0.387s0.404-0.357,0.521-0.58S598.435,180.181,598.435,179.923z"/>
	<path d="M606.369,167.536v3.07h2.367v1.676h-2.367v7.863c0,0.328,0.039,0.592,0.117,0.791s0.182,0.354,0.311,0.463
		s0.277,0.182,0.445,0.217s0.342,0.053,0.521,0.053s0.369-0.018,0.568-0.053s0.354-0.064,0.463-0.088v1.758
		c-0.172,0.047-0.395,0.098-0.668,0.152s-0.605,0.082-0.996,0.082c-0.398,0-0.775-0.057-1.131-0.17s-0.666-0.303-0.932-0.568
		s-0.477-0.615-0.633-1.049s-0.234-0.967-0.234-1.6v-7.852h-2.309v-1.676h2.309v-3.07H606.369z"/>
	<path d="M619.095,183.286c-0.078-0.156-0.141-0.354-0.188-0.592s-0.086-0.486-0.117-0.744c-0.203,0.211-0.432,0.412-0.686,0.604
		s-0.531,0.359-0.832,0.504s-0.627,0.258-0.979,0.34s-0.723,0.123-1.113,0.123c-0.648,0-1.236-0.098-1.764-0.293
		s-0.977-0.461-1.348-0.797s-0.658-0.732-0.861-1.189s-0.305-0.947-0.305-1.471c0-0.68,0.133-1.279,0.398-1.799
		s0.646-0.955,1.143-1.307s1.096-0.617,1.799-0.797s1.488-0.27,2.355-0.27h2.156v-0.996c0-0.758-0.227-1.361-0.68-1.811
		s-1.121-0.674-2.004-0.674c-0.406,0-0.777,0.055-1.113,0.164s-0.623,0.256-0.861,0.439s-0.424,0.396-0.557,0.639
		s-0.199,0.496-0.199,0.762h-2.18c0-0.453,0.119-0.902,0.357-1.348s0.576-0.846,1.014-1.201s0.967-0.645,1.588-0.867
		s1.314-0.334,2.08-0.334c0.688,0,1.322,0.088,1.904,0.264s1.08,0.441,1.494,0.797s0.738,0.799,0.973,1.33s0.352,1.152,0.352,1.863
		v5.895c0,0.43,0.037,0.881,0.111,1.354s0.186,0.881,0.334,1.225v0.188H619.095z M615.498,181.634c0.391,0,0.758-0.055,1.102-0.164
		s0.656-0.252,0.938-0.428s0.525-0.377,0.732-0.604s0.369-0.461,0.486-0.703v-2.602h-1.805c-1.242,0-2.199,0.193-2.871,0.58
		s-1.008,0.971-1.008,1.752c0,0.305,0.051,0.59,0.152,0.855s0.256,0.494,0.463,0.686s0.461,0.344,0.762,0.457
		S615.099,181.634,615.498,181.634z"/>
	<path d="M626.373,170.606l0.07,1.594c0.453-0.57,1-1.018,1.641-1.342s1.359-0.486,2.156-0.486c0.617,0,1.176,0.084,1.676,0.252
		s0.926,0.438,1.277,0.809s0.623,0.848,0.814,1.43s0.287,1.287,0.287,2.115v8.309h-2.168v-8.332c0-0.492-0.055-0.912-0.164-1.26
		s-0.271-0.631-0.486-0.85s-0.48-0.379-0.797-0.48s-0.682-0.152-1.096-0.152c-0.703,0-1.32,0.188-1.852,0.562
		s-0.945,0.867-1.242,1.477v9.035h-2.168v-12.68H626.373z"/>
	<path d="M642.65,181.751c0.383,0,0.75-0.062,1.102-0.188s0.662-0.297,0.932-0.516s0.488-0.479,0.656-0.779s0.268-0.627,0.299-0.979
		h2.051c-0.031,0.562-0.186,1.1-0.463,1.611s-0.643,0.961-1.096,1.348s-0.979,0.695-1.576,0.926s-1.232,0.346-1.904,0.346
		c-0.953,0-1.783-0.17-2.49-0.51s-1.295-0.799-1.764-1.377s-0.818-1.25-1.049-2.016s-0.346-1.574-0.346-2.426V176.7
		c0-0.852,0.115-1.66,0.346-2.426s0.58-1.438,1.049-2.016s1.055-1.037,1.758-1.377s1.531-0.51,2.484-0.51
		c0.742,0,1.416,0.117,2.021,0.352s1.129,0.557,1.57,0.967s0.787,0.896,1.037,1.459s0.391,1.168,0.422,1.816h-2.051
		c-0.031-0.391-0.123-0.756-0.275-1.096s-0.357-0.637-0.615-0.891s-0.564-0.455-0.92-0.604s-0.752-0.223-1.189-0.223
		c-0.672,0-1.229,0.133-1.67,0.398s-0.797,0.615-1.066,1.049s-0.459,0.922-0.568,1.465s-0.164,1.088-0.164,1.635v0.492
		c0,0.562,0.055,1.115,0.164,1.658s0.297,1.029,0.562,1.459s0.621,0.777,1.066,1.043S641.97,181.751,642.65,181.751z"/>
	<path d="M655.388,183.521c-0.883,0-1.682-0.152-2.396-0.457s-1.326-0.729-1.834-1.271s-0.898-1.189-1.172-1.939
		s-0.41-1.57-0.41-2.461v-0.492c0-1.031,0.154-1.953,0.463-2.766s0.721-1.496,1.236-2.051s1.105-0.979,1.77-1.271
		s1.355-0.439,2.074-0.439c0.906,0,1.688,0.158,2.344,0.475s1.197,0.752,1.623,1.307s0.74,1.211,0.943,1.969
		s0.305,1.582,0.305,2.473v0.973h-8.59c0.016,0.586,0.111,1.133,0.287,1.641s0.426,0.949,0.75,1.324s0.715,0.672,1.172,0.891
		s0.975,0.328,1.553,0.328c0.766,0,1.414-0.156,1.945-0.469s0.996-0.727,1.395-1.242l1.324,1.031
		c-0.203,0.312-0.449,0.615-0.738,0.908s-0.627,0.555-1.014,0.785s-0.83,0.414-1.33,0.551S656.021,183.521,655.388,183.521z
		 M655.119,172.153c-0.438,0-0.84,0.08-1.207,0.24s-0.695,0.393-0.984,0.697s-0.529,0.684-0.721,1.137s-0.322,0.973-0.393,1.559
		h6.352v-0.164c-0.023-0.422-0.092-0.84-0.205-1.254s-0.289-0.785-0.527-1.113s-0.545-0.594-0.92-0.797
		S655.673,172.153,655.119,172.153z"/>
</g>
<line fill="none" stroke="#757575" stroke-width="2.7149" stroke-linecap="round" stroke-miterlimit="10" x1="686.5" y1="223.674" x2="686.5" y2="283.674"/>
<line fill="none" stroke="#757575" stroke-width="2.7149" stroke-miterlimit="10" x1="686.5" y1="253.674" x2="561.094" y2="253.674"/>
<line fill="none" stroke="#757575" stroke-width="2.7149" stroke-miterlimit="10" x1="686.5" y1="253.674" x2="884.5" y2="253.674"/>
<line fill="none" stroke="#757575" stroke-width="2.7149" stroke-miterlimit="10" x1="686.5" y1="238.674" x2="884.5" y2="238.674"/>
<line fill="none" stroke="#757575" stroke-width="2.7149" stroke-miterlimit="10" x1="686.5" y1="223.674" x2="909.5" y2="223.674"/>
<line fill="none" stroke="#757575" stroke-width="2.7149" stroke-miterlimit="10" x1="686.5" y1="268.674" x2="884.5" y2="268.674"/>
<line fill="none" stroke="#757575" stroke-width="2.7149" stroke-miterlimit="10" x1="686.5" y1="283.674" x2="884.5" y2="283.674"/>
<linearGradient id="SVGID_1_" gradientUnits="userSpaceOnUse" x1="365" y1="253.5879" x2="608.1992" y2="253.5879">
	<stop  offset="0" style="stop-color:#22A884"/>
	<stop  offset="1" style="stop-color:#44BF70"/>
</linearGradient>
<polygon fill="url(#SVGID_1_)" stroke="#000000" stroke-width="3" stroke-miterlimit="10" points="511.988,292.607 365,292.607 
	461.21,214.569 608.199,214.569 "/>
<linearGradient id="SVGID_2_" gradientUnits="userSpaceOnUse" x1="811" y1="268.9805" x2="1054.1992" y2="268.9805">
	<stop  offset="0" style="stop-color:#25848E"/>
	<stop  offset="1" style="stop-color:#1E9C89"/>
</linearGradient>
<polygon fill="url(#SVGID_2_)" stroke="#000000" stroke-width="3" stroke-miterlimit="10" points="957.988,308 811,308 
	907.21,229.961 1054.199,229.961 "/>
<linearGradient id="SVGID_3_" gradientUnits="userSpaceOnUse" x1="811" y1="261.1523" x2="1054.1992" y2="261.1523">
	<stop  offset="0" style="stop-color:#20918C"/>
	<stop  offset="1" style="stop-color:#22A884"/>
</linearGradient>
<polygon fill="url(#SVGID_3_)" stroke="#000000" stroke-width="3" stroke-miterlimit="10" points="957.988,300.172 811,300.172 
	907.21,222.133 1054.199,222.133 "/>
<linearGradient id="SVGID_4_" gradientUnits="userSpaceOnUse" x1="811" y1="253.3242" x2="1054.1992" y2="253.3242">
	<stop  offset="0" style="stop-color:#1E9C89"/>
	<stop  offset="1" style="stop-color:#2FB47C"/>
</linearGradient>
<polygon fill="url(#SVGID_4_)" stroke="#000000" stroke-width="3" stroke-miterlimit="10" points="957.988,292.344 811,292.344 
	907.21,214.306 1054.199,214.306 "/>
<linearGradient id="SVGID_5_" gradientUnits="userSpaceOnUse" x1="811" y1="245.4961" x2="1054.1992" y2="245.4961">
	<stop  offset="0" style="stop-color:#22A884"/>
	<stop  offset="1" style="stop-color:#44BF70"/>
</linearGradient>
<polygon fill="url(#SVGID_5_)" stroke="#000000" stroke-width="3" stroke-miterlimit="10" points="957.988,284.516 811,284.516 
	907.21,206.478 1054.199,206.478 "/>
<linearGradient id="SVGID_6_" gradientUnits="userSpaceOnUse" x1="811" y1="237.6689" x2="1054.1992" y2="237.6689">
	<stop  offset="0" style="stop-color:#2FB47C"/>
	<stop  offset="1" style="stop-color:#5EC962"/>
</linearGradient>
<polygon fill="url(#SVGID_6_)" stroke="#000000" stroke-width="3" stroke-miterlimit="10" points="957.988,276.688 811,276.688 
	907.21,198.65 1054.199,198.65 "/>
</svg>
