<?xml version="1.0" encoding="UTF-8" standalone="no"?>
<!DOCTYPE svg PUBLIC "-//W3C//DTD SVG 1.1//EN"
 "http://www.w3.org/Graphics/SVG/1.1/DTD/svg11.dtd">
<!-- Generated by graphviz version 2.36.0 (20140111.2315)
 -->
<!-- Title: forward_operator Pages: 1 -->
<svg width="592pt" height="188pt"
 viewBox="0.00 0.00 592.00 188.00" xmlns="http://www.w3.org/2000/svg" xmlns:xlink="http://www.w3.org/1999/xlink">
<g id="graph0" class="graph" transform="scale(1 1) rotate(0) translate(4 184)">
<title>forward_operator</title>
<polygon fill="white" stroke="none" points="-4,4 -4,-184 588,-184 588,4 -4,4"/>
<!-- filter -->
<g id="node1" class="node"><title>filter</title>
<polygon fill="none" stroke="black" points="353,-180 299,-180 299,-144 353,-144 353,-180"/>
<text text-anchor="middle" x="326" y="-158.3" font-family="Times,serif" font-size="14.00">filter</text>
</g>
<!-- get_obs_ens_distrib_state -->
<g id="node2" class="node"><title>get_obs_ens_distrib_state</title>
<polygon fill="none" stroke="black" points="406.25,-108 245.75,-108 245.75,-72 406.25,-72 406.25,-108"/>
<text text-anchor="middle" x="326" y="-86.3" font-family="Times,serif" font-size="14.00">get_obs_ens_distrib_state</text>
</g>
<!-- filter&#45;&gt;get_obs_ens_distrib_state -->
<g id="edge1" class="edge"><title>filter&#45;&gt;get_obs_ens_distrib_state</title>
<path fill="none" stroke="black" d="M326,-143.697C326,-135.983 326,-126.712 326,-118.112"/>
<polygon fill="black" stroke="black" points="329.5,-118.104 326,-108.104 322.5,-118.104 329.5,-118.104"/>
</g>
<!-- create_state_window -->
<g id="node3" class="node"><title>create_state_window</title>
<polygon fill="none" stroke="black" points="134.25,-36 -0.25,-36 -0.25,-0 134.25,-0 134.25,-36"/>
<text text-anchor="middle" x="67" y="-14.3" font-family="Times,serif" font-size="14.00">create_state_window</text>
</g>
<!-- get_obs_ens_distrib_state&#45;&gt;create_state_window -->
<g id="edge2" class="edge"><title>get_obs_ens_distrib_state&#45;&gt;create_state_window</title>
<path fill="none" stroke="black" d="M262.973,-71.9656C225.841,-61.9299 178.705,-49.1905 139.967,-38.7207"/>
<polygon fill="black" stroke="black" points="140.877,-35.3412 130.31,-36.1108 139.05,-42.0987 140.877,-35.3412"/>
</g>
<!-- get_expected_obs_distrib_state -->
<g id="node4" class="node"><title>get_expected_obs_distrib_state</title>
<polygon fill="none" stroke="black" points="345,-36 153,-36 153,-0 345,-0 345,-36"/>
<text text-anchor="middle" x="249" y="-14.3" font-family="Times,serif" font-size="14.00">get_expected_obs_distrib_state</text>
</g>
<!-- get_obs_ens_distrib_state&#45;&gt;get_expected_obs_distrib_state -->
<g id="edge3" class="edge"><title>get_obs_ens_distrib_state&#45;&gt;get_expected_obs_distrib_state</title>
<path fill="none" stroke="black" d="M306.966,-71.6966C297.455,-63.0503 285.793,-52.4486 275.43,-43.027"/>
<polygon fill="black" stroke="black" points="277.569,-40.2413 267.815,-36.1043 272.86,-45.4209 277.569,-40.2413"/>
</g>
<!-- QC_LOOP -->
<g id="node5" class="node"><title>QC_LOOP</title>
<polygon fill="none" stroke="black" points="443,-36 363,-36 363,-0 443,-0 443,-36"/>
<text text-anchor="middle" x="403" y="-14.3" font-family="Times,serif" font-size="14.00">QC_LOOP</text>
</g>
<!-- get_obs_ens_distrib_state&#45;&gt;QC_LOOP -->
<g id="edge4" class="edge"><title>get_obs_ens_distrib_state&#45;&gt;QC_LOOP</title>
<path fill="none" stroke="black" d="M345.034,-71.6966C354.545,-63.0503 366.207,-52.4486 376.57,-43.027"/>
<polygon fill="black" stroke="black" points="379.14,-45.4209 384.185,-36.1043 374.431,-40.2413 379.14,-45.4209"/>
</g>
<!-- free_state_window -->
<g id="node6" class="node"><title>free_state_window</title>
<polygon fill="none" stroke="black" points="584.25,-36 461.75,-36 461.75,-0 584.25,-0 584.25,-36"/>
<text text-anchor="middle" x="523" y="-14.3" font-family="Times,serif" font-size="14.00">free_state_window</text>
</g>
<!-- get_obs_ens_distrib_state&#45;&gt;free_state_window -->
<g id="edge5" class="edge"><title>get_obs_ens_distrib_state&#45;&gt;free_state_window</title>
<path fill="none" stroke="black" d="M373.94,-71.9656C401.465,-62.185 436.217,-49.8365 465.241,-39.5236"/>
<polygon fill="black" stroke="black" points="466.594,-42.7571 474.845,-36.1108 464.251,-36.1611 466.594,-42.7571"/>
</g>
</g>
</svg>
