<?xml version="1.0" encoding="utf-8"?>
<!-- Generator: Adobe Illustrator 15.1.0, SVG Export Plug-In . SVG Version: 6.00 Build 0)  -->
<!DOCTYPE svg PUBLIC "-//W3C//DTD SVG 1.1//EN" "http://www.w3.org/Graphics/SVG/1.1/DTD/svg11.dtd">
<svg version="1.1" id="Layer_1" xmlns="http://www.w3.org/2000/svg" xmlns:xlink="http://www.w3.org/1999/xlink" x="0px" y="0px"
	 width="2000px" height="400px" viewBox="0 0 2000 400" enable-background="new 0 0 2000 400" xml:space="preserve">
<title>NCAR-contemp-logo-blue.a</title>
<rect x="1019.916" y="57.287" fill="#012169" width="10.176" height="273.902"/>
<path fill="#012169" d="M374.89,106.117c-53.655,0.195-86.728,24.574-86.52,86.778c0.239,64.595,40.704,104.439,105.288,104.211
	c25.199-0.131,49.839-7.444,71.023-21.091l0.125,34.177c-21.827,12.386-51.222,16.919-74.78,17.015
	c-75.537,0.266-137.553-43.252-137.868-134.172c-0.297-82.019,52.543-117.082,117.485-117.297
	c32.818-0.122,64.972,6.594,94.725,14.359l0.133,36.562c-17.817-12.578-59.884-20.627-89.62-20.529"/>
<path fill="#012169" d="M688.799,318.27c-0.831-4.104-0.429-8.202-10.759-30.387c-7.448-16.715-15.296-31.616-22.734-48.345
	l-104.978,0.372c-7.317,17.119-14.636,32.076-22.384,48.848c-4.229,9.702-7.489,19.794-9.737,30.13l-44.946,0.166
	c0,0,5.311-4.797,17.106-32.186c8.944-20.882,68.753-155.068,77.698-175.943C578.233,87.987,578.63,82.86,578.63,82.86l48.895-0.173
	c0,0,0.431,6.143,9.937,27.644c9.1,20.823,68.216,153.554,77.723,174.716c13.636,29.679,19.128,33.081,19.128,33.081L688.799,318.27
	z M601.565,117.963c-13.422,31.146-26.341,61.375-40.184,92.544l84.072-0.306c-14.458-31.041-29.429-61.181-43.903-92.229"/>
<path fill="#012169" d="M900.815,317.517c-5.77-5.788-11.936-11.584-18.1-17.372l-98.735-86.794l0.273,76.214
	c0.039,10.925,0.905,24.26,2.972,28.359l-40.242,0.155c2.44-5.824,2.412-15.4,2.361-28.38l-0.642-179.44
	c-0.043-9.377-0.762-18.739-2.153-28.011c30.763-0.124,57.452-4.306,87.38-4.427c45.923-0.162,80.437,16.12,80.579,57.817
	c0.154,42.373-31.744,67.78-85.861,74.465c30.855,26.203,61.706,53.098,92.547,79.633c10.9,10.104,22.59,19.312,34.961,27.552
	L900.815,317.517z M823.369,103.155c-13.129,0.041-25.827,1.799-39.763,3.214l0.27,75.992c8.63,0.65,16.417,1.29,25.034,1.29
	c36.08-0.132,66.793-7.193,66.668-42.403c-0.097-29.05-20.231-38.196-52.209-38.085"/>
<path fill="#012169" d="M175.495,319.062c0,0-5.807-9.897-19.121-28.686c-39.943-54.63-79.551-109.934-119.149-164.914v164.227
	c0,24.587,1.696,29.372,1.696,29.372H0c1.81-9.79,2.494-19.753,2.046-29.699V117.614c0.289-11.406-0.278-22.816-1.698-34.139h50.53
	c0,0,2.046,5.812,19.465,30.05c14.329,19.799,104.137,144.417,118.463,164.23V116.24c0.406-10.953-0.162-21.919-1.698-32.774h38.918
	c-1.743,10.833-2.431,21.807-2.054,32.774v168.346c0,31.065,1.361,31.065,2.054,34.489L175.495,319.062z"/>
<g>
	<rect x="1092.561" y="66.519" fill="none" width="941.979" height="264.816"/>
	<path fill="#012169" d="M1313.804,260.21c-10.092,18.255-24.604,32.48-43.534,42.685c-18.935,10.203-41.212,15.305-66.832,15.305
		h-90.811V77.739h90.811c25.849,0,48.179,4.99,67.002,14.965c18.818,9.98,33.272,24.036,43.364,42.174
		c10.087,18.143,15.136,39.001,15.136,62.581C1328.939,221.044,1323.891,241.961,1313.804,260.21z M1251.224,248.136
		c12.584-12.015,18.876-28.909,18.876-50.677c0-21.767-6.292-38.656-18.876-50.677c-12.585-12.016-30.218-18.026-52.888-18.026
		h-27.55v137.406h27.55C1221.006,266.162,1238.639,260.157,1251.224,248.136z"/>
	<path fill="#012169" d="M1510.895,274.324h-90.13l-14.965,43.875h-61.221l88.09-238.759h67.002l88.089,238.759h-61.9
		L1510.895,274.324z M1495.93,230.109L1466,141.681l-30.271,88.429H1495.93z"/>
	<path fill="#012169" d="M1733.667,318.199l-52.037-90.811h-13.265v90.811h-58.159V77.739h99.313c19.046,0,35.143,3.29,48.296,9.863
		c13.147,6.579,23.011,15.592,29.59,27.039c6.573,11.452,9.863,24.547,9.863,39.283c0,17.462-4.82,32.311-14.455,44.555
		c-9.64,12.244-23.638,20.636-42.004,25.169l57.139,94.551H1733.667z M1668.365,187.596h36.053c11.563,0,20.066-2.551,25.508-7.652
		c5.442-5.102,8.163-12.637,8.163-22.618c0-9.523-2.779-17.005-8.333-22.447c-5.559-5.442-14.003-8.163-25.338-8.163h-36.053
		V187.596z"/>
	<path fill="#012169" d="M1999.29,77.739v46.255h-65.302v194.205h-58.499V123.995h-64.621V77.739H1999.29z"/>
</g>
</svg>
