<svg xmlns="http://www.w3.org/2000/svg" width="15.698" height="9.17" viewBox="0 0 15.698 9.17">
  <g id="down-arrow" transform="translate(0 -127.244)">
    <g id="_x31_0_34_" transform="translate(0 127.244)">
      <g id="Group_20" data-name="Group 20">
        <path id="Path_24" data-name="Path 24" d="M15.505,127.438a.655.655,0,0,0-.929,0l-6.727,7.382-6.728-7.382a.655.655,0,0,0-.929,0,.663.663,0,0,0,0,.934l7.159,7.855a.648.648,0,0,0,.5.187.647.647,0,0,0,.5-.187l7.16-7.856A.662.662,0,0,0,15.505,127.438Z" transform="translate(0 -127.244)" fill="#eaa4a4"/>
      </g>
    </g>
  </g>
</svg>
