<?xml version="1.0" encoding="utf-8"?>
<!-- Generator: Adobe Illustrator 15.1.0, SVG Export Plug-In . SVG Version: 6.00 Build 0)  -->
<!DOCTYPE svg PUBLIC "-//W3C//DTD SVG 1.1//EN" "http://www.w3.org/Graphics/SVG/1.1/DTD/svg11.dtd">
<svg version="1.1" id="Layer_1" xmlns="http://www.w3.org/2000/svg" xmlns:xlink="http://www.w3.org/1999/xlink" x="0px" y="0px"
	 width="2000px" height="400px" viewBox="0 0 2000 400" enable-background="new 0 0 2000 400" xml:space="preserve">
<g id="Layer_1_1_">
	<title>NCAR-contemp-logo-blue.a</title>
	<rect x="1016.916" y="57.287" fill="#012169" width="10.176" height="273.902"/>
	<path fill="#012169" d="M377.892,106.117c-53.655,0.195-86.728,24.574-86.52,86.778c0.239,64.595,40.704,104.439,105.288,104.211
		c25.199-0.131,49.839-7.444,71.023-21.091l0.125,34.177c-21.827,12.386-51.222,16.919-74.78,17.015
		c-75.537,0.266-137.553-43.252-137.868-134.172c-0.297-82.019,52.543-117.082,117.485-117.297
		c32.818-0.122,64.972,6.594,94.725,14.359l0.133,36.562c-17.817-12.578-59.884-20.627-89.62-20.529"/>
	<path fill="#012169" d="M691.801,318.27c-0.831-4.104-0.429-8.202-10.759-30.387c-7.448-16.715-15.296-31.616-22.734-48.345
		L553.33,239.91c-7.317,17.119-14.636,32.076-22.384,48.848c-4.229,9.702-7.489,19.794-9.737,30.13l-44.946,0.166
		c0,0,5.311-4.797,17.106-32.186c8.944-20.882,68.753-155.068,77.698-175.943c10.168-22.938,10.564-28.065,10.564-28.065
		l48.895-0.173c0,0,0.431,6.143,9.937,27.644c9.1,20.823,68.216,153.554,77.723,174.716c13.636,29.679,19.128,33.081,19.128,33.081
		L691.801,318.27z M604.566,117.963c-13.422,31.146-26.341,61.375-40.184,92.544l84.072-0.306
		c-14.458-31.041-29.429-61.181-43.903-92.229"/>
	<path fill="#012169" d="M903.816,317.517c-5.77-5.788-11.936-11.584-18.1-17.372l-98.735-86.794l0.273,76.214
		c0.039,10.925,0.905,24.26,2.972,28.359l-40.242,0.155c2.44-5.824,2.412-15.4,2.361-28.38l-0.642-179.44
		c-0.043-9.377-0.762-18.739-2.153-28.011c30.763-0.124,57.452-4.306,87.38-4.427c45.923-0.162,80.437,16.12,80.579,57.817
		c0.154,42.373-31.744,67.78-85.861,74.465c30.855,26.203,61.706,53.098,92.547,79.633c10.9,10.104,22.59,19.312,34.961,27.552
		L903.816,317.517z M826.371,103.155c-13.129,0.041-25.827,1.799-39.763,3.214l0.27,75.992c8.63,0.65,16.417,1.29,25.034,1.29
		c36.08-0.132,66.793-7.193,66.668-42.403c-0.097-29.05-20.231-38.196-52.209-38.085"/>
	<path fill="#012169" d="M178.497,319.062c0,0-5.807-9.897-19.121-28.686c-39.943-54.63-79.551-109.934-119.149-164.914v164.227
		c0,24.587,1.696,29.372,1.696,29.372H3.001c1.81-9.79,2.494-19.753,2.046-29.699V117.614C5.337,106.208,4.77,94.798,3.35,83.476
		h50.53c0,0,2.046,5.812,19.465,30.05c14.329,19.799,104.137,144.417,118.463,164.23V116.24c0.406-10.953-0.162-21.919-1.698-32.774
		h38.918c-1.743,10.833-2.431,21.807-2.054,32.774v168.346c0,31.065,1.361,31.065,2.054,34.489L178.497,319.062z"/>
</g>
<rect x="1089.561" y="66.519" fill="none" width="941.979" height="264.816"/>
<text transform="matrix(1 0 0 1 1089.5605 318.1992)" fill="#012169" font-family="'Poppins-Bold'" font-size="340.1128">DART</text>
</svg>
