<?xml version="1.0" encoding="UTF-8" standalone="no"?>
<!DOCTYPE svg PUBLIC "-//W3C//DTD SVG 1.1//EN"
 "http://www.w3.org/Graphics/SVG/1.1/DTD/svg11.dtd">
<!-- Generated by graphviz version 2.36.0 (20140111.2315)
 -->
<!-- Title: distributed_state_win Pages: 1 -->
<svg width="526pt" height="188pt"
 viewBox="0.00 0.00 526.00 188.00" xmlns="http://www.w3.org/2000/svg" xmlns:xlink="http://www.w3.org/1999/xlink">
<g id="graph0" class="graph" transform="scale(1 1) rotate(0) translate(4 184)">
<title>distributed_state_win</title>
<polygon fill="white" stroke="none" points="-4,4 -4,-184 522,-184 522,4 -4,4"/>
<!-- window_mod -->
<g id="node1" class="node"><title>window_mod</title>
<polygon fill="none" stroke="green" points="323,-108 229,-108 229,-72 323,-72 323,-108"/>
<text text-anchor="middle" x="276" y="-86.3" font-family="Times,serif" font-size="14.00">window_mod</text>
</g>
<!-- cray_win_mod_f90 -->
<g id="node3" class="node"><title>cray_win_mod_f90</title>
<ellipse fill="none" stroke="green" cx="81" cy="-18" rx="81.3398" ry="18"/>
<text text-anchor="middle" x="81" y="-14.3" font-family="Times,serif" font-size="14.00">cray_win_mod_f90</text>
</g>
<!-- window_mod&#45;&gt;cray_win_mod_f90 -->
<g id="edge2" class="edge"><title>window_mod&#45;&gt;cray_win_mod_f90</title>
<path fill="none" stroke="green" d="M228.796,-72.055C199.3,-61.4668 161.348,-47.8429 131.288,-37.0521"/>
<polygon fill="green" stroke="green" points="132.421,-33.7402 121.826,-33.6556 130.056,-40.3285 132.421,-33.7402"/>
</g>
<!-- no_cray_win_mod_f90 -->
<g id="node4" class="node"><title>no_cray_win_mod_f90</title>
<ellipse fill="none" stroke="green" cx="276" cy="-18" rx="95.3122" ry="18"/>
<text text-anchor="middle" x="276" y="-14.3" font-family="Times,serif" font-size="14.00">no_cray_win_mod_f90</text>
</g>
<!-- window_mod&#45;&gt;no_cray_win_mod_f90 -->
<g id="edge4" class="edge"><title>window_mod&#45;&gt;no_cray_win_mod_f90</title>
<path fill="none" stroke="green" d="M276,-71.6966C276,-63.9827 276,-54.7125 276,-46.1124"/>
<polygon fill="green" stroke="green" points="279.5,-46.1043 276,-36.1043 272.5,-46.1044 279.5,-46.1043"/>
</g>
<!-- data_structure_mod -->
<g id="node5" class="node"><title>data_structure_mod</title>
<polygon fill="none" stroke="black" points="518,-36 390,-36 390,-0 518,-0 518,-36"/>
<text text-anchor="middle" x="454" y="-14.3" font-family="Times,serif" font-size="14.00">data_structure_mod</text>
</g>
<!-- window_mod&#45;&gt;data_structure_mod -->
<g id="edge3" class="edge"><title>window_mod&#45;&gt;data_structure_mod</title>
<path fill="none" stroke="black" d="M319.544,-71.8761C344.202,-62.1791 375.223,-49.9795 401.254,-39.7427"/>
<polygon fill="black" stroke="black" points="402.572,-42.9853 410.598,-36.0683 400.011,-36.4709 402.572,-42.9853"/>
</g>
<!-- distributed_state -->
<g id="node2" class="node"><title>distributed_state</title>
<polygon fill="none" stroke="black" points="330.25,-180 221.75,-180 221.75,-144 330.25,-144 330.25,-180"/>
<text text-anchor="middle" x="276" y="-158.3" font-family="Times,serif" font-size="14.00">distributed_state</text>
</g>
<!-- distributed_state&#45;&gt;window_mod -->
<g id="edge1" class="edge"><title>distributed_state&#45;&gt;window_mod</title>
<path fill="none" stroke="black" d="M276,-143.697C276,-135.983 276,-126.712 276,-118.112"/>
<polygon fill="black" stroke="black" points="279.5,-118.104 276,-108.104 272.5,-118.104 279.5,-118.104"/>
</g>
</g>
</svg>
