<?xml version="1.0" encoding="UTF-8" standalone="no"?>
<!DOCTYPE svg PUBLIC "-//W3C//DTD SVG 1.1//EN"
 "http://www.w3.org/Graphics/SVG/1.1/DTD/svg11.dtd">
<!-- Generated by graphviz version 2.49.3 (20211023.0002)
 -->
<!-- Title: forward_operator Pages: 1 -->
<svg width="594pt" height="188pt"
 viewBox="0.00 0.00 593.50 188.00" xmlns="http://www.w3.org/2000/svg" xmlns:xlink="http://www.w3.org/1999/xlink">
<g id="graph0" class="graph" transform="scale(1 1) rotate(0) translate(4 184)">
<title>forward_operator</title>
<polygon fill="white" stroke="transparent" points="-4,4 -4,-184 589.5,-184 589.5,4 -4,4"/>
<!-- filter -->
<g id="node1" class="node">
<title>filter</title>
<polygon fill="none" stroke="black" points="364.5,-180 310.5,-180 310.5,-144 364.5,-144 364.5,-180"/>
<text text-anchor="middle" x="337.5" y="-158.3" font-family="Times,serif" font-size="14.00">filter</text>
</g>
<!-- get_obs_ens_distrib_state -->
<g id="node2" class="node">
<title>get_obs_ens_distrib_state</title>
<polygon fill="none" stroke="black" points="418,-108 257,-108 257,-72 418,-72 418,-108"/>
<text text-anchor="middle" x="337.5" y="-86.3" font-family="Times,serif" font-size="14.00">get_obs_ens_distrib_state</text>
</g>
<!-- filter&#45;&gt;get_obs_ens_distrib_state -->
<g id="edge1" class="edge">
<title>filter&#45;&gt;get_obs_ens_distrib_state</title>
<path fill="none" stroke="black" d="M337.5,-143.7C337.5,-135.98 337.5,-126.71 337.5,-118.11"/>
<polygon fill="black" stroke="black" points="341,-118.1 337.5,-108.1 334,-118.1 341,-118.1"/>
</g>
<!-- create_state_window -->
<g id="node3" class="node">
<title>create_state_window</title>
<polygon fill="none" stroke="black" points="135,-36 0,-36 0,0 135,0 135,-36"/>
<text text-anchor="middle" x="67.5" y="-14.3" font-family="Times,serif" font-size="14.00">create_state_window</text>
</g>
<!-- get_obs_ens_distrib_state&#45;&gt;create_state_window -->
<g id="edge2" class="edge">
<title>get_obs_ens_distrib_state&#45;&gt;create_state_window</title>
<path fill="none" stroke="black" d="M271.8,-71.97C233,-61.91 183.74,-49.14 143.31,-38.65"/>
<polygon fill="black" stroke="black" points="144.06,-35.23 133.5,-36.11 142.3,-42.01 144.06,-35.23"/>
</g>
<!-- get_expected_obs_distrib_state -->
<g id="node4" class="node">
<title>get_expected_obs_distrib_state</title>
<polygon fill="none" stroke="black" points="345.5,-36 153.5,-36 153.5,0 345.5,0 345.5,-36"/>
<text text-anchor="middle" x="249.5" y="-14.3" font-family="Times,serif" font-size="14.00">get_expected_obs_distrib_state</text>
</g>
<!-- get_obs_ens_distrib_state&#45;&gt;get_expected_obs_distrib_state -->
<g id="edge3" class="edge">
<title>get_obs_ens_distrib_state&#45;&gt;get_expected_obs_distrib_state</title>
<path fill="none" stroke="black" d="M315.75,-71.7C304.66,-62.88 291.03,-52.03 279.01,-42.47"/>
<polygon fill="black" stroke="black" points="281.01,-39.59 271,-36.1 276.65,-45.07 281.01,-39.59"/>
</g>
<!-- free_state_window -->
<g id="node5" class="node">
<title>free_state_window</title>
<polygon fill="none" stroke="black" points="487,-36 364,-36 364,0 487,0 487,-36"/>
<text text-anchor="middle" x="425.5" y="-14.3" font-family="Times,serif" font-size="14.00">free_state_window</text>
</g>
<!-- get_obs_ens_distrib_state&#45;&gt;free_state_window -->
<g id="edge4" class="edge">
<title>get_obs_ens_distrib_state&#45;&gt;free_state_window</title>
<path fill="none" stroke="black" d="M359.25,-71.7C370.34,-62.88 383.97,-52.03 395.99,-42.47"/>
<polygon fill="black" stroke="black" points="398.35,-45.07 404,-36.1 393.99,-39.59 398.35,-45.07"/>
</g>
<!-- QC_LOOP -->
<g id="node6" class="node">
<title>QC_LOOP</title>
<polygon fill="none" stroke="black" points="585.5,-36 505.5,-36 505.5,0 585.5,0 585.5,-36"/>
<text text-anchor="middle" x="545.5" y="-14.3" font-family="Times,serif" font-size="14.00">QC_LOOP</text>
</g>
<!-- get_obs_ens_distrib_state&#45;&gt;QC_LOOP -->
<g id="edge5" class="edge">
<title>get_obs_ens_distrib_state&#45;&gt;QC_LOOP</title>
<path fill="none" stroke="black" d="M389.11,-71.97C418,-62.4 454.89,-50.11 495.78,-36.23"/>
<polygon fill="black" stroke="black" points="497.06,-39.49 505.4,-32.96 494.81,-32.86 497.06,-39.49"/>
</g>
</g>
</svg>
