<?xml version="1.0" encoding="UTF-8" standalone="no"?>
<!DOCTYPE svg PUBLIC "-//W3C//DTD SVG 1.1//EN"
 "http://www.w3.org/Graphics/SVG/1.1/DTD/svg11.dtd">
<!-- Generated by graphviz version 2.36.0 (20140111.2315)
 -->
<!-- Title: %3 Pages: 1 -->
<svg width="316pt" height="260pt"
 viewBox="0.00 0.00 316.00 260.00" xmlns="http://www.w3.org/2000/svg" xmlns:xlink="http://www.w3.org/1999/xlink">
<g id="graph0" class="graph" transform="scale(1 1) rotate(0) translate(4 256)">
<title>%3</title>
<polygon fill="white" stroke="none" points="-4,4 -4,-256 312,-256 312,4 -4,4"/>
<!-- distributed_state_mod -->
<g id="node1" class="node"><title>distributed_state_mod</title>
<polygon fill="none" stroke="black" points="220.25,-180 79.75,-180 79.75,-144 220.25,-144 220.25,-180"/>
<text text-anchor="middle" x="150" y="-158.3" font-family="Times,serif" font-size="14.00">distributed_state_mod</text>
</g>
<!-- ensemble_manager_mod -->
<g id="node2" class="node"><title>ensemble_manager_mod</title>
<polygon fill="none" stroke="black" points="228,-36 72,-36 72,-0 228,-0 228,-36"/>
<text text-anchor="middle" x="150" y="-14.3" font-family="Times,serif" font-size="14.00">ensemble_manager_mod</text>
</g>
<!-- distributed_state_mod&#45;&gt;ensemble_manager_mod -->
<g id="edge1" class="edge"><title>distributed_state_mod&#45;&gt;ensemble_manager_mod</title>
<path fill="none" stroke="black" d="M142.52,-143.704C138.527,-133.522 134.027,-120.272 132,-108 129.392,-92.2139 129.392,-87.7861 132,-72 133.441,-63.2752 136.132,-54.0563 139.002,-45.7969"/>
<polygon fill="black" stroke="black" points="142.33,-46.889 142.52,-36.2958 135.766,-44.4583 142.33,-46.889"/>
</g>
<!-- window_mod -->
<g id="node3" class="node"><title>window_mod</title>
<polygon fill="none" stroke="black" points="235,-108 141,-108 141,-72 235,-72 235,-108"/>
<text text-anchor="middle" x="188" y="-86.3" font-family="Times,serif" font-size="14.00">window_mod</text>
</g>
<!-- distributed_state_mod&#45;&gt;window_mod -->
<g id="edge2" class="edge"><title>distributed_state_mod&#45;&gt;window_mod</title>
<path fill="none" stroke="black" d="M159.393,-143.697C163.765,-135.644 169.057,-125.894 173.895,-116.982"/>
<polygon fill="black" stroke="black" points="177.02,-118.563 178.715,-108.104 170.868,-115.223 177.02,-118.563"/>
</g>
<!-- window_mod&#45;&gt;ensemble_manager_mod -->
<g id="edge3" class="edge"><title>window_mod&#45;&gt;ensemble_manager_mod</title>
<path fill="none" stroke="black" d="M178.607,-71.6966C174.235,-63.6436 168.943,-53.8945 164.105,-44.9824"/>
<polygon fill="black" stroke="black" points="167.132,-43.223 159.285,-36.1043 160.98,-46.5627 167.132,-43.223"/>
</g>
<!-- filter_mod -->
<g id="node4" class="node"><title>filter_mod</title>
<polygon fill="none" stroke="black" points="74.25,-252 -0.25,-252 -0.25,-216 74.25,-216 74.25,-252"/>
<text text-anchor="middle" x="37" y="-230.3" font-family="Times,serif" font-size="14.00">filter_mod</text>
</g>
<!-- filter_mod&#45;&gt;distributed_state_mod -->
<g id="edge4" class="edge"><title>filter_mod&#45;&gt;distributed_state_mod</title>
<path fill="none" stroke="black" d="M64.6429,-215.876C79.4177,-206.724 97.7912,-195.342 113.703,-185.485"/>
<polygon fill="black" stroke="black" points="115.593,-188.431 122.251,-180.19 111.907,-182.481 115.593,-188.431"/>
</g>
<!-- assim_tools_mod -->
<g id="node5" class="node"><title>assim_tools_mod</title>
<polygon fill="none" stroke="black" points="207.25,-252 92.75,-252 92.75,-216 207.25,-216 207.25,-252"/>
<text text-anchor="middle" x="150" y="-230.3" font-family="Times,serif" font-size="14.00">assim_tools_mod</text>
</g>
<!-- assim_tools_mod&#45;&gt;distributed_state_mod -->
<g id="edge5" class="edge"><title>assim_tools_mod&#45;&gt;distributed_state_mod</title>
<path fill="none" stroke="black" d="M150,-215.697C150,-207.983 150,-198.712 150,-190.112"/>
<polygon fill="black" stroke="black" points="153.5,-190.104 150,-180.104 146.5,-190.104 153.5,-190.104"/>
</g>
<!-- model_mod -->
<g id="node6" class="node"><title>model_mod</title>
<polygon fill="none" stroke="black" points="308.25,-252 225.75,-252 225.75,-216 308.25,-216 308.25,-252"/>
<text text-anchor="middle" x="267" y="-230.3" font-family="Times,serif" font-size="14.00">model_mod</text>
</g>
<!-- model_mod&#45;&gt;distributed_state_mod -->
<g id="edge6" class="edge"><title>model_mod&#45;&gt;distributed_state_mod</title>
<path fill="none" stroke="black" d="M238.379,-215.876C223.081,-206.724 204.057,-195.342 187.582,-185.485"/>
<polygon fill="black" stroke="black" points="189.11,-182.32 178.731,-180.19 185.516,-188.327 189.11,-182.32"/>
</g>
</g>
</svg>
